# Wavefront OBJ file written 2026-05-23T13:35:15
o interiorSurfacesWindowOnly_edgeMesh

# points : 164
# lines  : 176

# <points count="164">
v 1.00067 1.81 1.04
v 1.03602 1.74876 1.04
v 0.135355 1.22876 1.04
v 0.135355 1.22876 1.94
v 1.00067 1.81 1.94
v 1.03602 1.74876 1.94
v 0.0915885 1.29 1.04
v 0.0915885 1.29 1.94
v 0.107285 1.29421 1.04
v 0.104206 1.28272 1.04
v 0.1 1.29841 1.04
v 0.1 1.28159 1.04
v 0.104206 1.28272 1.94
v 0.107285 1.29421 1.94
v 0.1 2.33 1.04
v 0 1.29 1.04
v 0 2.33 1.04
v 0 1.29 1.94
v 0.1 1.29841 1.94
v 0.1 2.33 1.94
v 0 2.33 1.94
v 0.1 1.28159 1.94
v 0.100144 1.29841 1.04
v 0.100505 1.2984 1.04
v 0.100865 1.29837 1.04
v 0.101223 1.29832 1.04
v 0.101579 1.29826 1.04
v 0.101932 1.29819 1.04
v 0.102967 1.29787 1.04
v 0.103302 1.29774 1.04
v 0.103631 1.29759 1.04
v 0.103953 1.29742 1.04
v 0.106459 1.29539 1.04
v 0.106684 1.29511 1.04
v 0.106897 1.29481 1.04
v 0.107097 1.29451 1.04
v 0.102529 1.28198 1.04
v 0.102177 1.28188 1.04
v 0.102281 1.2981 1.04
v 0.102627 1.29799 1.04
v 0.104268 1.29725 1.04
v 0.104575 1.29706 1.04
v 0.104874 1.29686 1.04
v 0.105163 1.29664 1.04
v 0.105444 1.29641 1.04
v 0.105714 1.29617 1.04
v 0.105973 1.29592 1.04
v 0.106222 1.29566 1.04
v 0.103884 1.28254 1.04
v 0.103555 1.28238 1.04
v 0.101821 1.28179 1.04
v 0.101461 1.28172 1.04
v 0.101098 1.28166 1.04
v 0.103219 1.28223 1.04
v 0.102877 1.2821 1.04
v 0.100733 1.28162 1.04
v 0.100367 1.2816 1.04
v 0.107097 1.29451 1.94
v 0.106897 1.29481 1.94
v 0.106684 1.29511 1.94
v 0.106459 1.29539 1.94
v 0.106222 1.29566 1.94
v 0.105973 1.29592 1.94
v 0.105714 1.29617 1.94
v 0.105444 1.29641 1.94
v 0.105163 1.29664 1.94
v 0.104874 1.29686 1.94
v 0.104575 1.29706 1.94
v 0.104268 1.29725 1.94
v 0.103953 1.29742 1.94
v 0.103631 1.29759 1.94
v 0.103302 1.29774 1.94
v 0.102967 1.29787 1.94
v 0.102627 1.29799 1.94
v 0.102281 1.2981 1.94
v 0.101932 1.29819 1.94
v 0.101579 1.29826 1.94
v 0.101223 1.29832 1.94
v 0.100865 1.29837 1.94
v 0.100505 1.2984 1.94
v 0.100144 1.29841 1.94
v 0.100367 1.2816 1.94
v 0.100733 1.28162 1.94
v 0.101098 1.28166 1.94
v 0.101461 1.28172 1.94
v 0.101821 1.28179 1.94
v 0.102177 1.28188 1.94
v 0.102529 1.28198 1.94
v 0.102877 1.2821 1.94
v 0.103219 1.28223 1.94
v 0.103555 1.28238 1.94
v 0.103884 1.28254 1.94
v 0.0997834 1.29841 1.04
v 0.0920794 1.29283 1.04
v 0.0922082 1.29317 1.04
v 0.0915962 1.29036 1.04
v 0.0916194 1.29072 1.04
v 0.0926796 1.29414 1.04
v 0.0928641 1.29445 1.04
v 0.0916581 1.29108 1.04
v 0.0917121 1.29144 1.04
v 0.0917814 1.29179 1.04
v 0.0918658 1.29214 1.04
v 0.0919652 1.29249 1.04
v 0.0945015 1.29637 1.04
v 0.0947797 1.2966 1.04
v 0.0950675 1.29681 1.04
v 0.0953644 1.29702 1.04
v 0.0956698 1.29721 1.04
v 0.0923513 1.2935 1.04
v 0.0925085 1.29383 1.04
v 0.0930617 1.29476 1.04
v 0.0932721 1.29505 1.04
v 0.0934949 1.29533 1.04
v 0.0937297 1.29561 1.04
v 0.0939761 1.29587 1.04
v 0.0942335 1.29612 1.04
v 0.0976491 1.29808 1.04
v 0.0979978 1.29817 1.04
v 0.0983501 1.29825 1.04
v 0.0987055 1.29831 1.04
v 0.0966316 1.29771 1.04
v 0.0969654 1.29785 1.04
v 0.0973047 1.29797 1.04
v 0.0990633 1.29836 1.04
v 0.0994228 1.29839 1.04
v 0.0959832 1.29739 1.04
v 0.096304 1.29756 1.04
v 0.0997834 1.29841 1.94
v 0.0994228 1.29839 1.94
v 0.0990633 1.29836 1.94
v 0.0987055 1.29831 1.94
v 0.0983501 1.29825 1.94
v 0.0979978 1.29817 1.94
v 0.0976491 1.29808 1.94
v 0.0973047 1.29797 1.94
v 0.0969654 1.29785 1.94
v 0.0966316 1.29771 1.94
v 0.096304 1.29756 1.94
v 0.0959832 1.29739 1.94
v 0.0956698 1.29721 1.94
v 0.0953644 1.29702 1.94
v 0.0950675 1.29681 1.94
v 0.0947797 1.2966 1.94
v 0.0945015 1.29637 1.94
v 0.0942335 1.29612 1.94
v 0.0939761 1.29587 1.94
v 0.0937297 1.29561 1.94
v 0.0934949 1.29533 1.94
v 0.0932721 1.29505 1.94
v 0.0930617 1.29476 1.94
v 0.0928641 1.29445 1.94
v 0.0926796 1.29414 1.94
v 0.0925085 1.29383 1.94
v 0.0923513 1.2935 1.94
v 0.0922082 1.29317 1.94
v 0.0920794 1.29283 1.94
v 0.0919652 1.29249 1.94
v 0.0918658 1.29214 1.94
v 0.0917814 1.29179 1.94
v 0.0917121 1.29144 1.94
v 0.0916581 1.29108 1.94
v 0.0916194 1.29072 1.94
v 0.0915962 1.29036 1.94
# </points>

# <edges count="176">
l 9 1
l 1 2
l 3 10
l 2 3
l 11 23
l 23 24
l 24 25
l 25 26
l 26 27
l 27 28
l 29 30
l 30 31
l 31 32
l 33 34
l 34 35
l 35 36
l 37 38
l 28 39
l 39 40
l 40 29
l 32 41
l 41 42
l 42 43
l 43 44
l 44 45
l 45 46
l 46 47
l 47 48
l 48 33
l 36 9
l 10 49
l 49 50
l 38 51
l 51 52
l 52 53
l 50 54
l 54 55
l 55 37
l 53 56
l 56 57
l 57 12
l 3 4
l 4 13
l 5 1
l 14 5
l 11 15
l 17 16
l 16 18
l 58 14
l 59 58
l 60 59
l 61 60
l 62 61
l 63 62
l 64 63
l 65 64
l 66 65
l 67 66
l 68 67
l 69 68
l 70 69
l 71 70
l 72 71
l 73 72
l 74 73
l 75 74
l 76 75
l 77 76
l 78 77
l 79 78
l 80 79
l 81 80
l 19 81
l 6 4
l 2 6
l 15 20
l 21 17
l 21 18
l 19 20
l 5 6
l 82 22
l 83 82
l 84 83
l 85 84
l 86 85
l 87 86
l 88 87
l 89 88
l 90 89
l 91 90
l 92 91
l 13 92
l 12 11
l 13 10
l 9 14
l 93 11
l 94 95
l 96 97
l 16 7
l 7 96
l 98 99
l 97 100
l 100 101
l 101 102
l 102 103
l 103 104
l 104 94
l 105 106
l 106 107
l 107 108
l 108 109
l 95 110
l 110 111
l 111 98
l 99 112
l 112 113
l 113 114
l 114 115
l 115 116
l 15 17
l 116 117
l 117 105
l 118 119
l 119 120
l 120 121
l 122 123
l 123 124
l 124 118
l 121 125
l 125 126
l 126 93
l 109 127
l 127 128
l 128 122
l 8 7
l 18 8
l 129 19
l 130 129
l 131 130
l 132 131
l 133 132
l 134 133
l 135 134
l 136 135
l 137 136
l 138 137
l 139 138
l 140 139
l 141 140
l 142 141
l 143 142
l 144 143
l 145 144
l 146 145
l 147 146
l 148 147
l 149 148
l 150 149
l 151 150
l 152 151
l 153 152
l 154 153
l 155 154
l 156 155
l 157 156
l 158 157
l 159 158
l 160 159
l 161 160
l 162 161
l 163 162
l 164 163
l 8 164
l 20 21
l 12 22
l 22 19
# </edges>
