solid Mesh
  facet normal 0 -1 0
    outer loop
      vertex 1.22042 1.21929 1.04
      vertex 1.22042 1.21929 1.94
      vertex 0.1 1.21929 1.04
    endloop
  endfacet
  facet normal 0 -1 0
    outer loop
      vertex 1.22042 1.21929 1.94
      vertex 0.1 1.21929 1.94
      vertex 0.1 1.21929 1.04
    endloop
  endfacet
  facet normal 1 0 0
    outer loop
      vertex 1.22042 1.21929 1.94
      vertex 1.22042 1.21929 1.04
      vertex 1.22042 1.29 1.94
    endloop
  endfacet
  facet normal 1 0 0
    outer loop
      vertex 1.22042 1.21929 1.04
      vertex 1.22042 1.29 1.04
      vertex 1.22042 1.29 1.94
    endloop
  endfacet
  facet normal 0 0 -1
    outer loop
      vertex 1.22042 1.29 1.04
      vertex 1.22042 1.21929 1.04
      vertex 0.1 1.29 1.04
    endloop
  endfacet
  facet normal 0 0 -1
    outer loop
      vertex 1.22042 1.21929 1.04
      vertex 0.1 1.21929 1.04
      vertex 0.1 1.29 1.04
    endloop
  endfacet
  facet normal 0 0 1
    outer loop
      vertex 1.22042 1.21929 1.94
      vertex 1.22042 1.29 1.94
      vertex 0.1 1.21929 1.94
    endloop
  endfacet
  facet normal 0 0 1
    outer loop
      vertex 1.22042 1.29 1.94
      vertex 0.1 1.29 1.94
      vertex 0.1 1.21929 1.94
    endloop
  endfacet
  facet normal 0 -1 0
    outer loop
      vertex 0.1 2.33 1.04
      vertex 0.1 2.33 1.94
      vertex 0 2.33 1.04
    endloop
  endfacet
  facet normal 0 -1 0
    outer loop
      vertex 0.1 2.33 1.94
      vertex 0 2.33 1.94
      vertex 0 2.33 1.04
    endloop
  endfacet
  facet normal -1 0 0
    outer loop
      vertex 2.03577 0.355 2.66
      vertex 2.03577 0.355 0
      vertex 2.03577 0 2.66
    endloop
  endfacet
  facet normal -1 0 0
    outer loop
      vertex 2.03577 0.355 0
      vertex 2.03577 0 0
      vertex 2.03577 0 2.66
    endloop
  endfacet
  facet normal 0 0 1
    outer loop
      vertex 0 -0.1 2.76
      vertex 4.92 -0.1 2.76
      vertex -8.88178e-16 4.985 2.76
    endloop
  endfacet
  facet normal 0 0 1
    outer loop
      vertex 4.92 -0.1 2.76
      vertex 4.92 4.985 2.76
      vertex -8.88178e-16 4.985 2.76
    endloop
  endfacet
  facet normal 0 0 1
    outer loop
      vertex 4.82 3.69933 0
      vertex 4.92 3.69933 0
      vertex 4.92 4.62433 0
    endloop
  endfacet
  facet normal 0 -5.02481e-17 1
    outer loop
      vertex 0.1 0 0
      vertex 2.03577 0 0
      vertex 0.1 4.865 2.44457e-16
    endloop
  endfacet
  facet normal 1.26284e-16 0 1
    outer loop
      vertex 2.03577 0 0
      vertex 2.03577 0.355 0
      vertex 0.1 4.865 2.44457e-16
    endloop
  endfacet
  facet normal 0 1.22226e-14 1
    outer loop
      vertex -8.88178e-16 4.885 0
      vertex 0 4.865 2.44457e-16
      vertex 0.1 4.865 2.44457e-16
    endloop
  endfacet
  facet normal 0 0 1
    outer loop
      vertex 2.39077 0.355 0
      vertex 2.39077 0 0
      vertex 4.82 0 0
    endloop
  endfacet
  facet normal 0 0 1
    outer loop
      vertex 4.82 0 0
      vertex 4.82 3.69933 0
      vertex 2.39077 0.355 0
    endloop
  endfacet
  facet normal 0 0 1
    outer loop
      vertex 4.82 3.69933 0
      vertex 4.92 4.62433 0
      vertex 2.39077 0.355 0
    endloop
  endfacet
  facet normal 0 0 1
    outer loop
      vertex 2.39077 0.355 0
      vertex 4.92 4.62433 0
      vertex 2.03577 0.355 0
    endloop
  endfacet
  facet normal 0 0 1
    outer loop
      vertex 4.92 4.62433 0
      vertex 4.82 4.62433 0
      vertex 2.03577 0.355 0
    endloop
  endfacet
  facet normal 5.0125e-17 -3.26888e-17 1
    outer loop
      vertex 2.03577 0.355 0
      vertex 4.82 4.62433 0
      vertex 0.1 4.865 2.44457e-16
    endloop
  endfacet
  facet normal 5.17918e-17 0 1
    outer loop
      vertex 4.82 4.62433 0
      vertex 4.82 4.885 0
      vertex 0.1 4.865 2.44457e-16
    endloop
  endfacet
  facet normal 0 1.22226e-14 1
    outer loop
      vertex 0.1 4.865 2.44457e-16
      vertex 4.82 4.885 0
      vertex -8.88178e-16 4.885 0
    endloop
  endfacet
  facet normal 1 0 0
    outer loop
      vertex 4.92 4.985 -0.1
      vertex 4.92 4.62433 0
      vertex 4.92 3.69933 0
    endloop
  endfacet
  facet normal 1 0 0
    outer loop
      vertex 4.92 4.62433 0
      vertex 4.92 4.985 -0.1
      vertex 4.92 4.62433 2.03
    endloop
  endfacet
  facet normal 1 0 0
    outer loop
      vertex 4.92 4.985 -0.1
      vertex 4.92 4.985 2.76
      vertex 4.92 4.62433 2.03
    endloop
  endfacet
  facet normal 1 0 0
    outer loop
      vertex 4.92 4.62433 2.03
      vertex 4.92 4.985 2.76
      vertex 4.92 3.69933 2.03
    endloop
  endfacet
  facet normal 1 0 0
    outer loop
      vertex 4.92 4.985 2.76
      vertex 4.92 -0.1 2.76
      vertex 4.92 3.69933 2.03
    endloop
  endfacet
  facet normal 1 0 0
    outer loop
      vertex 4.92 3.69933 2.03
      vertex 4.92 -0.1 2.76
      vertex 4.92 3.69933 0
    endloop
  endfacet
  facet normal 1 0 0
    outer loop
      vertex 4.92 -0.1 2.76
      vertex 4.92 -0.1 -0.1
      vertex 4.92 3.69933 0
    endloop
  endfacet
  facet normal 1 0 0
    outer loop
      vertex 4.92 3.69933 0
      vertex 4.92 -0.1 -0.1
      vertex 4.92 4.985 -0.1
    endloop
  endfacet
  facet normal 0 0 -1
    outer loop
      vertex 0 4.865 2.66
      vertex -8.88178e-16 4.885 2.66
      vertex 0.1 4.865 2.66
    endloop
  endfacet
  facet normal 0 0 -1
    outer loop
      vertex -8.88178e-16 4.885 2.66
      vertex 4.82 4.885 2.66
      vertex 0.1 4.865 2.66
    endloop
  endfacet
  facet normal 0 0 -1
    outer loop
      vertex 2.03577 0 2.66
      vertex 0.1 1.32102e-16 2.66
      vertex 2.03577 0.355 2.66
    endloop
  endfacet
  facet normal 0 0 -1
    outer loop
      vertex 0.1 1.32102e-16 2.66
      vertex 0.1 4.865 2.66
      vertex 2.03577 0.355 2.66
    endloop
  endfacet
  facet normal 0 0 -1
    outer loop
      vertex 2.03577 0.355 2.66
      vertex 0.1 4.865 2.66
      vertex 2.39077 0.355 2.66
    endloop
  endfacet
  facet normal 0 0 -1
    outer loop
      vertex 0.1 4.865 2.66
      vertex 4.82 4.885 2.66
      vertex 2.39077 0.355 2.66
    endloop
  endfacet
  facet normal 0 0 -1
    outer loop
      vertex 2.39077 0.355 2.66
      vertex 4.82 4.885 2.66
      vertex 2.39077 0 2.66
    endloop
  endfacet
  facet normal 0 0 -1
    outer loop
      vertex 4.82 4.885 2.66
      vertex 4.82 6.93889e-17 2.66
      vertex 2.39077 0 2.66
    endloop
  endfacet
  facet normal 1 0 0
    outer loop
      vertex 2.39077 0 0
      vertex 2.39077 0.355 0
      vertex 2.39077 0 2.66
    endloop
  endfacet
  facet normal 1 0 0
    outer loop
      vertex 2.39077 0.355 0
      vertex 2.39077 0.355 2.66
      vertex 2.39077 0 2.66
    endloop
  endfacet
  facet normal -1 0 0
    outer loop
      vertex -8.88178e-16 4.885 2.66
      vertex -8.88178e-16 4.985 2.76
      vertex -8.88178e-16 4.885 0
    endloop
  endfacet
  facet normal -1 0 0
    outer loop
      vertex -8.88178e-16 4.985 2.76
      vertex -8.88178e-16 4.985 -0.1
      vertex -8.88178e-16 4.885 0
    endloop
  endfacet
  facet normal -1 -4.44079e-14 -4.44079e-14
    outer loop
      vertex -8.88178e-16 4.885 0
      vertex -8.88178e-16 4.985 -0.1
      vertex 0 4.865 2.44457e-16
    endloop
  endfacet
  facet normal -1 -1.74666e-16 8.67218e-15
    outer loop
      vertex -8.88178e-16 4.985 -0.1
      vertex 0 -0.1 -0.1
      vertex 0 4.865 2.44457e-16
    endloop
  endfacet
  facet normal -1 -4.44079e-14 4.44079e-14
    outer loop
      vertex -8.88178e-16 4.885 2.66
      vertex 0 4.865 2.66
      vertex -8.88178e-16 4.985 2.76
    endloop
  endfacet
  facet normal -1 3.82699e-15 -1.34742e-14
    outer loop
      vertex 0 4.865 2.66
      vertex 0 2.33 1.94
      vertex -8.88178e-16 4.985 2.76
    endloop
  endfacet
  facet normal -1 -1.74666e-16 -5.17609e-16
    outer loop
      vertex -8.88178e-16 4.985 2.76
      vertex 0 2.33 1.94
      vertex 0 -0.1 2.76
    endloop
  endfacet
  facet normal -1 0 0
    outer loop
      vertex 0 2.33 1.94
      vertex 0 1.29 1.94
      vertex 0 -0.1 2.76
    endloop
  endfacet
  facet normal -1 0 0
    outer loop
      vertex 0 -0.1 2.76
      vertex 0 1.29 1.94
      vertex 0 -0.1 -0.1
    endloop
  endfacet
  facet normal -1 0 0
    outer loop
      vertex 0 1.29 1.94
      vertex 0 1.29 1.04
      vertex 0 -0.1 -0.1
    endloop
  endfacet
  facet normal -1 0 0
    outer loop
      vertex 0 -0.1 -0.1
      vertex 0 1.29 1.04
      vertex 0 4.865 2.44457e-16
    endloop
  endfacet
  facet normal -1 0 0
    outer loop
      vertex 0 1.29 1.04
      vertex 0 2.33 1.04
      vertex 0 4.865 2.44457e-16
    endloop
  endfacet
  facet normal -1 0 0
    outer loop
      vertex 0 4.865 2.44457e-16
      vertex 0 2.33 1.04
      vertex 0 4.865 2.66
    endloop
  endfacet
  facet normal -1 0 0
    outer loop
      vertex 0 2.33 1.04
      vertex 0 2.33 1.94
      vertex 0 4.865 2.66
    endloop
  endfacet
  facet normal 0 1 0
    outer loop
      vertex 0.1 4.865 2.66
      vertex 0.1 4.865 2.44457e-16
      vertex 0 4.865 2.66
    endloop
  endfacet
  facet normal 0 1 0
    outer loop
      vertex 0.1 4.865 2.44457e-16
      vertex 0 4.865 2.44457e-16
      vertex 0 4.865 2.66
    endloop
  endfacet
  facet normal 0 -1 0
    outer loop
      vertex 4.92 -0.1 2.76
      vertex 0 -0.1 2.76
      vertex 4.92 -0.1 -0.1
    endloop
  endfacet
  facet normal 0 -1 0
    outer loop
      vertex 0 -0.1 2.76
      vertex 0 -0.1 -0.1
      vertex 4.92 -0.1 -0.1
    endloop
  endfacet
  facet normal 0 0 1
    outer loop
      vertex 0.1 1.29 1.04
      vertex 0.1 2.33 1.04
      vertex 0 1.29 1.04
    endloop
  endfacet
  facet normal 0 0 1
    outer loop
      vertex 0.1 2.33 1.04
      vertex 0 2.33 1.04
      vertex 0 1.29 1.04
    endloop
  endfacet
  facet normal 0 0 -1
    outer loop
      vertex 4.92 4.985 -0.1
      vertex 4.92 -0.1 -0.1
      vertex -8.88178e-16 4.985 -0.1
    endloop
  endfacet
  facet normal 0 0 -1
    outer loop
      vertex 4.92 -0.1 -0.1
      vertex 0 -0.1 -0.1
      vertex -8.88178e-16 4.985 -0.1
    endloop
  endfacet
  facet normal 0 1 0
    outer loop
      vertex 2.03577 0 0
      vertex 0.1 0 0
      vertex 2.03577 0 2.66
    endloop
  endfacet
  facet normal 6.82429e-17 1 -4.96626e-17
    outer loop
      vertex 0.1 0 0
      vertex 0.1 1.32102e-16 2.66
      vertex 2.03577 0 2.66
    endloop
  endfacet
  facet normal 1 0 0
    outer loop
      vertex 0.1 2.33 1.94
      vertex 0.1 2.33 1.04
      vertex 0.1 4.865 2.44457e-16
    endloop
  endfacet
  facet normal 1 0 0
    outer loop
      vertex 0.1 1.21929 1.94
      vertex 0.1 1.32102e-16 2.66
      vertex 0.1 1.21929 1.04
    endloop
  endfacet
  facet normal 1 0 0
    outer loop
      vertex 0.1 1.32102e-16 2.66
      vertex 0.1 0 0
      vertex 0.1 1.21929 1.04
    endloop
  endfacet
  facet normal 1 0 0
    outer loop
      vertex 0.1 4.865 2.44457e-16
      vertex 0.1 2.33 1.04
      vertex 0.1 0 0
    endloop
  endfacet
  facet normal 1 0 0
    outer loop
      vertex 0.1 2.33 1.04
      vertex 0.1 1.29 1.04
      vertex 0.1 0 0
    endloop
  endfacet
  facet normal 1 0 0
    outer loop
      vertex 0.1 0 0
      vertex 0.1 1.29 1.04
      vertex 0.1 1.21929 1.04
    endloop
  endfacet
  facet normal 1 0 0
    outer loop
      vertex 0.1 1.21929 1.94
      vertex 0.1 1.29 1.94
      vertex 0.1 1.32102e-16 2.66
    endloop
  endfacet
  facet normal 1 0 0
    outer loop
      vertex 0.1 1.29 1.94
      vertex 0.1 2.33 1.94
      vertex 0.1 1.32102e-16 2.66
    endloop
  endfacet
  facet normal 1 0 0
    outer loop
      vertex 0.1 1.32102e-16 2.66
      vertex 0.1 2.33 1.94
      vertex 0.1 4.865 2.66
    endloop
  endfacet
  facet normal 1 0 0
    outer loop
      vertex 0.1 2.33 1.94
      vertex 0.1 4.865 2.44457e-16
      vertex 0.1 4.865 2.66
    endloop
  endfacet
  facet normal -1 0 0
    outer loop
      vertex 4.82 3.69933 2.03
      vertex 4.82 3.69933 0
      vertex 4.82 0 0
    endloop
  endfacet
  facet normal -1 0 0
    outer loop
      vertex 4.82 4.885 2.66
      vertex 4.82 4.885 0
      vertex 4.82 4.62433 0
    endloop
  endfacet
  facet normal -1 0 0
    outer loop
      vertex 4.82 4.62433 0
      vertex 4.82 4.62433 2.03
      vertex 4.82 4.885 2.66
    endloop
  endfacet
  facet normal -1 0 0
    outer loop
      vertex 4.82 4.62433 2.03
      vertex 4.82 3.69933 2.03
      vertex 4.82 4.885 2.66
    endloop
  endfacet
  facet normal -1 0 0
    outer loop
      vertex 4.82 4.885 2.66
      vertex 4.82 3.69933 2.03
      vertex 4.82 6.93889e-17 2.66
    endloop
  endfacet
  facet normal -1 0 0
    outer loop
      vertex 4.82 3.69933 2.03
      vertex 4.82 0 0
      vertex 4.82 6.93889e-17 2.66
    endloop
  endfacet
  facet normal 0 0 -1
    outer loop
      vertex 0.1 1.29 1.94
      vertex 0 1.29 1.94
      vertex 0.1 2.33 1.94
    endloop
  endfacet
  facet normal 0 0 -1
    outer loop
      vertex 0 1.29 1.94
      vertex 0 2.33 1.94
      vertex 0.1 2.33 1.94
    endloop
  endfacet
  facet normal 0 1 0
    outer loop
      vertex 2.39077 0.355 2.66
      vertex 2.39077 0.355 0
      vertex 2.03577 0.355 2.66
    endloop
  endfacet
  facet normal 0 1 0
    outer loop
      vertex 2.39077 0.355 0
      vertex 2.03577 0.355 0
      vertex 2.03577 0.355 2.66
    endloop
  endfacet
  facet normal -2.85642e-17 1 -2.60861e-17
    outer loop
      vertex 4.82 6.93889e-17 2.66
      vertex 4.82 0 0
      vertex 2.39077 0 2.66
    endloop
  endfacet
  facet normal 0 1 0
    outer loop
      vertex 4.82 0 0
      vertex 2.39077 0 0
      vertex 2.39077 0 2.66
    endloop
  endfacet
  facet normal 0 -1 0
    outer loop
      vertex 4.82 4.885 0
      vertex 4.82 4.885 2.66
      vertex -8.88178e-16 4.885 0
    endloop
  endfacet
  facet normal 0 -1 0
    outer loop
      vertex 4.82 4.885 2.66
      vertex -8.88178e-16 4.885 2.66
      vertex -8.88178e-16 4.885 0
    endloop
  endfacet
  facet normal 0 1 0
    outer loop
      vertex 4.92 4.985 2.76
      vertex 4.92 4.985 -0.1
      vertex -8.88178e-16 4.985 2.76
    endloop
  endfacet
  facet normal 0 1 0
    outer loop
      vertex 4.92 4.985 -0.1
      vertex -8.88178e-16 4.985 -0.1
      vertex -8.88178e-16 4.985 2.76
    endloop
  endfacet
  facet normal 0 -1 0
    outer loop
      vertex 4.82 4.62433 2.03
      vertex 4.82 4.62433 0
      vertex 4.92 4.62433 2.03
    endloop
  endfacet
  facet normal 0 -1 0
    outer loop
      vertex 4.82 4.62433 0
      vertex 4.92 4.62433 0
      vertex 4.92 4.62433 2.03
    endloop
  endfacet
  facet normal 0 1 0
    outer loop
      vertex 1.22042 1.29 1.94
      vertex 1.22042 1.29 1.04
      vertex 0.1 1.29 1.94
    endloop
  endfacet
  facet normal 0 1 0
    outer loop
      vertex 1.22042 1.29 1.04
      vertex 0.1 1.29 1.04
      vertex 0.1 1.29 1.94
    endloop
  endfacet
  facet normal 0 1 0
    outer loop
      vertex 0.1 1.29 1.94
      vertex 0.1 1.29 1.04
      vertex 0 1.29 1.94
    endloop
  endfacet
  facet normal 0 1 0
    outer loop
      vertex 0.1 1.29 1.04
      vertex 0 1.29 1.04
      vertex 0 1.29 1.94
    endloop
  endfacet
  facet normal 0 1 0
    outer loop
      vertex 4.82 3.69933 2.03
      vertex 4.92 3.69933 2.03
      vertex 4.82 3.69933 0
    endloop
  endfacet
  facet normal 0 1 0
    outer loop
      vertex 4.92 3.69933 2.03
      vertex 4.92 3.69933 0
      vertex 4.82 3.69933 0
    endloop
  endfacet
  facet normal 0 0 -1
    outer loop
      vertex 4.82 3.69933 2.03
      vertex 4.82 4.62433 2.03
      vertex 4.92 3.69933 2.03
    endloop
  endfacet
  facet normal 0 0 -1
    outer loop
      vertex 4.82 4.62433 2.03
      vertex 4.92 4.62433 2.03
      vertex 4.92 3.69933 2.03
    endloop
  endfacet
endsolid Mesh
