# Wavefront OBJ file written 2026-05-21T19:52:29
o interiorSurfacesWindowOnly_edgeMesh

# points : 168
# lines  : 182

# <points count="168">
v 0.885391 1.97539 1.04
v 0.15 1.24 1.04
v 0.835391 2.02539 1.04
v 0.15 1.24 1.94
v 0.835391 2.02539 1.94
v 0.885391 1.97539 1.94
v 0.025 1.29 1.94
v 0.025 2.33 1.94
v 0.0915885 1.29 1.04
v 0.0915885 1.29 1.94
v 0.025 1.29 1.58
v 0.025 2.33 1.58
v 0 2.33 1.58
v 0 1.29 1.58
v 0.1 1.28159 1.04
v 0.1 1.29841 1.04
v 0.105948 1.28405 1.04
v 0.105948 1.29595 1.04
v 0.105948 1.28405 1.94
v 0.105948 1.29595 1.94
v 0.1 1.29841 1.94
v 0 1.29 1.04
v 0 2.33 1.04
v 0.1 2.33 1.94
v 0.1 2.33 1.04
v 0.1 1.28159 1.94
v 0.10012 1.29841 1.04
v 0.101197 1.29833 1.04
v 0.101553 1.29827 1.04
v 0.10048 1.2984 1.04
v 0.100839 1.29837 1.04
v 0.103603 1.2976 1.04
v 0.103925 1.29744 1.04
v 0.10424 1.29726 1.04
v 0.104548 1.29708 1.04
v 0.105417 1.29643 1.04
v 0.105688 1.2962 1.04
v 0.101905 1.29819 1.04
v 0.102254 1.2981 1.04
v 0.102599 1.298 1.04
v 0.102529 1.28198 1.04
v 0.102177 1.28188 1.04
v 0.10294 1.29788 1.04
v 0.103274 1.29775 1.04
v 0.104847 1.29688 1.04
v 0.105136 1.29666 1.04
v 0.104206 1.28272 1.04
v 0.103884 1.28254 1.04
v 0.103555 1.28238 1.04
v 0.101098 1.28166 1.04
v 0.100733 1.28162 1.04
v 0.100367 1.2816 1.04
v 0.103219 1.28223 1.04
v 0.102877 1.2821 1.04
v 0.101821 1.28179 1.04
v 0.101461 1.28172 1.04
v 0.105683 1.2838 1.04
v 0.105407 1.28356 1.04
v 0.105121 1.28333 1.04
v 0.104825 1.28311 1.04
v 0.10452 1.28291 1.04
v 0.105688 1.2962 1.94
v 0.105417 1.29643 1.94
v 0.105136 1.29666 1.94
v 0.104847 1.29688 1.94
v 0.104548 1.29708 1.94
v 0.10424 1.29726 1.94
v 0.103925 1.29744 1.94
v 0.103603 1.2976 1.94
v 0.103274 1.29775 1.94
v 0.10294 1.29788 1.94
v 0.102599 1.298 1.94
v 0.102254 1.2981 1.94
v 0.101905 1.29819 1.94
v 0.101553 1.29827 1.94
v 0.101197 1.29833 1.94
v 0.100839 1.29837 1.94
v 0.10048 1.2984 1.94
v 0.10012 1.29841 1.94
v 0.100367 1.2816 1.94
v 0.100733 1.28162 1.94
v 0.101098 1.28166 1.94
v 0.101461 1.28172 1.94
v 0.101821 1.28179 1.94
v 0.102177 1.28188 1.94
v 0.102529 1.28198 1.94
v 0.102877 1.2821 1.94
v 0.103219 1.28223 1.94
v 0.103555 1.28238 1.94
v 0.103884 1.28254 1.94
v 0.104206 1.28272 1.94
v 0.10452 1.28291 1.94
v 0.104825 1.28311 1.94
v 0.105121 1.28333 1.94
v 0.105407 1.28356 1.94
v 0.105683 1.2838 1.94
v 0.0997598 1.29841 1.94
v 0.0997598 1.29841 1.04
v 0.0993999 1.29839 1.04
v 0.0993999 1.29839 1.94
v 0.0990412 1.29836 1.04
v 0.0990412 1.29836 1.94
v 0.0986841 1.29831 1.04
v 0.0986841 1.29831 1.94
v 0.0983295 1.29824 1.04
v 0.0983295 1.29824 1.94
v 0.097978 1.29816 1.04
v 0.097978 1.29816 1.94
v 0.0976302 1.29807 1.04
v 0.0976302 1.29807 1.94
v 0.0972867 1.29796 1.04
v 0.0972867 1.29796 1.94
v 0.0969482 1.29784 1.04
v 0.0969482 1.29784 1.94
v 0.0966153 1.2977 1.04
v 0.0966153 1.2977 1.94
v 0.0962887 1.29755 1.04
v 0.0962887 1.29755 1.94
v 0.0959688 1.29738 1.04
v 0.0959688 1.29738 1.94
v 0.0956563 1.2972 1.04
v 0.0956563 1.2972 1.94
v 0.0953518 1.29701 1.04
v 0.0953518 1.29701 1.94
v 0.0950558 1.29681 1.04
v 0.0950558 1.29681 1.94
v 0.0947689 1.29659 1.04
v 0.0947689 1.29659 1.94
v 0.0944916 1.29636 1.04
v 0.0944916 1.29636 1.94
v 0.0942244 1.29612 1.04
v 0.0942244 1.29612 1.94
v 0.0939678 1.29586 1.04
v 0.0939678 1.29586 1.94
v 0.0937223 1.2956 1.04
v 0.0937223 1.2956 1.94
v 0.0934883 1.29532 1.04
v 0.0934883 1.29532 1.94
v 0.0932662 1.29504 1.04
v 0.0932662 1.29504 1.94
v 0.0930565 1.29475 1.04
v 0.0930565 1.29475 1.94
v 0.0928595 1.29445 1.04
v 0.0928595 1.29445 1.94
v 0.0926757 1.29414 1.04
v 0.0926757 1.29414 1.94
v 0.0925053 1.29382 1.04
v 0.0925053 1.29382 1.94
v 0.0923486 1.29349 1.04
v 0.0923486 1.29349 1.94
v 0.092206 1.29316 1.04
v 0.092206 1.29316 1.94
v 0.0920776 1.29283 1.04
v 0.0920776 1.29283 1.94
v 0.0919638 1.29248 1.04
v 0.0919638 1.29248 1.94
v 0.0918648 1.29214 1.04
v 0.0918648 1.29214 1.94
v 0.0917807 1.29179 1.04
v 0.0917807 1.29179 1.94
v 0.0917116 1.29143 1.04
v 0.0917116 1.29143 1.94
v 0.0916578 1.29108 1.04
v 0.0916578 1.29108 1.94
v 0.0916193 1.29072 1.04
v 0.0916193 1.29072 1.94
v 0.0915962 1.29036 1.04
v 0.0915962 1.29036 1.94
# </points>

# <edges count="182">
l 11 12
l 14 13
l 16 27
l 2 17
l 1 2
l 28 29
l 27 30
l 30 31
l 31 28
l 32 33
l 33 34
l 34 35
l 36 37
l 29 38
l 38 39
l 39 40
l 41 42
l 40 43
l 43 44
l 44 32
l 35 45
l 45 46
l 46 36
l 37 18
l 18 3
l 3 1
l 47 48
l 48 49
l 50 51
l 51 52
l 52 15
l 49 53
l 53 54
l 54 41
l 42 55
l 55 56
l 56 50
l 17 57
l 57 58
l 58 59
l 59 60
l 60 61
l 61 47
l 2 4
l 4 19
l 5 3
l 20 5
l 62 20
l 63 62
l 64 63
l 65 64
l 66 65
l 67 66
l 68 67
l 69 68
l 70 69
l 71 70
l 72 71
l 73 72
l 74 73
l 75 74
l 76 75
l 77 76
l 78 77
l 79 78
l 21 79
l 6 4
l 1 6
l 22 14
l 23 13
l 22 23
l 24 21
l 16 25
l 24 25
l 5 6
l 80 26
l 81 80
l 82 81
l 83 82
l 84 83
l 85 84
l 86 85
l 87 86
l 88 87
l 89 88
l 90 89
l 91 90
l 92 91
l 93 92
l 94 93
l 95 94
l 96 95
l 19 96
l 7 11
l 8 7
l 12 8
l 13 12
l 11 14
l 15 16
l 19 17
l 18 20
l 97 21
l 16 98
l 98 99
l 100 97
l 99 101
l 102 100
l 101 103
l 104 102
l 103 105
l 106 104
l 105 107
l 108 106
l 107 109
l 110 108
l 109 111
l 112 110
l 111 113
l 114 112
l 113 115
l 116 114
l 115 117
l 118 116
l 117 119
l 120 118
l 119 121
l 122 120
l 121 123
l 124 122
l 123 125
l 126 124
l 125 127
l 128 126
l 127 129
l 130 128
l 129 131
l 132 130
l 131 133
l 134 132
l 133 135
l 136 134
l 135 137
l 138 136
l 137 139
l 140 138
l 139 141
l 142 140
l 141 143
l 144 142
l 143 145
l 146 144
l 145 147
l 148 146
l 147 149
l 150 148
l 149 151
l 152 150
l 151 153
l 154 152
l 153 155
l 156 154
l 155 157
l 158 156
l 157 159
l 160 158
l 159 161
l 162 160
l 161 163
l 164 162
l 163 165
l 166 164
l 165 167
l 168 166
l 167 9
l 9 10
l 10 168
l 7 10
l 9 22
l 8 24
l 25 23
l 15 26
l 26 21
# </edges>
