solid Mesh
  facet normal -1 0 0
    outer loop
      vertex 0 1 -1
      vertex 0 2.5 -2.5
      vertex 0 -1 -1
    endloop
  endfacet
  facet normal -1 0 0
    outer loop
      vertex 0 2.5 -2.5
      vertex 0 -2.5 -2.5
      vertex 0 -1 -1
    endloop
  endfacet
  facet normal -1 0 0
    outer loop
      vertex 0 -1 -1
      vertex 0 -2.5 -2.5
      vertex 0 -1 1
    endloop
  endfacet
  facet normal -1 0 0
    outer loop
      vertex 0 -2.5 -2.5
      vertex 0 -2.5 2.5
      vertex 0 -1 1
    endloop
  endfacet
  facet normal -1 0 0
    outer loop
      vertex 0 -1 1
      vertex 0 -2.5 2.5
      vertex 0 1 1
    endloop
  endfacet
  facet normal -1 0 0
    outer loop
      vertex 0 -2.5 2.5
      vertex 0 2.5 2.5
      vertex 0 1 1
    endloop
  endfacet
  facet normal -1 0 0
    outer loop
      vertex 0 1 1
      vertex 0 2.5 2.5
      vertex 0 1 -1
    endloop
  endfacet
  facet normal -1 0 0
    outer loop
      vertex 0 2.5 2.5
      vertex 0 2.5 -2.5
      vertex 0 1 -1
    endloop
  endfacet
  facet normal 1 0 0
    outer loop
      vertex 0.1 1 1
      vertex 0.1 2.5 2.5
      vertex 0.1 -1 1
    endloop
  endfacet
  facet normal 1 0 0
    outer loop
      vertex 0.1 2.5 2.5
      vertex 0.1 -2.5 2.5
      vertex 0.1 -1 1
    endloop
  endfacet
  facet normal 1 0 0
    outer loop
      vertex 0.1 -1 1
      vertex 0.1 -2.5 2.5
      vertex 0.1 -1 -1
    endloop
  endfacet
  facet normal 1 0 0
    outer loop
      vertex 0.1 -2.5 2.5
      vertex 0.1 -2.5 -2.5
      vertex 0.1 -1 -1
    endloop
  endfacet
  facet normal 1 0 0
    outer loop
      vertex 0.1 -1 -1
      vertex 0.1 -2.5 -2.5
      vertex 0.1 1 -1
    endloop
  endfacet
  facet normal 1 0 0
    outer loop
      vertex 0.1 -2.5 -2.5
      vertex 0.1 2.5 -2.5
      vertex 0.1 1 -1
    endloop
  endfacet
  facet normal 1 0 0
    outer loop
      vertex 0.1 1 -1
      vertex 0.1 2.5 -2.5
      vertex 0.1 1 1
    endloop
  endfacet
  facet normal 1 0 0
    outer loop
      vertex 0.1 2.5 -2.5
      vertex 0.1 2.5 2.5
      vertex 0.1 1 1
    endloop
  endfacet
  facet normal 0 0 -1
    outer loop
      vertex 0.1 1 1
      vertex 0.1 -1 1
      vertex 0 1 1
    endloop
  endfacet
  facet normal 0 0 -1
    outer loop
      vertex 0.1 -1 1
      vertex 0 -1 1
      vertex 0 1 1
    endloop
  endfacet
  facet normal 0 0 -1
    outer loop
      vertex 0.1 2.5 -2.5
      vertex 0.1 -2.5 -2.5
      vertex 0 2.5 -2.5
    endloop
  endfacet
  facet normal 0 0 -1
    outer loop
      vertex 0.1 -2.5 -2.5
      vertex 0 -2.5 -2.5
      vertex 0 2.5 -2.5
    endloop
  endfacet
  facet normal 0 0 1
    outer loop
      vertex 0.1 -1 -1
      vertex 0.1 1 -1
      vertex 0 -1 -1
    endloop
  endfacet
  facet normal 0 0 1
    outer loop
      vertex 0.1 1 -1
      vertex 0 1 -1
      vertex 0 -1 -1
    endloop
  endfacet
  facet normal 0 -1 0
    outer loop
      vertex 0.1 1 -1
      vertex 0.1 1 1
      vertex 0 1 -1
    endloop
  endfacet
  facet normal 0 -1 0
    outer loop
      vertex 0.1 1 1
      vertex 0 1 1
      vertex 0 1 -1
    endloop
  endfacet
  facet normal 0 1 0
    outer loop
      vertex 0.1 -1 1
      vertex 0.1 -1 -1
      vertex 0 -1 1
    endloop
  endfacet
  facet normal 0 1 0
    outer loop
      vertex 0.1 -1 -1
      vertex 0 -1 -1
      vertex 0 -1 1
    endloop
  endfacet
  facet normal 0 1 0
    outer loop
      vertex 0.1 2.5 2.5
      vertex 0.1 2.5 -2.5
      vertex 0 2.5 2.5
    endloop
  endfacet
  facet normal 0 1 0
    outer loop
      vertex 0.1 2.5 -2.5
      vertex 0 2.5 -2.5
      vertex 0 2.5 2.5
    endloop
  endfacet
  facet normal 0 0 1
    outer loop
      vertex 0.1 -2.5 2.5
      vertex 0.1 2.5 2.5
      vertex 0 -2.5 2.5
    endloop
  endfacet
  facet normal 0 0 1
    outer loop
      vertex 0.1 2.5 2.5
      vertex 0 2.5 2.5
      vertex 0 -2.5 2.5
    endloop
  endfacet
  facet normal 0 -1 0
    outer loop
      vertex 0.1 -2.5 -2.5
      vertex 0.1 -2.5 2.5
      vertex 0 -2.5 -2.5
    endloop
  endfacet
  facet normal 0 -1 0
    outer loop
      vertex 0.1 -2.5 2.5
      vertex 0 -2.5 2.5
      vertex 0 -2.5 -2.5
    endloop
  endfacet
endsolid Mesh
