# Wavefront OBJ file written 2026-05-23T13:39:39
o interiorSurfacesWindowOnly_edgeMesh

# points : 164
# lines  : 176

# <points count="164">
v 0.62 2.19067 1.04
v 0.681237 2.15531 1.04
v 0.161237 1.25464 1.04
v 0.161237 1.25464 1.94
v 0.62 2.19067 1.94
v 0.681237 2.15531 1.94
v 0.0915885 1.29 1.04
v 0.0915885 1.29 1.94
v 0.104206 1.29728 1.04
v 0.1 1.28159 1.04
v 0.1 1.29841 1.04
v 0.107285 1.28579 1.04
v 0.107285 1.28579 1.94
v 0.104206 1.29728 1.94
v 0 1.29 1.04
v 0 2.33 1.04
v 0.1 2.33 1.04
v 0 1.29 1.94
v 0.1 1.29841 1.94
v 0.1 2.33 1.94
v 0 2.33 1.94
v 0.1 1.28159 1.94
v 0.10009 1.29841 1.04
v 0.100449 1.2984 1.04
v 0.100808 1.29837 1.04
v 0.101165 1.29833 1.04
v 0.10152 1.29827 1.04
v 0.101872 1.2982 1.04
v 0.10222 1.29811 1.04
v 0.102565 1.29801 1.04
v 0.102905 1.29789 1.04
v 0.10324 1.29776 1.04
v 0.104825 1.28311 1.04
v 0.10452 1.28291 1.04
v 0.103568 1.29762 1.04
v 0.103891 1.29746 1.04
v 0.100367 1.2816 1.04
v 0.100733 1.28162 1.04
v 0.102529 1.28198 1.04
v 0.102177 1.28188 1.04
v 0.101821 1.28179 1.04
v 0.106673 1.28488 1.04
v 0.106444 1.28459 1.04
v 0.10689 1.28518 1.04
v 0.104206 1.28272 1.04
v 0.103884 1.28254 1.04
v 0.103555 1.28238 1.04
v 0.101461 1.28172 1.04
v 0.101098 1.28166 1.04
v 0.107094 1.28548 1.04
v 0.106202 1.28432 1.04
v 0.105948 1.28405 1.04
v 0.105683 1.2838 1.04
v 0.103219 1.28223 1.04
v 0.102877 1.2821 1.04
v 0.105407 1.28356 1.04
v 0.105121 1.28333 1.04
v 0.103891 1.29746 1.94
v 0.103568 1.29762 1.94
v 0.10324 1.29776 1.94
v 0.102905 1.29789 1.94
v 0.102565 1.29801 1.94
v 0.10222 1.29811 1.94
v 0.101872 1.2982 1.94
v 0.10152 1.29827 1.94
v 0.101165 1.29833 1.94
v 0.100808 1.29837 1.94
v 0.100449 1.2984 1.94
v 0.10009 1.29841 1.94
v 0.100367 1.2816 1.94
v 0.100733 1.28162 1.94
v 0.101098 1.28166 1.94
v 0.101461 1.28172 1.94
v 0.101821 1.28179 1.94
v 0.102177 1.28188 1.94
v 0.102529 1.28198 1.94
v 0.102877 1.2821 1.94
v 0.103219 1.28223 1.94
v 0.103555 1.28238 1.94
v 0.103884 1.28254 1.94
v 0.104206 1.28272 1.94
v 0.10452 1.28291 1.94
v 0.104825 1.28311 1.94
v 0.105121 1.28333 1.94
v 0.105407 1.28356 1.94
v 0.105683 1.2838 1.94
v 0.105948 1.28405 1.94
v 0.106202 1.28432 1.94
v 0.106444 1.28459 1.94
v 0.106673 1.28488 1.94
v 0.10689 1.28518 1.94
v 0.107094 1.28548 1.94
v 0.0915961 1.29036 1.04
v 0.0928539 1.29444 1.04
v 0.0930501 1.29474 1.04
v 0.0923452 1.29349 1.04
v 0.0925012 1.29381 1.04
v 0.0926709 1.29413 1.04
v 0.0932589 1.29503 1.04
v 0.09348 1.29531 1.04
v 0.093713 1.29559 1.04
v 0.0916192 1.29072 1.04
v 0.0916575 1.29108 1.04
v 0.0917111 1.29143 1.04
v 0.0917798 1.29178 1.04
v 0.0918636 1.29213 1.04
v 0.0919622 1.29248 1.04
v 0.0920754 1.29282 1.04
v 0.0922032 1.29316 1.04
v 0.0939576 1.29585 1.04
v 0.0942131 1.2961 1.04
v 0.0944793 1.29635 1.04
v 0.0953361 1.297 1.04
v 0.0956395 1.29719 1.04
v 0.0959509 1.29737 1.04
v 0.0962696 1.29754 1.04
v 0.0965951 1.29769 1.04
v 0.0969269 1.29783 1.04
v 0.0990136 1.29835 1.04
v 0.0993714 1.29839 1.04
v 0.0997304 1.29841 1.04
v 0.0972643 1.29795 1.04
v 0.0976067 1.29806 1.04
v 0.0979534 1.29816 1.04
v 0.0947555 1.29658 1.04
v 0.0950413 1.29679 1.04
v 0.0983039 1.29824 1.04
v 0.0986575 1.2983 1.04
v 0.0997304 1.29841 1.94
v 0.0993714 1.29839 1.94
v 0.0990136 1.29835 1.94
v 0.0986575 1.2983 1.94
v 0.0983039 1.29824 1.94
v 0.0979534 1.29816 1.94
v 0.0976067 1.29806 1.94
v 0.0972643 1.29795 1.94
v 0.0969269 1.29783 1.94
v 0.0965951 1.29769 1.94
v 0.0962696 1.29754 1.94
v 0.0959509 1.29737 1.94
v 0.0956395 1.29719 1.94
v 0.0953361 1.297 1.94
v 0.0950413 1.29679 1.94
v 0.0947555 1.29658 1.94
v 0.0944793 1.29635 1.94
v 0.0942131 1.2961 1.94
v 0.0939576 1.29585 1.94
v 0.093713 1.29559 1.94
v 0.09348 1.29531 1.94
v 0.0932589 1.29503 1.94
v 0.0930501 1.29474 1.94
v 0.0928539 1.29444 1.94
v 0.0926709 1.29413 1.94
v 0.0925012 1.29381 1.94
v 0.0923452 1.29349 1.94
v 0.0922032 1.29316 1.94
v 0.0920754 1.29282 1.94
v 0.0919622 1.29248 1.94
v 0.0918636 1.29213 1.94
v 0.0917798 1.29178 1.94
v 0.0917111 1.29143 1.94
v 0.0916575 1.29108 1.94
v 0.0916192 1.29072 1.94
v 0.0915961 1.29036 1.94
# </points>

# <edges count="176">
l 9 1
l 1 2
l 11 23
l 23 24
l 24 25
l 25 26
l 26 27
l 27 28
l 28 29
l 29 30
l 30 31
l 31 32
l 33 34
l 32 35
l 35 36
l 37 10
l 38 37
l 39 40
l 40 41
l 42 43
l 44 42
l 34 45
l 45 46
l 46 47
l 41 48
l 48 49
l 49 38
l 2 3
l 3 12
l 36 9
l 12 50
l 50 44
l 43 51
l 51 52
l 52 53
l 47 54
l 54 55
l 55 39
l 53 56
l 56 57
l 57 33
l 3 4
l 4 13
l 5 1
l 14 5
l 16 15
l 11 17
l 15 18
l 58 14
l 59 58
l 60 59
l 61 60
l 62 61
l 63 62
l 64 63
l 65 64
l 66 65
l 67 66
l 68 67
l 69 68
l 19 69
l 6 4
l 2 6
l 17 20
l 21 16
l 21 18
l 19 20
l 5 6
l 70 22
l 71 70
l 72 71
l 73 72
l 74 73
l 75 74
l 76 75
l 77 76
l 78 77
l 79 78
l 80 79
l 81 80
l 82 81
l 83 82
l 84 83
l 85 84
l 86 85
l 87 86
l 88 87
l 89 88
l 90 89
l 91 90
l 92 91
l 13 92
l 10 11
l 13 12
l 9 14
l 15 7
l 7 93
l 94 95
l 96 97
l 97 98
l 98 94
l 95 99
l 99 100
l 100 101
l 17 16
l 93 102
l 102 103
l 103 104
l 104 105
l 105 106
l 106 107
l 107 108
l 108 109
l 109 96
l 101 110
l 110 111
l 111 112
l 113 114
l 114 115
l 115 116
l 116 117
l 117 118
l 119 120
l 120 121
l 121 11
l 118 122
l 122 123
l 123 124
l 112 125
l 125 126
l 126 113
l 124 127
l 127 128
l 128 119
l 8 7
l 18 8
l 129 19
l 130 129
l 131 130
l 132 131
l 133 132
l 134 133
l 135 134
l 136 135
l 137 136
l 138 137
l 139 138
l 140 139
l 141 140
l 142 141
l 143 142
l 144 143
l 145 144
l 146 145
l 147 146
l 148 147
l 149 148
l 150 149
l 151 150
l 152 151
l 153 152
l 154 153
l 155 154
l 156 155
l 157 156
l 158 157
l 159 158
l 160 159
l 161 160
l 162 161
l 163 162
l 164 163
l 8 164
l 20 21
l 10 22
l 22 19
# </edges>
