solid Mesh
  facet normal 1 6.12323e-17 0
    outer loop
      vertex -6.36695e-17 -0.1 2.76
      vertex -6.36695e-17 -0.1 -0.1
      vertex -3.75036e-16 4.985 2.76
    endloop
  endfacet
  facet normal 1 6.12323e-17 0
    outer loop
      vertex -6.36695e-17 -0.1 -0.1
      vertex -3.75036e-16 4.985 -0.1
      vertex -3.75036e-16 4.985 2.76
    endloop
  endfacet
  facet normal 0 1 0
    outer loop
      vertex -3.75036e-16 4.985 2.76
      vertex -3.75036e-16 4.985 -0.1
      vertex -10 4.985 2.76
    endloop
  endfacet
  facet normal 0 1 0
    outer loop
      vertex -3.75036e-16 4.985 -0.1
      vertex -10 4.985 -0.1
      vertex -10 4.985 2.76
    endloop
  endfacet
  facet normal 0 -1 0
    outer loop
      vertex -10 -0.1 2.76
      vertex -10 -0.1 -0.1
      vertex -6.36695e-17 -0.1 2.76
    endloop
  endfacet
  facet normal 0 -1 0
    outer loop
      vertex -10 -0.1 -0.1
      vertex -6.36695e-17 -0.1 -0.1
      vertex -6.36695e-17 -0.1 2.76
    endloop
  endfacet
  facet normal 0 0 -1
    outer loop
      vertex -6.36695e-17 -0.1 -0.1
      vertex -10 -0.1 -0.1
      vertex -3.75036e-16 4.985 -0.1
    endloop
  endfacet
  facet normal 0 0 -1
    outer loop
      vertex -10 -0.1 -0.1
      vertex -10 4.985 -0.1
      vertex -3.75036e-16 4.985 -0.1
    endloop
  endfacet
  facet normal 0 0 1
    outer loop
      vertex -10 -0.1 2.76
      vertex -6.36695e-17 -0.1 2.76
      vertex -10 4.985 2.76
    endloop
  endfacet
  facet normal 0 0 1
    outer loop
      vertex -6.36695e-17 -0.1 2.76
      vertex -3.75036e-16 4.985 2.76
      vertex -10 4.985 2.76
    endloop
  endfacet
  facet normal -1 0 0
    outer loop
      vertex -10 4.985 2.76
      vertex -10 4.985 -0.1
      vertex -10 -0.1 2.76
    endloop
  endfacet
  facet normal -1 0 0
    outer loop
      vertex -10 4.985 -0.1
      vertex -10 -0.1 -0.1
      vertex -10 -0.1 2.76
    endloop
  endfacet
endsolid Mesh
