solid Mesh
  facet normal 1 0 0
    outer loop
      vertex 2 0.79 0.54
      vertex 2 2.83 0.54
      vertex 2 0.79 2.26
    endloop
  endfacet
  facet normal 1 0 0
    outer loop
      vertex 2 2.83 0.54
      vertex 2 2.83 2.26
      vertex 2 0.79 2.26
    endloop
  endfacet
  facet normal -1 0 0
    outer loop
      vertex -1 2.83 0.54
      vertex -1 0.79 0.54
      vertex -1 2.83 2.26
    endloop
  endfacet
  facet normal -1 0 0
    outer loop
      vertex -1 0.79 0.54
      vertex -1 0.79 2.26
      vertex -1 2.83 2.26
    endloop
  endfacet
  facet normal 0 -1 0
    outer loop
      vertex -1 0.79 2.26
      vertex -1 0.79 0.54
      vertex 2 0.79 2.26
    endloop
  endfacet
  facet normal 0 -1 0
    outer loop
      vertex -1 0.79 0.54
      vertex 2 0.79 0.54
      vertex 2 0.79 2.26
    endloop
  endfacet
  facet normal 0 0 -1
    outer loop
      vertex -1 0.79 0.54
      vertex -1 2.83 0.54
      vertex 2 0.79 0.54
    endloop
  endfacet
  facet normal 0 0 -1
    outer loop
      vertex -1 2.83 0.54
      vertex 2 2.83 0.54
      vertex 2 0.79 0.54
    endloop
  endfacet
  facet normal 0 0 1
    outer loop
      vertex -1 2.83 2.26
      vertex -1 0.79 2.26
      vertex 2 2.83 2.26
    endloop
  endfacet
  facet normal 0 0 1
    outer loop
      vertex -1 0.79 2.26
      vertex 2 0.79 2.26
      vertex 2 2.83 2.26
    endloop
  endfacet
  facet normal 0 1 0
    outer loop
      vertex -1 2.83 0.54
      vertex -1 2.83 2.26
      vertex 2 2.83 0.54
    endloop
  endfacet
  facet normal 0 1 0
    outer loop
      vertex -1 2.83 2.26
      vertex 2 2.83 2.26
      vertex 2 2.83 0.54
    endloop
  endfacet
endsolid Mesh
