# Wavefront OBJ file written 2026-05-21T19:26:09
o interiorSurfaces_edgeMesh

# points : 218
# lines  : 257

# <points count="218">
v 0.885391 1.97539 1.04
v 0.15 1.24 1.04
v 0.835391 2.02539 1.04
v 0.15 1.24 1.94
v 0.835391 2.02539 1.94
v 0.885391 1.97539 1.94
v 4.92 4.965 2.76
v 4.92 4.965 -0.1
v 0 4.965 2.76
v -8.88178e-16 4.965 -0.1
v 4.16 2.92 1.76
v 4.92 -0.1 -0.1
v 0 -0.1 -0.1
v 4.92 -0.1 2.76
v 0 -0.1 2.76
v 4.16 3.62 1.76
v 0.68 0.7 1.61
v 0.025 1.29 1.94
v 0.025 2.33 1.94
v 0.0915885 1.29 1.04
v 0.0915885 1.29 1.94
v 4.195 2.92 0
v 4.82 2.92 0.92
v 0.1 4.865 2.44457e-16
v 4.82 4.865 0
v 0.1 4.865 2.66
v 4.82 4.865 2.66
v 0.1 4.53572e-16 1.61
v 0.1 1.32102e-16 2.66
v 2.03577 0 2.66
v 0.68 0 0
v 2.03577 0 0
v 4.82 3.62 0
v 2.39077 0 0
v 4.195 0 0
v 0.1 0.7 -2.65608e-16
v 2.39077 0 2.66
v 4.82 6.93889e-17 2.66
v 4.82 0 0.92
v 0.025 1.29 1.58
v 0.025 2.33 1.58
v 0 2.33 1.58
v 0 1.29 1.58
v 0.1 1.28159 1.04
v 0.1 1.29841 1.04
v 0.105948 1.28405 1.04
v 0.105948 1.29595 1.04
v 0.105948 1.28405 1.94
v 0.105948 1.29595 1.94
v 4.82 3.69933 2.03
v 4.92 3.69933 2.03
v 4.82 3.69933 0
v 4.92 3.69933 0
v 0.1 1.29841 1.94
v 4.82 4.62433 2.03
v 4.82 4.62433 0
v 4.92 4.62433 2.03
v 4.92 4.62433 0
v 4.16 2.92 0
v 4.195 2.92 0.92
v 4.82 2.92 1.76
v 2.39077 0.355 2.66
v 2.39077 0.355 0
v 2.03577 0.355 2.66
v 2.03577 0.355 0
v 0 1.29 1.04
v 0.68 0 1.61
v 4.16 3.62 0
v 0.68 0.7 0
v 0 2.33 1.04
v 0.1 2.33 1.94
v 4.82 3.62 1.76
v 0.1 0.7 1.61
v 4.195 0 0.92
v 0.1 2.33 1.04
v 0.1 1.28159 1.94
v 0.10012 1.29841 1.04
v 0.101197 1.29833 1.04
v 0.101553 1.29827 1.04
v 0.10048 1.2984 1.04
v 0.100839 1.29837 1.04
v 0.103603 1.2976 1.04
v 0.103925 1.29744 1.04
v 0.10424 1.29726 1.04
v 0.104548 1.29708 1.04
v 0.105417 1.29643 1.04
v 0.105688 1.2962 1.04
v 0.101905 1.29819 1.04
v 0.102254 1.2981 1.04
v 0.102599 1.298 1.04
v 0.102529 1.28198 1.04
v 0.102177 1.28188 1.04
v 0.10294 1.29788 1.04
v 0.103274 1.29775 1.04
v 0.104847 1.29688 1.04
v 0.105136 1.29666 1.04
v 0.104206 1.28272 1.04
v 0.103884 1.28254 1.04
v 0.103555 1.28238 1.04
v 0.101098 1.28166 1.04
v 0.100733 1.28162 1.04
v 0.100367 1.2816 1.04
v 0.103219 1.28223 1.04
v 0.102877 1.2821 1.04
v 0.101821 1.28179 1.04
v 0.101461 1.28172 1.04
v 0.105683 1.2838 1.04
v 0.105407 1.28356 1.04
v 0.105121 1.28333 1.04
v 0.104825 1.28311 1.04
v 0.10452 1.28291 1.04
v 0.105688 1.2962 1.94
v 0.105417 1.29643 1.94
v 0.105136 1.29666 1.94
v 0.104847 1.29688 1.94
v 0.104548 1.29708 1.94
v 0.10424 1.29726 1.94
v 0.103925 1.29744 1.94
v 0.103603 1.2976 1.94
v 0.103274 1.29775 1.94
v 0.10294 1.29788 1.94
v 0.102599 1.298 1.94
v 0.102254 1.2981 1.94
v 0.101905 1.29819 1.94
v 0.101553 1.29827 1.94
v 0.101197 1.29833 1.94
v 0.100839 1.29837 1.94
v 0.10048 1.2984 1.94
v 0.10012 1.29841 1.94
v 0.100367 1.2816 1.94
v 0.100733 1.28162 1.94
v 0.101098 1.28166 1.94
v 0.101461 1.28172 1.94
v 0.101821 1.28179 1.94
v 0.102177 1.28188 1.94
v 0.102529 1.28198 1.94
v 0.102877 1.2821 1.94
v 0.103219 1.28223 1.94
v 0.103555 1.28238 1.94
v 0.103884 1.28254 1.94
v 0.104206 1.28272 1.94
v 0.10452 1.28291 1.94
v 0.104825 1.28311 1.94
v 0.105121 1.28333 1.94
v 0.105407 1.28356 1.94
v 0.105683 1.2838 1.94
v 0.0997598 1.29841 1.94
v 0.0997598 1.29841 1.04
v 0.0993999 1.29839 1.04
v 0.0993999 1.29839 1.94
v 0.0990412 1.29836 1.04
v 0.0990412 1.29836 1.94
v 0.0986841 1.29831 1.04
v 0.0986841 1.29831 1.94
v 0.0983295 1.29824 1.04
v 0.0983295 1.29824 1.94
v 0.097978 1.29816 1.04
v 0.097978 1.29816 1.94
v 0.0976302 1.29807 1.04
v 0.0976302 1.29807 1.94
v 0.0972867 1.29796 1.04
v 0.0972867 1.29796 1.94
v 0.0969482 1.29784 1.04
v 0.0969482 1.29784 1.94
v 0.0966153 1.2977 1.04
v 0.0966153 1.2977 1.94
v 0.0962887 1.29755 1.04
v 0.0962887 1.29755 1.94
v 0.0959688 1.29738 1.04
v 0.0959688 1.29738 1.94
v 0.0956563 1.2972 1.04
v 0.0956563 1.2972 1.94
v 0.0953518 1.29701 1.04
v 0.0953518 1.29701 1.94
v 0.0950558 1.29681 1.04
v 0.0950558 1.29681 1.94
v 0.0947689 1.29659 1.04
v 0.0947689 1.29659 1.94
v 0.0944916 1.29636 1.04
v 0.0944916 1.29636 1.94
v 0.0942244 1.29612 1.04
v 0.0942244 1.29612 1.94
v 0.0939678 1.29586 1.04
v 0.0939678 1.29586 1.94
v 0.0937223 1.2956 1.04
v 0.0937223 1.2956 1.94
v 0.0934883 1.29532 1.04
v 0.0934883 1.29532 1.94
v 0.0932662 1.29504 1.04
v 0.0932662 1.29504 1.94
v 0.0930565 1.29475 1.04
v 0.0930565 1.29475 1.94
v 0.0928595 1.29445 1.04
v 0.0928595 1.29445 1.94
v 0.0926757 1.29414 1.04
v 0.0926757 1.29414 1.94
v 0.0925053 1.29382 1.04
v 0.0925053 1.29382 1.94
v 0.0923486 1.29349 1.04
v 0.0923486 1.29349 1.94
v 0.092206 1.29316 1.04
v 0.092206 1.29316 1.94
v 0.0920776 1.29283 1.04
v 0.0920776 1.29283 1.94
v 0.0919638 1.29248 1.04
v 0.0919638 1.29248 1.94
v 0.0918648 1.29214 1.04
v 0.0918648 1.29214 1.94
v 0.0917807 1.29179 1.04
v 0.0917807 1.29179 1.94
v 0.0917116 1.29143 1.04
v 0.0917116 1.29143 1.94
v 0.0916578 1.29108 1.04
v 0.0916578 1.29108 1.94
v 0.0916193 1.29072 1.04
v 0.0916193 1.29072 1.94
v 0.0915962 1.29036 1.04
v 0.0915962 1.29036 1.94
# </points>

# <edges count="257">
l 40 41
l 43 42
l 45 77
l 2 46
l 1 2
l 78 79
l 77 80
l 80 81
l 81 78
l 82 83
l 83 84
l 84 85
l 86 87
l 79 88
l 88 89
l 89 90
l 91 92
l 90 93
l 93 94
l 94 82
l 85 95
l 95 96
l 96 86
l 87 47
l 47 3
l 3 1
l 97 98
l 98 99
l 100 101
l 101 102
l 102 44
l 99 103
l 103 104
l 104 91
l 92 105
l 105 106
l 106 100
l 46 107
l 107 108
l 108 109
l 109 110
l 110 111
l 111 97
l 2 4
l 4 48
l 5 3
l 49 5
l 52 50
l 51 53
l 112 49
l 113 112
l 114 113
l 115 114
l 116 115
l 117 116
l 118 117
l 119 118
l 120 119
l 121 120
l 122 121
l 123 122
l 124 123
l 125 124
l 126 125
l 127 126
l 128 127
l 129 128
l 54 129
l 6 4
l 1 6
l 55 56
l 58 57
l 7 8
l 9 7
l 8 10
l 10 9
l 61 11
l 11 59
l 62 63
l 65 64
l 8 12
l 12 13
l 13 10
l 58 53
l 51 57
l 7 14
l 14 12
l 66 43
l 14 15
l 15 13
l 70 42
l 66 70
l 15 9
l 71 54
l 68 16
l 16 72
l 73 17
l 17 69
l 45 75
l 50 55
l 67 17
l 71 75
l 74 60
l 5 6
l 11 16
l 130 76
l 131 130
l 132 131
l 133 132
l 134 133
l 135 134
l 136 135
l 137 136
l 138 137
l 139 138
l 140 139
l 141 140
l 142 141
l 143 142
l 144 143
l 145 144
l 146 145
l 48 146
l 18 40
l 19 18
l 41 19
l 42 41
l 40 43
l 44 45
l 48 46
l 47 49
l 50 51
l 53 52
l 147 54
l 45 148
l 148 149
l 150 147
l 149 151
l 152 150
l 151 153
l 154 152
l 153 155
l 156 154
l 155 157
l 158 156
l 157 159
l 160 158
l 159 161
l 162 160
l 161 163
l 164 162
l 163 165
l 166 164
l 165 167
l 168 166
l 167 169
l 170 168
l 169 171
l 172 170
l 171 173
l 174 172
l 173 175
l 176 174
l 175 177
l 178 176
l 177 179
l 180 178
l 179 181
l 182 180
l 181 183
l 184 182
l 183 185
l 186 184
l 185 187
l 188 186
l 187 189
l 190 188
l 189 191
l 192 190
l 191 193
l 194 192
l 193 195
l 196 194
l 195 197
l 198 196
l 197 199
l 200 198
l 199 201
l 202 200
l 201 203
l 204 202
l 203 205
l 206 204
l 205 207
l 208 206
l 207 209
l 210 208
l 209 211
l 212 210
l 211 213
l 214 212
l 213 215
l 216 214
l 215 217
l 218 216
l 217 20
l 20 21
l 21 218
l 57 55
l 56 58
l 59 22
l 22 60
l 23 61
l 60 23
l 24 25
l 26 24
l 27 26
l 25 27
l 64 62
l 63 65
l 18 21
l 20 66
l 67 28
l 28 29
l 29 30
l 31 67
l 32 31
l 30 32
l 56 25
l 32 65
l 68 33
l 33 52
l 59 68
l 34 35
l 63 34
l 35 22
l 69 31
l 24 36
l 36 69
l 19 71
l 72 33
l 64 30
l 29 26
l 37 62
l 38 37
l 27 38
l 36 73
l 74 35
l 34 37
l 39 74
l 38 39
l 75 70
l 23 39
l 72 61
l 73 28
l 44 76
l 76 54
# </edges>
