# Wavefront OBJ file written 2026-05-12T16:38:51
o Window_1_edgeMesh

# points : 16
# lines  : 24

# <points count="16">
v 0 2.5 -2.5
v 0 -2.5 -2.5
v 0 -2.5 2.5
v 0 2.5 2.5
v 0.1 2.5 2.5
v 0.1 -2.5 2.5
v 0.1 -2.5 -2.5
v 0.1 2.5 -2.5
v 0 1 -1
v 0 -1 -1
v 0 -1 1
v 0 1 1
v 0.1 1 1
v 0.1 -1 1
v 0.1 -1 -1
v 0.1 1 -1
# </points>

# <edges count="24">
l 10 9
l 1 2
l 11 10
l 2 3
l 12 11
l 3 4
l 9 12
l 4 1
l 14 13
l 5 6
l 15 14
l 6 7
l 16 15
l 7 8
l 13 16
l 8 5
l 1 8
l 7 2
l 4 5
l 3 6
l 12 13
l 14 11
l 10 15
l 16 9
# </edges>
