solid Mesh
  facet normal 1 0 0
    outer loop
      vertex 0.025 1.29 1.94
      vertex 0.025 1.29 1.265
      vertex 0.025 2.33 1.94
    endloop
  endfacet
  facet normal 1 0 0
    outer loop
      vertex 0.025 1.29 1.265
      vertex 0.025 2.33 1.265
      vertex 0.025 2.33 1.94
    endloop
  endfacet
  facet normal 0 0 -1
    outer loop
      vertex 0.025 2.33 1.265
      vertex 0.025 1.29 1.265
      vertex 0 2.33 1.265
    endloop
  endfacet
  facet normal 0 0 -1
    outer loop
      vertex 0.025 1.29 1.265
      vertex 0 1.29 1.265
      vertex 0 2.33 1.265
    endloop
  endfacet
  facet normal 0 0 -1
    outer loop
      vertex 0.107285 1.29421 1.04
      vertex 1.00067 1.81 1.04
      vertex 0.104206 1.28272 1.04
    endloop
  endfacet
  facet normal 0 0 -1
    outer loop
      vertex 1.00067 1.81 1.04
      vertex 1.03602 1.74876 1.04
      vertex 0.104206 1.28272 1.04
    endloop
  endfacet
  facet normal 0 0 -1
    outer loop
      vertex 0.104206 1.28272 1.04
      vertex 1.03602 1.74876 1.04
      vertex 0.135355 1.22876 1.04
    endloop
  endfacet
  facet normal 0 0 -1
    outer loop
      vertex 0.1 1.29841 1.04
      vertex 0.100144 1.29841 1.04
      vertex 0.1 1.28159 1.04
    endloop
  endfacet
  facet normal 0 0 -1
    outer loop
      vertex 0.100144 1.29841 1.04
      vertex 0.100505 1.2984 1.04
      vertex 0.1 1.28159 1.04
    endloop
  endfacet
  facet normal 0 0 -1
    outer loop
      vertex 0.1 1.28159 1.04
      vertex 0.100505 1.2984 1.04
      vertex 0.100865 1.29837 1.04
    endloop
  endfacet
  facet normal 0 0 -1
    outer loop
      vertex 0.100865 1.29837 1.04
      vertex 0.101223 1.29832 1.04
      vertex 0.1 1.28159 1.04
    endloop
  endfacet
  facet normal 0 0 -1
    outer loop
      vertex 0.101223 1.29832 1.04
      vertex 0.101579 1.29826 1.04
      vertex 0.1 1.28159 1.04
    endloop
  endfacet
  facet normal 0 0 -1
    outer loop
      vertex 0.1 1.28159 1.04
      vertex 0.101579 1.29826 1.04
      vertex 0.101932 1.29819 1.04
    endloop
  endfacet
  facet normal 0 0 -1
    outer loop
      vertex 0.102967 1.29787 1.04
      vertex 0.103302 1.29774 1.04
      vertex 0.1 1.28159 1.04
    endloop
  endfacet
  facet normal 0 0 -1
    outer loop
      vertex 0.103302 1.29774 1.04
      vertex 0.103631 1.29759 1.04
      vertex 0.1 1.28159 1.04
    endloop
  endfacet
  facet normal 0 0 -1
    outer loop
      vertex 0.1 1.28159 1.04
      vertex 0.103631 1.29759 1.04
      vertex 0.103953 1.29742 1.04
    endloop
  endfacet
  facet normal 0 0 -1
    outer loop
      vertex 0.106459 1.29539 1.04
      vertex 0.106684 1.29511 1.04
      vertex 0.1 1.28159 1.04
    endloop
  endfacet
  facet normal 0 0 -1
    outer loop
      vertex 0.106684 1.29511 1.04
      vertex 0.106897 1.29481 1.04
      vertex 0.1 1.28159 1.04
    endloop
  endfacet
  facet normal 0 0 -1
    outer loop
      vertex 0.1 1.28159 1.04
      vertex 0.106897 1.29481 1.04
      vertex 0.107097 1.29451 1.04
    endloop
  endfacet
  facet normal 0 0 -1
    outer loop
      vertex 0.102529 1.28198 1.04
      vertex 0.102177 1.28188 1.04
      vertex 0.107097 1.29451 1.04
    endloop
  endfacet
  facet normal 0 0 -1
    outer loop
      vertex 0.101932 1.29819 1.04
      vertex 0.102281 1.2981 1.04
      vertex 0.1 1.28159 1.04
    endloop
  endfacet
  facet normal 0 0 -1
    outer loop
      vertex 0.102281 1.2981 1.04
      vertex 0.102627 1.29799 1.04
      vertex 0.1 1.28159 1.04
    endloop
  endfacet
  facet normal 0 0 -1
    outer loop
      vertex 0.1 1.28159 1.04
      vertex 0.102627 1.29799 1.04
      vertex 0.102967 1.29787 1.04
    endloop
  endfacet
  facet normal 0 0 -1
    outer loop
      vertex 0.103953 1.29742 1.04
      vertex 0.104268 1.29725 1.04
      vertex 0.1 1.28159 1.04
    endloop
  endfacet
  facet normal 0 0 -1
    outer loop
      vertex 0.104268 1.29725 1.04
      vertex 0.104575 1.29706 1.04
      vertex 0.1 1.28159 1.04
    endloop
  endfacet
  facet normal 0 0 -1
    outer loop
      vertex 0.1 1.28159 1.04
      vertex 0.104575 1.29706 1.04
      vertex 0.104874 1.29686 1.04
    endloop
  endfacet
  facet normal 0 0 -1
    outer loop
      vertex 0.104874 1.29686 1.04
      vertex 0.105163 1.29664 1.04
      vertex 0.1 1.28159 1.04
    endloop
  endfacet
  facet normal 0 0 -1
    outer loop
      vertex 0.105163 1.29664 1.04
      vertex 0.105444 1.29641 1.04
      vertex 0.1 1.28159 1.04
    endloop
  endfacet
  facet normal 0 0 -1
    outer loop
      vertex 0.1 1.28159 1.04
      vertex 0.105444 1.29641 1.04
      vertex 0.105714 1.29617 1.04
    endloop
  endfacet
  facet normal 0 0 -1
    outer loop
      vertex 0.105714 1.29617 1.04
      vertex 0.105973 1.29592 1.04
      vertex 0.1 1.28159 1.04
    endloop
  endfacet
  facet normal 0 0 -1
    outer loop
      vertex 0.105973 1.29592 1.04
      vertex 0.106222 1.29566 1.04
      vertex 0.1 1.28159 1.04
    endloop
  endfacet
  facet normal 0 0 -1
    outer loop
      vertex 0.1 1.28159 1.04
      vertex 0.106222 1.29566 1.04
      vertex 0.106459 1.29539 1.04
    endloop
  endfacet
  facet normal 0 0 -1
    outer loop
      vertex 0.107285 1.29421 1.04
      vertex 0.104206 1.28272 1.04
      vertex 0.107097 1.29451 1.04
    endloop
  endfacet
  facet normal 0 0 -1
    outer loop
      vertex 0.104206 1.28272 1.04
      vertex 0.103884 1.28254 1.04
      vertex 0.107097 1.29451 1.04
    endloop
  endfacet
  facet normal 0 0 -1
    outer loop
      vertex 0.107097 1.29451 1.04
      vertex 0.103884 1.28254 1.04
      vertex 0.103555 1.28238 1.04
    endloop
  endfacet
  facet normal 0 0 -1
    outer loop
      vertex 0.102177 1.28188 1.04
      vertex 0.101821 1.28179 1.04
      vertex 0.107097 1.29451 1.04
    endloop
  endfacet
  facet normal 0 0 -1
    outer loop
      vertex 0.101821 1.28179 1.04
      vertex 0.101461 1.28172 1.04
      vertex 0.107097 1.29451 1.04
    endloop
  endfacet
  facet normal 0 0 -1
    outer loop
      vertex 0.107097 1.29451 1.04
      vertex 0.101461 1.28172 1.04
      vertex 0.101098 1.28166 1.04
    endloop
  endfacet
  facet normal 0 0 -1
    outer loop
      vertex 0.103555 1.28238 1.04
      vertex 0.103219 1.28223 1.04
      vertex 0.107097 1.29451 1.04
    endloop
  endfacet
  facet normal 0 0 -1
    outer loop
      vertex 0.103219 1.28223 1.04
      vertex 0.102877 1.2821 1.04
      vertex 0.107097 1.29451 1.04
    endloop
  endfacet
  facet normal 0 0 -1
    outer loop
      vertex 0.107097 1.29451 1.04
      vertex 0.102877 1.2821 1.04
      vertex 0.102529 1.28198 1.04
    endloop
  endfacet
  facet normal 0 0 -1
    outer loop
      vertex 0.101098 1.28166 1.04
      vertex 0.100733 1.28162 1.04
      vertex 0.107097 1.29451 1.04
    endloop
  endfacet
  facet normal 0 0 -1
    outer loop
      vertex 0.100733 1.28162 1.04
      vertex 0.100367 1.2816 1.04
      vertex 0.107097 1.29451 1.04
    endloop
  endfacet
  facet normal 0 0 -1
    outer loop
      vertex 0.107097 1.29451 1.04
      vertex 0.100367 1.2816 1.04
      vertex 0.1 1.28159 1.04
    endloop
  endfacet
  facet normal -0.866026 -0.5 0
    outer loop
      vertex 0.104206 1.28272 1.04
      vertex 0.135355 1.22876 1.04
      vertex 0.104206 1.28272 1.94
    endloop
  endfacet
  facet normal -0.866026 -0.5 0
    outer loop
      vertex 0.135355 1.22876 1.04
      vertex 0.135355 1.22876 1.94
      vertex 0.104206 1.28272 1.94
    endloop
  endfacet
  facet normal -0.5 0.866025 0
    outer loop
      vertex 1.00067 1.81 1.94
      vertex 1.00067 1.81 1.04
      vertex 0.107285 1.29421 1.94
    endloop
  endfacet
  facet normal -0.5 0.866025 0
    outer loop
      vertex 1.00067 1.81 1.04
      vertex 0.107285 1.29421 1.04
      vertex 0.107285 1.29421 1.94
    endloop
  endfacet
  facet normal 0 1 0
    outer loop
      vertex 4.92 4.965 2.76
      vertex 4.92 4.965 -0.1
      vertex 0 4.965 2.76
    endloop
  endfacet
  facet normal 0 1 0
    outer loop
      vertex 4.92 4.965 -0.1
      vertex -8.88178e-16 4.965 -0.1
      vertex 0 4.965 2.76
    endloop
  endfacet
  facet normal 0 -1 0
    outer loop
      vertex 4.16 2.92 0
      vertex 4.195 2.92 0
      vertex 4.195 2.92 0.92
    endloop
  endfacet
  facet normal 0 -1 0
    outer loop
      vertex 4.82 2.92 0.92
      vertex 4.82 2.92 1.76
      vertex 4.195 2.92 0.92
    endloop
  endfacet
  facet normal 0 -1 0
    outer loop
      vertex 4.82 2.92 1.76
      vertex 4.16 2.92 1.76
      vertex 4.195 2.92 0.92
    endloop
  endfacet
  facet normal 0 -1 0
    outer loop
      vertex 4.195 2.92 0.92
      vertex 4.16 2.92 1.76
      vertex 4.16 2.92 0
    endloop
  endfacet
  facet normal 1 0 0
    outer loop
      vertex 4.92 4.965 -0.1
      vertex 4.92 4.62433 0
      vertex 4.92 3.69933 0
    endloop
  endfacet
  facet normal 1 0 0
    outer loop
      vertex 4.92 4.62433 0
      vertex 4.92 4.965 -0.1
      vertex 4.92 4.62433 0.676667
    endloop
  endfacet
  facet normal 1 0 0
    outer loop
      vertex 4.92 4.965 -0.1
      vertex 4.92 4.965 2.76
      vertex 4.92 4.62433 0.676667
    endloop
  endfacet
  facet normal 1 0 0
    outer loop
      vertex 4.92 4.62433 0.676667
      vertex 4.92 4.965 2.76
      vertex 4.92 3.69933 0.676667
    endloop
  endfacet
  facet normal 1 0 0
    outer loop
      vertex 4.92 4.965 2.76
      vertex 4.92 -0.1 2.76
      vertex 4.92 3.69933 0.676667
    endloop
  endfacet
  facet normal 1 0 0
    outer loop
      vertex 4.92 3.69933 0.676667
      vertex 4.92 -0.1 2.76
      vertex 4.92 3.69933 0
    endloop
  endfacet
  facet normal 1 0 0
    outer loop
      vertex 4.92 -0.1 2.76
      vertex 4.92 -0.1 -0.1
      vertex 4.92 3.69933 0
    endloop
  endfacet
  facet normal 1 0 0
    outer loop
      vertex 4.92 3.69933 0
      vertex 4.92 -0.1 -0.1
      vertex 4.92 4.965 -0.1
    endloop
  endfacet
  facet normal 0 1 0
    outer loop
      vertex 0.025 1.29 1.94
      vertex 0.0915885 1.29 1.94
      vertex 0.025 1.29 1.265
    endloop
  endfacet
  facet normal 0 1 0
    outer loop
      vertex 0.0915885 1.29 1.94
      vertex 0.0915885 1.29 1.04
      vertex 0.025 1.29 1.265
    endloop
  endfacet
  facet normal 0 1 0
    outer loop
      vertex 0.025 1.29 1.265
      vertex 0.0915885 1.29 1.04
      vertex 0 1.29 1.265
    endloop
  endfacet
  facet normal 0 1 0
    outer loop
      vertex 0.0915885 1.29 1.04
      vertex 0 1.29 1.04
      vertex 0 1.29 1.265
    endloop
  endfacet
  facet normal 0 1 0
    outer loop
      vertex 4.195 0 0
      vertex 2.39077 0 0
      vertex 4.195 0 0.92
    endloop
  endfacet
  facet normal 0 1 0
    outer loop
      vertex 2.39077 0 0
      vertex 2.39077 0 2.66
      vertex 4.195 0 0.92
    endloop
  endfacet
  facet normal 0 1 0
    outer loop
      vertex 4.195 0 0.92
      vertex 2.39077 0 2.66
      vertex 4.82 0 0.92
    endloop
  endfacet
  facet normal -2.85642e-17 1 -3.98787e-17
    outer loop
      vertex 2.39077 0 2.66
      vertex 4.82 6.93889e-17 2.66
      vertex 4.82 0 0.92
    endloop
  endfacet
  facet normal 0 0 1
    outer loop
      vertex 0.0997834 1.29841 1.04
      vertex 0.1 1.29841 1.04
      vertex 0.1 2.33 1.04
    endloop
  endfacet
  facet normal 0 0 1
    outer loop
      vertex 0.0920794 1.29283 1.04
      vertex 0.0922082 1.29317 1.04
      vertex 0 1.29 1.04
    endloop
  endfacet
  facet normal 0 0 1
    outer loop
      vertex 0.0916194 1.29072 1.04
      vertex 0 1.29 1.04
      vertex 0.0915962 1.29036 1.04
    endloop
  endfacet
  facet normal 0 0 1
    outer loop
      vertex 0 1.29 1.04
      vertex 0.0915885 1.29 1.04
      vertex 0.0915962 1.29036 1.04
    endloop
  endfacet
  facet normal 0 0 1
    outer loop
      vertex 0.0926796 1.29414 1.04
      vertex 0.0928641 1.29445 1.04
      vertex 0 1.29 1.04
    endloop
  endfacet
  facet normal 0 0 1
    outer loop
      vertex 0.0916194 1.29072 1.04
      vertex 0.0916581 1.29108 1.04
      vertex 0 1.29 1.04
    endloop
  endfacet
  facet normal 0 0 1
    outer loop
      vertex 0.0916581 1.29108 1.04
      vertex 0.0917121 1.29144 1.04
      vertex 0 1.29 1.04
    endloop
  endfacet
  facet normal 0 0 1
    outer loop
      vertex 0 1.29 1.04
      vertex 0.0917121 1.29144 1.04
      vertex 0.0917814 1.29179 1.04
    endloop
  endfacet
  facet normal 0 0 1
    outer loop
      vertex 0.0917814 1.29179 1.04
      vertex 0.0918658 1.29214 1.04
      vertex 0 1.29 1.04
    endloop
  endfacet
  facet normal 0 0 1
    outer loop
      vertex 0.0918658 1.29214 1.04
      vertex 0.0919652 1.29249 1.04
      vertex 0 1.29 1.04
    endloop
  endfacet
  facet normal 0 0 1
    outer loop
      vertex 0 1.29 1.04
      vertex 0.0919652 1.29249 1.04
      vertex 0.0920794 1.29283 1.04
    endloop
  endfacet
  facet normal 0 0 1
    outer loop
      vertex 0.1 2.33 1.04
      vertex 0.0945015 1.29637 1.04
      vertex 0.0947797 1.2966 1.04
    endloop
  endfacet
  facet normal 0 0 1
    outer loop
      vertex 0.0947797 1.2966 1.04
      vertex 0.0950675 1.29681 1.04
      vertex 0.1 2.33 1.04
    endloop
  endfacet
  facet normal 0 0 1
    outer loop
      vertex 0.0950675 1.29681 1.04
      vertex 0.0953644 1.29702 1.04
      vertex 0.1 2.33 1.04
    endloop
  endfacet
  facet normal 0 0 1
    outer loop
      vertex 0.1 2.33 1.04
      vertex 0.0953644 1.29702 1.04
      vertex 0.0956698 1.29721 1.04
    endloop
  endfacet
  facet normal 0 0 1
    outer loop
      vertex 0.0922082 1.29317 1.04
      vertex 0.0923513 1.2935 1.04
      vertex 0 1.29 1.04
    endloop
  endfacet
  facet normal 0 0 1
    outer loop
      vertex 0.0923513 1.2935 1.04
      vertex 0.0925085 1.29383 1.04
      vertex 0 1.29 1.04
    endloop
  endfacet
  facet normal 0 0 1
    outer loop
      vertex 0 1.29 1.04
      vertex 0.0925085 1.29383 1.04
      vertex 0.0926796 1.29414 1.04
    endloop
  endfacet
  facet normal 0 0 1
    outer loop
      vertex 0.0928641 1.29445 1.04
      vertex 0.0930617 1.29476 1.04
      vertex 0 1.29 1.04
    endloop
  endfacet
  facet normal 0 0 1
    outer loop
      vertex 0.0930617 1.29476 1.04
      vertex 0.0932721 1.29505 1.04
      vertex 0 1.29 1.04
    endloop
  endfacet
  facet normal 0 0 1
    outer loop
      vertex 0 1.29 1.04
      vertex 0.0932721 1.29505 1.04
      vertex 0 2.33 1.04
    endloop
  endfacet
  facet normal 0 0 1
    outer loop
      vertex 0.0932721 1.29505 1.04
      vertex 0.0934949 1.29533 1.04
      vertex 0 2.33 1.04
    endloop
  endfacet
  facet normal 0 0 1
    outer loop
      vertex 0.0934949 1.29533 1.04
      vertex 0.0937297 1.29561 1.04
      vertex 0 2.33 1.04
    endloop
  endfacet
  facet normal 0 0 1
    outer loop
      vertex 0.0937297 1.29561 1.04
      vertex 0.0939761 1.29587 1.04
      vertex 0 2.33 1.04
    endloop
  endfacet
  facet normal 0 0 1
    outer loop
      vertex 0 2.33 1.04
      vertex 0.0939761 1.29587 1.04
      vertex 0.1 2.33 1.04
    endloop
  endfacet
  facet normal 0 0 1
    outer loop
      vertex 0.0939761 1.29587 1.04
      vertex 0.0942335 1.29612 1.04
      vertex 0.1 2.33 1.04
    endloop
  endfacet
  facet normal 0 0 1
    outer loop
      vertex 0.1 2.33 1.04
      vertex 0.0942335 1.29612 1.04
      vertex 0.0945015 1.29637 1.04
    endloop
  endfacet
  facet normal 0 0 1
    outer loop
      vertex 0.0976491 1.29808 1.04
      vertex 0.0979978 1.29817 1.04
      vertex 0.1 2.33 1.04
    endloop
  endfacet
  facet normal 0 0 1
    outer loop
      vertex 0.0979978 1.29817 1.04
      vertex 0.0983501 1.29825 1.04
      vertex 0.1 2.33 1.04
    endloop
  endfacet
  facet normal 0 0 1
    outer loop
      vertex 0.1 2.33 1.04
      vertex 0.0983501 1.29825 1.04
      vertex 0.0987055 1.29831 1.04
    endloop
  endfacet
  facet normal 0 0 1
    outer loop
      vertex 0.0966316 1.29771 1.04
      vertex 0.0969654 1.29785 1.04
      vertex 0.1 2.33 1.04
    endloop
  endfacet
  facet normal 0 0 1
    outer loop
      vertex 0.0969654 1.29785 1.04
      vertex 0.0973047 1.29797 1.04
      vertex 0.1 2.33 1.04
    endloop
  endfacet
  facet normal 0 0 1
    outer loop
      vertex 0.1 2.33 1.04
      vertex 0.0973047 1.29797 1.04
      vertex 0.0976491 1.29808 1.04
    endloop
  endfacet
  facet normal 0 0 1
    outer loop
      vertex 0.0987055 1.29831 1.04
      vertex 0.0990633 1.29836 1.04
      vertex 0.1 2.33 1.04
    endloop
  endfacet
  facet normal 0 0 1
    outer loop
      vertex 0.0990633 1.29836 1.04
      vertex 0.0994228 1.29839 1.04
      vertex 0.1 2.33 1.04
    endloop
  endfacet
  facet normal 0 0 1
    outer loop
      vertex 0.1 2.33 1.04
      vertex 0.0994228 1.29839 1.04
      vertex 0.0997834 1.29841 1.04
    endloop
  endfacet
  facet normal 0 0 1
    outer loop
      vertex 0.0956698 1.29721 1.04
      vertex 0.0959832 1.29739 1.04
      vertex 0.1 2.33 1.04
    endloop
  endfacet
  facet normal 0 0 1
    outer loop
      vertex 0.0959832 1.29739 1.04
      vertex 0.096304 1.29756 1.04
      vertex 0.1 2.33 1.04
    endloop
  endfacet
  facet normal 0 0 1
    outer loop
      vertex 0.1 2.33 1.04
      vertex 0.096304 1.29756 1.04
      vertex 0.0966316 1.29771 1.04
    endloop
  endfacet
  facet normal 7.82021e-16 1 3.06162e-16
    outer loop
      vertex 0.1 4.53572e-16 1.61
      vertex 0.1 1.32102e-16 2.66
      vertex 0.68 0 1.61
    endloop
  endfacet
  facet normal 6.82429e-17 1 -8.81158e-17
    outer loop
      vertex 0.1 1.32102e-16 2.66
      vertex 2.03577 0 2.66
      vertex 0.68 0 1.61
    endloop
  endfacet
  facet normal 0 1 0
    outer loop
      vertex 0.68 0 1.61
      vertex 2.03577 0 2.66
      vertex 0.68 0 0
    endloop
  endfacet
  facet normal 0 1 0
    outer loop
      vertex 2.03577 0 2.66
      vertex 2.03577 0 0
      vertex 0.68 0 0
    endloop
  endfacet
  facet normal 0 -1 0
    outer loop
      vertex 4.92 -0.1 2.76
      vertex 0 -0.1 2.76
      vertex 4.92 -0.1 -0.1
    endloop
  endfacet
  facet normal 0 -1 0
    outer loop
      vertex 0 -0.1 2.76
      vertex 0 -0.1 -0.1
      vertex 4.92 -0.1 -0.1
    endloop
  endfacet
  facet normal 5.17918e-17 0 1
    outer loop
      vertex 4.82 4.62433 0
      vertex 4.82 4.865 0
      vertex 0.1 4.865 2.44457e-16
    endloop
  endfacet
  facet normal 0 0 1
    outer loop
      vertex 0.68 0 0
      vertex 2.03577 0 0
      vertex 2.03577 0.355 0
    endloop
  endfacet
  facet normal 0 0 1
    outer loop
      vertex 4.16 3.62 0
      vertex 4.82 3.62 0
      vertex 4.82 3.69933 0
    endloop
  endfacet
  facet normal 0 0 1
    outer loop
      vertex 4.16 2.92 0
      vertex 4.16 3.62 0
      vertex 0.68 0.7 0
    endloop
  endfacet
  facet normal 0 0 1
    outer loop
      vertex 4.82 3.69933 0
      vertex 4.92 3.69933 0
      vertex 4.92 4.62433 0
    endloop
  endfacet
  facet normal 0 0 1
    outer loop
      vertex 2.39077 0 0
      vertex 4.195 0 0
      vertex 2.39077 0.355 0
    endloop
  endfacet
  facet normal 0 0 1
    outer loop
      vertex 4.195 0 0
      vertex 4.195 2.92 0
      vertex 2.39077 0.355 0
    endloop
  endfacet
  facet normal 0 0 1
    outer loop
      vertex 2.39077 0.355 0
      vertex 4.195 2.92 0
      vertex 2.03577 0.355 0
    endloop
  endfacet
  facet normal 0 0 1
    outer loop
      vertex 4.195 2.92 0
      vertex 4.16 2.92 0
      vertex 2.03577 0.355 0
    endloop
  endfacet
  facet normal 0 0 1
    outer loop
      vertex 2.03577 0.355 0
      vertex 4.16 2.92 0
      vertex 0.68 0 0
    endloop
  endfacet
  facet normal 0 0 1
    outer loop
      vertex 4.16 2.92 0
      vertex 0.68 0.7 0
      vertex 0.68 0 0
    endloop
  endfacet
  facet normal 0 0 1
    outer loop
      vertex 4.92 4.62433 0
      vertex 4.82 4.62433 0
      vertex 4.82 3.69933 0
    endloop
  endfacet
  facet normal 5.17918e-17 0 1
    outer loop
      vertex 4.82 4.62433 0
      vertex 0.1 4.865 2.44457e-16
      vertex 4.82 3.69933 0
    endloop
  endfacet
  facet normal 1.69557e-17 -1.41058e-16 1
    outer loop
      vertex 4.82 3.69933 0
      vertex 0.1 4.865 2.44457e-16
      vertex 4.16 3.62 0
    endloop
  endfacet
  facet normal 2.26573e-17 -1.22465e-16 1
    outer loop
      vertex 0.1 4.865 2.44457e-16
      vertex 0.1 0.7 -2.65608e-16
      vertex 4.16 3.62 0
    endloop
  endfacet
  facet normal -4.57945e-16 5.4577e-16 1
    outer loop
      vertex 4.16 3.62 0
      vertex 0.1 0.7 -2.65608e-16
      vertex 0.68 0.7 0
    endloop
  endfacet
  facet normal 0 -1 0
    outer loop
      vertex 0.1 4.865 2.44457e-16
      vertex 4.82 4.865 0
      vertex 0.1 4.865 2.66
    endloop
  endfacet
  facet normal 0 -1 0
    outer loop
      vertex 4.82 4.865 0
      vertex 4.82 4.865 2.66
      vertex 0.1 4.865 2.66
    endloop
  endfacet
  facet normal -1 0 0
    outer loop
      vertex 0 2.33 1.265
      vertex 0 4.965 2.76
      vertex 0 2.33 1.04
    endloop
  endfacet
  facet normal -1 -2.02713e-16 3.10552e-16
    outer loop
      vertex 0 4.965 2.76
      vertex -8.88178e-16 4.965 -0.1
      vertex 0 2.33 1.04
    endloop
  endfacet
  facet normal -1 0 7.79104e-16
    outer loop
      vertex 0 2.33 1.04
      vertex -8.88178e-16 4.965 -0.1
      vertex 0 1.29 1.04
    endloop
  endfacet
  facet normal -1 -1.75356e-16 2.13811e-16
    outer loop
      vertex -8.88178e-16 4.965 -0.1
      vertex 0 -0.1 -0.1
      vertex 0 1.29 1.04
    endloop
  endfacet
  facet normal -1 0 0
    outer loop
      vertex 0 1.29 1.04
      vertex 0 -0.1 -0.1
      vertex 0 1.29 1.265
    endloop
  endfacet
  facet normal -1 0 0
    outer loop
      vertex 0 -0.1 -0.1
      vertex 0 -0.1 2.76
      vertex 0 1.29 1.265
    endloop
  endfacet
  facet normal -1 0 0
    outer loop
      vertex 0 1.29 1.265
      vertex 0 -0.1 2.76
      vertex 0 2.33 1.265
    endloop
  endfacet
  facet normal -1 0 0
    outer loop
      vertex 0 -0.1 2.76
      vertex 0 4.965 2.76
      vertex 0 2.33 1.265
    endloop
  endfacet
  facet normal 0 0 -1
    outer loop
      vertex 0.0915962 1.29036 1.94
      vertex 0.0915885 1.29 1.94
      vertex 0.025 1.29 1.94
    endloop
  endfacet
  facet normal 0 0 -1
    outer loop
      vertex 0.0920794 1.29283 1.94
      vertex 0.0919652 1.29249 1.94
      vertex 0.025 1.29 1.94
    endloop
  endfacet
  facet normal 0 0 -1
    outer loop
      vertex 0.0953644 1.29702 1.94
      vertex 0.0950675 1.29681 1.94
      vertex 0.025 2.33 1.94
    endloop
  endfacet
  facet normal 0 0 -1
    outer loop
      vertex 0.0950675 1.29681 1.94
      vertex 0.0947797 1.2966 1.94
      vertex 0.025 2.33 1.94
    endloop
  endfacet
  facet normal 0 0 -1
    outer loop
      vertex 0.025 2.33 1.94
      vertex 0.0947797 1.2966 1.94
      vertex 0.0945015 1.29637 1.94
    endloop
  endfacet
  facet normal 0 0 -1
    outer loop
      vertex 0.0919652 1.29249 1.94
      vertex 0.0918658 1.29214 1.94
      vertex 0.025 1.29 1.94
    endloop
  endfacet
  facet normal 0 0 -1
    outer loop
      vertex 0.0918658 1.29214 1.94
      vertex 0.0917814 1.29179 1.94
      vertex 0.025 1.29 1.94
    endloop
  endfacet
  facet normal 0 0 -1
    outer loop
      vertex 0.025 1.29 1.94
      vertex 0.0917814 1.29179 1.94
      vertex 0.0917121 1.29144 1.94
    endloop
  endfacet
  facet normal 0 0 -1
    outer loop
      vertex 0.0917121 1.29144 1.94
      vertex 0.0916581 1.29108 1.94
      vertex 0.025 1.29 1.94
    endloop
  endfacet
  facet normal 0 0 -1
    outer loop
      vertex 0.0916581 1.29108 1.94
      vertex 0.0916194 1.29072 1.94
      vertex 0.025 1.29 1.94
    endloop
  endfacet
  facet normal 0 0 -1
    outer loop
      vertex 0.025 1.29 1.94
      vertex 0.0916194 1.29072 1.94
      vertex 0.0915962 1.29036 1.94
    endloop
  endfacet
  facet normal 0 0 -1
    outer loop
      vertex 0.0983501 1.29825 1.94
      vertex 0.0979978 1.29817 1.94
      vertex 0.025 2.33 1.94
    endloop
  endfacet
  facet normal 0 0 -1
    outer loop
      vertex 0.0979978 1.29817 1.94
      vertex 0.0976491 1.29808 1.94
      vertex 0.025 2.33 1.94
    endloop
  endfacet
  facet normal 0 0 -1
    outer loop
      vertex 0.025 2.33 1.94
      vertex 0.0976491 1.29808 1.94
      vertex 0.0973047 1.29797 1.94
    endloop
  endfacet
  facet normal 0 0 -1
    outer loop
      vertex 0.0934949 1.29533 1.94
      vertex 0.0932721 1.29505 1.94
      vertex 0.025 1.29 1.94
    endloop
  endfacet
  facet normal 0 0 -1
    outer loop
      vertex 0.0932721 1.29505 1.94
      vertex 0.0930617 1.29476 1.94
      vertex 0.025 1.29 1.94
    endloop
  endfacet
  facet normal 0 0 -1
    outer loop
      vertex 0.0930617 1.29476 1.94
      vertex 0.0928641 1.29445 1.94
      vertex 0.025 1.29 1.94
    endloop
  endfacet
  facet normal 0 0 -1
    outer loop
      vertex 0.0928641 1.29445 1.94
      vertex 0.0926796 1.29414 1.94
      vertex 0.025 1.29 1.94
    endloop
  endfacet
  facet normal 0 0 -1
    outer loop
      vertex 0.025 1.29 1.94
      vertex 0.0926796 1.29414 1.94
      vertex 0.0925085 1.29383 1.94
    endloop
  endfacet
  facet normal 0 0 -1
    outer loop
      vertex 0.0925085 1.29383 1.94
      vertex 0.0923513 1.2935 1.94
      vertex 0.025 1.29 1.94
    endloop
  endfacet
  facet normal 0 0 -1
    outer loop
      vertex 0.0923513 1.2935 1.94
      vertex 0.0922082 1.29317 1.94
      vertex 0.025 1.29 1.94
    endloop
  endfacet
  facet normal 0 0 -1
    outer loop
      vertex 0.025 1.29 1.94
      vertex 0.0922082 1.29317 1.94
      vertex 0.0920794 1.29283 1.94
    endloop
  endfacet
  facet normal 0 0 -1
    outer loop
      vertex 0.0994228 1.29839 1.94
      vertex 0.0990633 1.29836 1.94
      vertex 0.025 2.33 1.94
    endloop
  endfacet
  facet normal 0 0 -1
    outer loop
      vertex 0.0990633 1.29836 1.94
      vertex 0.0987055 1.29831 1.94
      vertex 0.025 2.33 1.94
    endloop
  endfacet
  facet normal 0 0 -1
    outer loop
      vertex 0.025 2.33 1.94
      vertex 0.0987055 1.29831 1.94
      vertex 0.0983501 1.29825 1.94
    endloop
  endfacet
  facet normal 0 0 -1
    outer loop
      vertex 0.0973047 1.29797 1.94
      vertex 0.0969654 1.29785 1.94
      vertex 0.025 2.33 1.94
    endloop
  endfacet
  facet normal 0 0 -1
    outer loop
      vertex 0.0969654 1.29785 1.94
      vertex 0.0966316 1.29771 1.94
      vertex 0.025 2.33 1.94
    endloop
  endfacet
  facet normal 0 0 -1
    outer loop
      vertex 0.025 2.33 1.94
      vertex 0.0966316 1.29771 1.94
      vertex 0.096304 1.29756 1.94
    endloop
  endfacet
  facet normal 0 0 -1
    outer loop
      vertex 0.1 2.33 1.94
      vertex 0.1 1.29841 1.94
      vertex 0.025 2.33 1.94
    endloop
  endfacet
  facet normal 0 0 -1
    outer loop
      vertex 0.1 1.29841 1.94
      vertex 0.0997834 1.29841 1.94
      vertex 0.025 2.33 1.94
    endloop
  endfacet
  facet normal 0 0 -1
    outer loop
      vertex 0.025 2.33 1.94
      vertex 0.0997834 1.29841 1.94
      vertex 0.0994228 1.29839 1.94
    endloop
  endfacet
  facet normal 0 0 -1
    outer loop
      vertex 0.096304 1.29756 1.94
      vertex 0.0959832 1.29739 1.94
      vertex 0.025 2.33 1.94
    endloop
  endfacet
  facet normal 0 0 -1
    outer loop
      vertex 0.0959832 1.29739 1.94
      vertex 0.0956698 1.29721 1.94
      vertex 0.025 2.33 1.94
    endloop
  endfacet
  facet normal 0 0 -1
    outer loop
      vertex 0.025 2.33 1.94
      vertex 0.0956698 1.29721 1.94
      vertex 0.0953644 1.29702 1.94
    endloop
  endfacet
  facet normal 0 0 -1
    outer loop
      vertex 0.0945015 1.29637 1.94
      vertex 0.0942335 1.29612 1.94
      vertex 0.025 2.33 1.94
    endloop
  endfacet
  facet normal 0 0 -1
    outer loop
      vertex 0.0942335 1.29612 1.94
      vertex 0.0939761 1.29587 1.94
      vertex 0.025 2.33 1.94
    endloop
  endfacet
  facet normal 0 0 -1
    outer loop
      vertex 0.025 2.33 1.94
      vertex 0.0939761 1.29587 1.94
      vertex 0.025 1.29 1.94
    endloop
  endfacet
  facet normal 0 0 -1
    outer loop
      vertex 0.0939761 1.29587 1.94
      vertex 0.0937297 1.29561 1.94
      vertex 0.025 1.29 1.94
    endloop
  endfacet
  facet normal 0 0 -1
    outer loop
      vertex 0.025 1.29 1.94
      vertex 0.0937297 1.29561 1.94
      vertex 0.0934949 1.29533 1.94
    endloop
  endfacet
  facet normal 0 0 -1
    outer loop
      vertex 4.92 4.965 -0.1
      vertex 4.92 -0.1 -0.1
      vertex -8.88178e-16 4.965 -0.1
    endloop
  endfacet
  facet normal 0 0 -1
    outer loop
      vertex 4.92 -0.1 -0.1
      vertex 0 -0.1 -0.1
      vertex -8.88178e-16 4.965 -0.1
    endloop
  endfacet
  facet normal 0 1 0
    outer loop
      vertex 4.16 3.62 1.76
      vertex 4.82 3.62 1.76
      vertex 4.16 3.62 0
    endloop
  endfacet
  facet normal 0 1 0
    outer loop
      vertex 4.82 3.62 1.76
      vertex 4.82 3.62 0
      vertex 4.16 3.62 0
    endloop
  endfacet
  facet normal 0.855065 0.518521 0
    outer loop
      vertex 0.107285 1.29421 1.94
      vertex 0.107285 1.29421 1.04
      vertex 0.107097 1.29451 1.04
    endloop
  endfacet
  facet normal 0.855065 0.518521 0
    outer loop
      vertex 0.107285 1.29421 1.94
      vertex 0.107097 1.29451 1.04
      vertex 0.107097 1.29451 1.94
    endloop
  endfacet
  facet normal 0.832107 0.554614 0
    outer loop
      vertex 0.107097 1.29451 1.04
      vertex 0.106897 1.29481 1.04
      vertex 0.107097 1.29451 1.94
    endloop
  endfacet
  facet normal 0.832107 0.554614 0
    outer loop
      vertex 0.107097 1.29451 1.94
      vertex 0.106897 1.29481 1.04
      vertex 0.106897 1.29481 1.94
    endloop
  endfacet
  facet normal 0.807486 0.589886 0
    outer loop
      vertex 0.106897 1.29481 1.04
      vertex 0.106684 1.29511 1.04
      vertex 0.106897 1.29481 1.94
    endloop
  endfacet
  facet normal 0.807486 0.589886 0
    outer loop
      vertex 0.106897 1.29481 1.94
      vertex 0.106684 1.29511 1.04
      vertex 0.106684 1.29511 1.94
    endloop
  endfacet
  facet normal 0.7814 0.62403 0
    outer loop
      vertex 0.106684 1.29511 1.04
      vertex 0.106459 1.29539 1.04
      vertex 0.106684 1.29511 1.94
    endloop
  endfacet
  facet normal 0.7814 0.62403 0
    outer loop
      vertex 0.106684 1.29511 1.94
      vertex 0.106459 1.29539 1.04
      vertex 0.106459 1.29539 1.94
    endloop
  endfacet
  facet normal 0.753956 0.656925 0
    outer loop
      vertex 0.106459 1.29539 1.04
      vertex 0.106222 1.29566 1.04
      vertex 0.106459 1.29539 1.94
    endloop
  endfacet
  facet normal 0.753956 0.656925 0
    outer loop
      vertex 0.106459 1.29539 1.94
      vertex 0.106222 1.29566 1.04
      vertex 0.106222 1.29566 1.94
    endloop
  endfacet
  facet normal 0.725135 0.688606 0
    outer loop
      vertex 0.106222 1.29566 1.04
      vertex 0.105973 1.29592 1.04
      vertex 0.106222 1.29566 1.94
    endloop
  endfacet
  facet normal 0.725135 0.688606 0
    outer loop
      vertex 0.106222 1.29566 1.94
      vertex 0.105973 1.29592 1.04
      vertex 0.105973 1.29592 1.94
    endloop
  endfacet
  facet normal 0.694845 0.71916 0
    outer loop
      vertex 0.105973 1.29592 1.04
      vertex 0.105714 1.29617 1.04
      vertex 0.105973 1.29592 1.94
    endloop
  endfacet
  facet normal 0.694845 0.71916 0
    outer loop
      vertex 0.105973 1.29592 1.94
      vertex 0.105714 1.29617 1.04
      vertex 0.105714 1.29617 1.94
    endloop
  endfacet
  facet normal 0.66341 0.748256 0
    outer loop
      vertex 0.105714 1.29617 1.04
      vertex 0.105444 1.29641 1.04
      vertex 0.105714 1.29617 1.94
    endloop
  endfacet
  facet normal 0.66341 0.748256 0
    outer loop
      vertex 0.105714 1.29617 1.94
      vertex 0.105444 1.29641 1.04
      vertex 0.105444 1.29641 1.94
    endloop
  endfacet
  facet normal 0.630717 0.776013 0
    outer loop
      vertex 0.105444 1.29641 1.04
      vertex 0.105163 1.29664 1.04
      vertex 0.105444 1.29641 1.94
    endloop
  endfacet
  facet normal 0.630717 0.776013 0
    outer loop
      vertex 0.105444 1.29641 1.94
      vertex 0.105163 1.29664 1.04
      vertex 0.105163 1.29664 1.94
    endloop
  endfacet
  facet normal 0.596759 0.802421 0
    outer loop
      vertex 0.105163 1.29664 1.04
      vertex 0.104874 1.29686 1.04
      vertex 0.105163 1.29664 1.94
    endloop
  endfacet
  facet normal 0.596759 0.802421 0
    outer loop
      vertex 0.105163 1.29664 1.94
      vertex 0.104874 1.29686 1.04
      vertex 0.104874 1.29686 1.94
    endloop
  endfacet
  facet normal 0.561758 0.827301 0
    outer loop
      vertex 0.104874 1.29686 1.04
      vertex 0.104575 1.29706 1.04
      vertex 0.104874 1.29686 1.94
    endloop
  endfacet
  facet normal 0.561758 0.827301 0
    outer loop
      vertex 0.104874 1.29686 1.94
      vertex 0.104575 1.29706 1.04
      vertex 0.104575 1.29706 1.94
    endloop
  endfacet
  facet normal 0.525755 0.850636 0
    outer loop
      vertex 0.104575 1.29706 1.04
      vertex 0.104268 1.29725 1.04
      vertex 0.104575 1.29706 1.94
    endloop
  endfacet
  facet normal 0.525755 0.850636 0
    outer loop
      vertex 0.104575 1.29706 1.94
      vertex 0.104268 1.29725 1.04
      vertex 0.104268 1.29725 1.94
    endloop
  endfacet
  facet normal 0.488759 0.872419 0
    outer loop
      vertex 0.104268 1.29725 1.04
      vertex 0.103953 1.29742 1.04
      vertex 0.104268 1.29725 1.94
    endloop
  endfacet
  facet normal 0.488759 0.872419 0
    outer loop
      vertex 0.104268 1.29725 1.94
      vertex 0.103953 1.29742 1.04
      vertex 0.103953 1.29742 1.94
    endloop
  endfacet
  facet normal 0.451073 0.892487 0
    outer loop
      vertex 0.103953 1.29742 1.04
      vertex 0.103631 1.29759 1.04
      vertex 0.103953 1.29742 1.94
    endloop
  endfacet
  facet normal 0.451073 0.892487 0
    outer loop
      vertex 0.103953 1.29742 1.94
      vertex 0.103631 1.29759 1.04
      vertex 0.103631 1.29759 1.94
    endloop
  endfacet
  facet normal 0.412151 0.911116 0
    outer loop
      vertex 0.103631 1.29759 1.04
      vertex 0.103302 1.29774 1.04
      vertex 0.103631 1.29759 1.94
    endloop
  endfacet
  facet normal 0.412151 0.911116 0
    outer loop
      vertex 0.103631 1.29759 1.94
      vertex 0.103302 1.29774 1.04
      vertex 0.103302 1.29774 1.94
    endloop
  endfacet
  facet normal 0.372828 0.927901 0
    outer loop
      vertex 0.103302 1.29774 1.04
      vertex 0.102967 1.29787 1.04
      vertex 0.103302 1.29774 1.94
    endloop
  endfacet
  facet normal 0.372828 0.927901 0
    outer loop
      vertex 0.103302 1.29774 1.94
      vertex 0.102967 1.29787 1.04
      vertex 0.102967 1.29787 1.94
    endloop
  endfacet
  facet normal 0.332559 0.943083 0
    outer loop
      vertex 0.102967 1.29787 1.04
      vertex 0.102627 1.29799 1.04
      vertex 0.102967 1.29787 1.94
    endloop
  endfacet
  facet normal 0.332559 0.943083 0
    outer loop
      vertex 0.102967 1.29787 1.94
      vertex 0.102627 1.29799 1.04
      vertex 0.102627 1.29799 1.94
    endloop
  endfacet
  facet normal 0.291619 0.956535 0
    outer loop
      vertex 0.102627 1.29799 1.04
      vertex 0.102281 1.2981 1.04
      vertex 0.102627 1.29799 1.94
    endloop
  endfacet
  facet normal 0.291619 0.956535 0
    outer loop
      vertex 0.102627 1.29799 1.94
      vertex 0.102281 1.2981 1.04
      vertex 0.102281 1.2981 1.94
    endloop
  endfacet
  facet normal 0.250642 0.96808 0
    outer loop
      vertex 0.102281 1.2981 1.04
      vertex 0.101932 1.29819 1.04
      vertex 0.102281 1.2981 1.94
    endloop
  endfacet
  facet normal 0.250642 0.96808 0
    outer loop
      vertex 0.102281 1.2981 1.94
      vertex 0.101932 1.29819 1.04
      vertex 0.101932 1.29819 1.94
    endloop
  endfacet
  facet normal 0.208714 0.977977 0
    outer loop
      vertex 0.101932 1.29819 1.04
      vertex 0.101579 1.29826 1.04
      vertex 0.101932 1.29819 1.94
    endloop
  endfacet
  facet normal 0.208714 0.977977 0
    outer loop
      vertex 0.101932 1.29819 1.94
      vertex 0.101579 1.29826 1.04
      vertex 0.101579 1.29826 1.94
    endloop
  endfacet
  facet normal 0.166765 0.985997 0
    outer loop
      vertex 0.101579 1.29826 1.04
      vertex 0.101223 1.29832 1.04
      vertex 0.101579 1.29826 1.94
    endloop
  endfacet
  facet normal 0.166765 0.985997 0
    outer loop
      vertex 0.101579 1.29826 1.94
      vertex 0.101223 1.29832 1.04
      vertex 0.101223 1.29832 1.94
    endloop
  endfacet
  facet normal 0.123847 0.992301 0
    outer loop
      vertex 0.101223 1.29832 1.04
      vertex 0.100865 1.29837 1.04
      vertex 0.101223 1.29832 1.94
    endloop
  endfacet
  facet normal 0.123847 0.992301 0
    outer loop
      vertex 0.101223 1.29832 1.94
      vertex 0.100865 1.29837 1.04
      vertex 0.100865 1.29837 1.94
    endloop
  endfacet
  facet normal 0.0815679 0.996668 0
    outer loop
      vertex 0.100865 1.29837 1.04
      vertex 0.100505 1.2984 1.04
      vertex 0.100865 1.29837 1.94
    endloop
  endfacet
  facet normal 0.0815679 0.996668 0
    outer loop
      vertex 0.100865 1.29837 1.94
      vertex 0.100505 1.2984 1.04
      vertex 0.100505 1.2984 1.94
    endloop
  endfacet
  facet normal 0.0386376 0.999253 0
    outer loop
      vertex 0.100505 1.2984 1.04
      vertex 0.100144 1.29841 1.04
      vertex 0.100505 1.2984 1.94
    endloop
  endfacet
  facet normal 0.0386376 0.999253 0
    outer loop
      vertex 0.100505 1.2984 1.94
      vertex 0.100144 1.29841 1.04
      vertex 0.100144 1.29841 1.94
    endloop
  endfacet
  facet normal 0.00825565 0.999966 0
    outer loop
      vertex 0.100144 1.29841 1.94
      vertex 0.100144 1.29841 1.04
      vertex 0.1 1.29841 1.94
    endloop
  endfacet
  facet normal 0.00825565 0.999966 0
    outer loop
      vertex 0.100144 1.29841 1.04
      vertex 0.1 1.29841 1.04
      vertex 0.1 1.29841 1.94
    endloop
  endfacet
  facet normal -0.0126585 0.99992 0
    outer loop
      vertex 0.1 1.29841 1.94
      vertex 0.1 1.29841 1.04
      vertex 0.0997834 1.29841 1.94
    endloop
  endfacet
  facet normal -0.0126585 0.99992 0
    outer loop
      vertex 0.1 1.29841 1.04
      vertex 0.0997834 1.29841 1.04
      vertex 0.0997834 1.29841 1.94
    endloop
  endfacet
  facet normal -0.0472239 0.998884 0
    outer loop
      vertex 0.0997834 1.29841 1.04
      vertex 0.0994228 1.29839 1.04
      vertex 0.0997834 1.29841 1.94
    endloop
  endfacet
  facet normal -0.0472239 0.998884 0
    outer loop
      vertex 0.0997834 1.29841 1.94
      vertex 0.0994228 1.29839 1.04
      vertex 0.0994228 1.29839 1.94
    endloop
  endfacet
  facet normal -0.0898267 0.995957 0
    outer loop
      vertex 0.0994228 1.29839 1.04
      vertex 0.0990633 1.29836 1.04
      vertex 0.0994228 1.29839 1.94
    endloop
  endfacet
  facet normal -0.0898267 0.995957 0
    outer loop
      vertex 0.0994228 1.29839 1.94
      vertex 0.0990633 1.29836 1.04
      vertex 0.0990633 1.29836 1.94
    endloop
  endfacet
  facet normal -0.132756 0.991149 0
    outer loop
      vertex 0.0990633 1.29836 1.04
      vertex 0.0987055 1.29831 1.04
      vertex 0.0990633 1.29836 1.94
    endloop
  endfacet
  facet normal -0.132756 0.991149 0
    outer loop
      vertex 0.0990633 1.29836 1.94
      vertex 0.0987055 1.29831 1.04
      vertex 0.0987055 1.29831 1.94
    endloop
  endfacet
  facet normal -0.175026 0.984564 0
    outer loop
      vertex 0.0987055 1.29831 1.04
      vertex 0.0983501 1.29825 1.04
      vertex 0.0987055 1.29831 1.94
    endloop
  endfacet
  facet normal -0.175026 0.984564 0
    outer loop
      vertex 0.0987055 1.29831 1.94
      vertex 0.0983501 1.29825 1.04
      vertex 0.0983501 1.29825 1.94
    endloop
  endfacet
  facet normal -0.217289 0.976107 0
    outer loop
      vertex 0.0983501 1.29825 1.04
      vertex 0.0979978 1.29817 1.04
      vertex 0.0983501 1.29825 1.94
    endloop
  endfacet
  facet normal -0.217289 0.976107 0
    outer loop
      vertex 0.0983501 1.29825 1.94
      vertex 0.0979978 1.29817 1.04
      vertex 0.0979978 1.29817 1.94
    endloop
  endfacet
  facet normal -0.258593 0.965986 0
    outer loop
      vertex 0.0979978 1.29817 1.04
      vertex 0.0976491 1.29808 1.04
      vertex 0.0979978 1.29817 1.94
    endloop
  endfacet
  facet normal -0.258593 0.965986 0
    outer loop
      vertex 0.0979978 1.29817 1.94
      vertex 0.0976491 1.29808 1.04
      vertex 0.0976491 1.29808 1.94
    endloop
  endfacet
  facet normal -0.300177 0.953884 0
    outer loop
      vertex 0.0976491 1.29808 1.04
      vertex 0.0973047 1.29797 1.04
      vertex 0.0976491 1.29808 1.94
    endloop
  endfacet
  facet normal -0.300177 0.953884 0
    outer loop
      vertex 0.0976491 1.29808 1.94
      vertex 0.0973047 1.29797 1.04
      vertex 0.0973047 1.29797 1.94
    endloop
  endfacet
  facet normal -0.340496 0.940246 0
    outer loop
      vertex 0.0973047 1.29797 1.04
      vertex 0.0969654 1.29785 1.04
      vertex 0.0973047 1.29797 1.94
    endloop
  endfacet
  facet normal -0.340496 0.940246 0
    outer loop
      vertex 0.0973047 1.29797 1.94
      vertex 0.0969654 1.29785 1.04
      vertex 0.0969654 1.29785 1.94
    endloop
  endfacet
  facet normal -0.380759 0.924674 0
    outer loop
      vertex 0.0969654 1.29785 1.04
      vertex 0.0966316 1.29771 1.04
      vertex 0.0969654 1.29785 1.94
    endloop
  endfacet
  facet normal -0.380759 0.924674 0
    outer loop
      vertex 0.0969654 1.29785 1.94
      vertex 0.0966316 1.29771 1.04
      vertex 0.0966316 1.29771 1.94
    endloop
  endfacet
  facet normal -0.420055 0.907499 0
    outer loop
      vertex 0.0966316 1.29771 1.04
      vertex 0.096304 1.29756 1.04
      vertex 0.0966316 1.29771 1.94
    endloop
  endfacet
  facet normal -0.420055 0.907499 0
    outer loop
      vertex 0.0966316 1.29771 1.94
      vertex 0.096304 1.29756 1.04
      vertex 0.096304 1.29756 1.94
    endloop
  endfacet
  facet normal -0.458677 0.888603 0
    outer loop
      vertex 0.096304 1.29756 1.04
      vertex 0.0959832 1.29739 1.04
      vertex 0.096304 1.29756 1.94
    endloop
  endfacet
  facet normal -0.458677 0.888603 0
    outer loop
      vertex 0.096304 1.29756 1.94
      vertex 0.0959832 1.29739 1.04
      vertex 0.0959832 1.29739 1.94
    endloop
  endfacet
  facet normal -0.496335 0.868131 0
    outer loop
      vertex 0.0959832 1.29739 1.04
      vertex 0.0956698 1.29721 1.04
      vertex 0.0959832 1.29739 1.94
    endloop
  endfacet
  facet normal -0.496335 0.868131 0
    outer loop
      vertex 0.0959832 1.29739 1.94
      vertex 0.0956698 1.29721 1.04
      vertex 0.0956698 1.29721 1.94
    endloop
  endfacet
  facet normal -0.533023 0.8461 0
    outer loop
      vertex 0.0956698 1.29721 1.04
      vertex 0.0953644 1.29702 1.04
      vertex 0.0956698 1.29721 1.94
    endloop
  endfacet
  facet normal -0.533023 0.8461 0
    outer loop
      vertex 0.0956698 1.29721 1.94
      vertex 0.0953644 1.29702 1.04
      vertex 0.0953644 1.29702 1.94
    endloop
  endfacet
  facet normal -0.56874 0.822518 0
    outer loop
      vertex 0.0953644 1.29702 1.04
      vertex 0.0950675 1.29681 1.04
      vertex 0.0953644 1.29702 1.94
    endloop
  endfacet
  facet normal -0.56874 0.822518 0
    outer loop
      vertex 0.0953644 1.29702 1.94
      vertex 0.0950675 1.29681 1.04
      vertex 0.0950675 1.29681 1.94
    endloop
  endfacet
  facet normal -0.603663 0.79724 0
    outer loop
      vertex 0.0950675 1.29681 1.04
      vertex 0.0947797 1.2966 1.04
      vertex 0.0950675 1.29681 1.94
    endloop
  endfacet
  facet normal -0.603663 0.79724 0
    outer loop
      vertex 0.0950675 1.29681 1.94
      vertex 0.0947797 1.2966 1.04
      vertex 0.0947797 1.2966 1.94
    endloop
  endfacet
  facet normal -0.637338 0.770584 0
    outer loop
      vertex 0.0947797 1.2966 1.04
      vertex 0.0945015 1.29637 1.04
      vertex 0.0947797 1.2966 1.94
    endloop
  endfacet
  facet normal -0.637338 0.770584 0
    outer loop
      vertex 0.0947797 1.2966 1.94
      vertex 0.0945015 1.29637 1.04
      vertex 0.0945015 1.29637 1.94
    endloop
  endfacet
  facet normal -0.669738 0.742598 0
    outer loop
      vertex 0.0945015 1.29637 1.04
      vertex 0.0942335 1.29612 1.04
      vertex 0.0945015 1.29637 1.94
    endloop
  endfacet
  facet normal -0.669738 0.742598 0
    outer loop
      vertex 0.0945015 1.29637 1.94
      vertex 0.0942335 1.29612 1.04
      vertex 0.0942335 1.29612 1.94
    endloop
  endfacet
  facet normal -0.701055 0.713108 0
    outer loop
      vertex 0.0942335 1.29612 1.04
      vertex 0.0939761 1.29587 1.04
      vertex 0.0942335 1.29612 1.94
    endloop
  endfacet
  facet normal -0.701055 0.713108 0
    outer loop
      vertex 0.0942335 1.29612 1.94
      vertex 0.0939761 1.29587 1.04
      vertex 0.0939761 1.29587 1.94
    endloop
  endfacet
  facet normal -0.730895 0.68249 0
    outer loop
      vertex 0.0939761 1.29587 1.04
      vertex 0.0937297 1.29561 1.04
      vertex 0.0939761 1.29587 1.94
    endloop
  endfacet
  facet normal -0.730895 0.68249 0
    outer loop
      vertex 0.0939761 1.29587 1.94
      vertex 0.0937297 1.29561 1.04
      vertex 0.0937297 1.29561 1.94
    endloop
  endfacet
  facet normal -0.759561 0.650436 0
    outer loop
      vertex 0.0937297 1.29561 1.04
      vertex 0.0934949 1.29533 1.04
      vertex 0.0937297 1.29561 1.94
    endloop
  endfacet
  facet normal -0.759561 0.650436 0
    outer loop
      vertex 0.0937297 1.29561 1.94
      vertex 0.0934949 1.29533 1.04
      vertex 0.0934949 1.29533 1.94
    endloop
  endfacet
  facet normal -0.786847 0.617149 0
    outer loop
      vertex 0.0934949 1.29533 1.04
      vertex 0.0932721 1.29505 1.04
      vertex 0.0934949 1.29533 1.94
    endloop
  endfacet
  facet normal -0.786847 0.617149 0
    outer loop
      vertex 0.0934949 1.29533 1.94
      vertex 0.0932721 1.29505 1.04
      vertex 0.0932721 1.29505 1.94
    endloop
  endfacet
  facet normal -0.812485 0.582983 0
    outer loop
      vertex 0.0932721 1.29505 1.04
      vertex 0.0930617 1.29476 1.04
      vertex 0.0932721 1.29505 1.94
    endloop
  endfacet
  facet normal -0.812485 0.582983 0
    outer loop
      vertex 0.0932721 1.29505 1.94
      vertex 0.0930617 1.29476 1.04
      vertex 0.0930617 1.29476 1.94
    endloop
  endfacet
  facet normal -0.836805 0.547502 0
    outer loop
      vertex 0.0930617 1.29476 1.04
      vertex 0.0928641 1.29445 1.04
      vertex 0.0930617 1.29476 1.94
    endloop
  endfacet
  facet normal -0.836805 0.547502 0
    outer loop
      vertex 0.0930617 1.29476 1.94
      vertex 0.0928641 1.29445 1.04
      vertex 0.0928641 1.29445 1.94
    endloop
  endfacet
  facet normal -0.859542 0.511065 0
    outer loop
      vertex 0.0928641 1.29445 1.04
      vertex 0.0926796 1.29414 1.04
      vertex 0.0928641 1.29445 1.94
    endloop
  endfacet
  facet normal -0.859542 0.511065 0
    outer loop
      vertex 0.0928641 1.29445 1.94
      vertex 0.0926796 1.29414 1.04
      vertex 0.0926796 1.29414 1.94
    endloop
  endfacet
  facet normal -0.88068 0.473712 0
    outer loop
      vertex 0.0926796 1.29414 1.04
      vertex 0.0925085 1.29383 1.04
      vertex 0.0926796 1.29414 1.94
    endloop
  endfacet
  facet normal -0.88068 0.473712 0
    outer loop
      vertex 0.0926796 1.29414 1.94
      vertex 0.0925085 1.29383 1.04
      vertex 0.0925085 1.29383 1.94
    endloop
  endfacet
  facet normal -0.900117 0.435648 0
    outer loop
      vertex 0.0925085 1.29383 1.04
      vertex 0.0923513 1.2935 1.04
      vertex 0.0925085 1.29383 1.94
    endloop
  endfacet
  facet normal -0.900117 0.435648 0
    outer loop
      vertex 0.0925085 1.29383 1.94
      vertex 0.0923513 1.2935 1.04
      vertex 0.0923513 1.2935 1.94
    endloop
  endfacet
  facet normal -0.918034 0.396501 0
    outer loop
      vertex 0.0923513 1.2935 1.04
      vertex 0.0922082 1.29317 1.04
      vertex 0.0923513 1.2935 1.94
    endloop
  endfacet
  facet normal -0.918034 0.396501 0
    outer loop
      vertex 0.0923513 1.2935 1.94
      vertex 0.0922082 1.29317 1.04
      vertex 0.0922082 1.29317 1.94
    endloop
  endfacet
  facet normal -0.934202 0.356744 0
    outer loop
      vertex 0.0922082 1.29317 1.04
      vertex 0.0920794 1.29283 1.04
      vertex 0.0922082 1.29317 1.94
    endloop
  endfacet
  facet normal -0.934202 0.356744 0
    outer loop
      vertex 0.0922082 1.29317 1.94
      vertex 0.0920794 1.29283 1.04
      vertex 0.0920794 1.29283 1.94
    endloop
  endfacet
  facet normal -0.94865 0.316327 0
    outer loop
      vertex 0.0920794 1.29283 1.04
      vertex 0.0919652 1.29249 1.04
      vertex 0.0920794 1.29283 1.94
    endloop
  endfacet
  facet normal -0.94865 0.316327 0
    outer loop
      vertex 0.0920794 1.29283 1.94
      vertex 0.0919652 1.29249 1.04
      vertex 0.0919652 1.29249 1.94
    endloop
  endfacet
  facet normal -0.961341 0.275362 0
    outer loop
      vertex 0.0919652 1.29249 1.04
      vertex 0.0918658 1.29214 1.04
      vertex 0.0919652 1.29249 1.94
    endloop
  endfacet
  facet normal -0.961341 0.275362 0
    outer loop
      vertex 0.0919652 1.29249 1.94
      vertex 0.0918658 1.29214 1.04
      vertex 0.0918658 1.29214 1.94
    endloop
  endfacet
  facet normal -0.97227 0.233862 0
    outer loop
      vertex 0.0918658 1.29214 1.04
      vertex 0.0917814 1.29179 1.04
      vertex 0.0918658 1.29214 1.94
    endloop
  endfacet
  facet normal -0.97227 0.233862 0
    outer loop
      vertex 0.0918658 1.29214 1.94
      vertex 0.0917814 1.29179 1.04
      vertex 0.0917814 1.29179 1.94
    endloop
  endfacet
  facet normal -0.981411 0.191919 0
    outer loop
      vertex 0.0917814 1.29179 1.04
      vertex 0.0917121 1.29144 1.04
      vertex 0.0917814 1.29179 1.94
    endloop
  endfacet
  facet normal -0.981411 0.191919 0
    outer loop
      vertex 0.0917814 1.29179 1.94
      vertex 0.0917121 1.29144 1.04
      vertex 0.0917121 1.29144 1.94
    endloop
  endfacet
  facet normal -0.988737 0.14966 0
    outer loop
      vertex 0.0917121 1.29144 1.04
      vertex 0.0916581 1.29108 1.04
      vertex 0.0917121 1.29144 1.94
    endloop
  endfacet
  facet normal -0.988737 0.14966 0
    outer loop
      vertex 0.0917121 1.29144 1.94
      vertex 0.0916581 1.29108 1.04
      vertex 0.0916581 1.29108 1.94
    endloop
  endfacet
  facet normal -0.994248 0.107105 0
    outer loop
      vertex 0.0916581 1.29108 1.04
      vertex 0.0916194 1.29072 1.04
      vertex 0.0916581 1.29108 1.94
    endloop
  endfacet
  facet normal -0.994248 0.107105 0
    outer loop
      vertex 0.0916581 1.29108 1.94
      vertex 0.0916194 1.29072 1.04
      vertex 0.0916194 1.29072 1.94
    endloop
  endfacet
  facet normal -0.997929 0.0643312 0
    outer loop
      vertex 0.0916194 1.29072 1.04
      vertex 0.0915962 1.29036 1.04
      vertex 0.0916194 1.29072 1.94
    endloop
  endfacet
  facet normal -0.997929 0.0643312 0
    outer loop
      vertex 0.0916194 1.29072 1.94
      vertex 0.0915962 1.29036 1.04
      vertex 0.0915962 1.29036 1.94
    endloop
  endfacet
  facet normal -0.99977 0.0214614 0
    outer loop
      vertex 0.0915962 1.29036 1.04
      vertex 0.0915885 1.29 1.04
      vertex 0.0915962 1.29036 1.94
    endloop
  endfacet
  facet normal -0.99977 0.0214614 0
    outer loop
      vertex 0.0915962 1.29036 1.94
      vertex 0.0915885 1.29 1.04
      vertex 0.0915885 1.29 1.94
    endloop
  endfacet
  facet normal 0.5 -0.866025 0
    outer loop
      vertex 0.135355 1.22876 1.94
      vertex 0.135355 1.22876 1.04
      vertex 1.03602 1.74876 1.94
    endloop
  endfacet
  facet normal 0.5 -0.866025 0
    outer loop
      vertex 0.135355 1.22876 1.04
      vertex 1.03602 1.74876 1.04
      vertex 1.03602 1.74876 1.94
    endloop
  endfacet
  facet normal 0 1 0
    outer loop
      vertex 4.92 3.69933 0.676667
      vertex 4.92 3.69933 0
      vertex 4.82 3.69933 0.676667
    endloop
  endfacet
  facet normal 0 1 0
    outer loop
      vertex 4.92 3.69933 0
      vertex 4.82 3.69933 0
      vertex 4.82 3.69933 0.676667
    endloop
  endfacet
  facet normal 0 0 -1
    outer loop
      vertex 2.03577 0 2.66
      vertex 0.1 1.32102e-16 2.66
      vertex 2.03577 0.355 2.66
    endloop
  endfacet
  facet normal 0 0 -1
    outer loop
      vertex 0.1 1.32102e-16 2.66
      vertex 0.1 4.865 2.66
      vertex 2.03577 0.355 2.66
    endloop
  endfacet
  facet normal 0 0 -1
    outer loop
      vertex 2.03577 0.355 2.66
      vertex 0.1 4.865 2.66
      vertex 2.39077 0.355 2.66
    endloop
  endfacet
  facet normal 0 0 -1
    outer loop
      vertex 0.1 4.865 2.66
      vertex 4.82 4.865 2.66
      vertex 2.39077 0.355 2.66
    endloop
  endfacet
  facet normal 0 0 -1
    outer loop
      vertex 2.39077 0.355 2.66
      vertex 4.82 4.865 2.66
      vertex 2.39077 0 2.66
    endloop
  endfacet
  facet normal 0 0 -1
    outer loop
      vertex 4.82 4.865 2.66
      vertex 4.82 6.93889e-17 2.66
      vertex 2.39077 0 2.66
    endloop
  endfacet
  facet normal 0 1 0
    outer loop
      vertex 0.1 0.7 1.61
      vertex 0.68 0.7 1.61
      vertex 0.1 0.7 -2.65608e-16
    endloop
  endfacet
  facet normal 0 1 0
    outer loop
      vertex 0.68 0.7 1.61
      vertex 0.68 0.7 0
      vertex 0.1 0.7 -2.65608e-16
    endloop
  endfacet
  facet normal 0 0 -1
    outer loop
      vertex 4.92 4.62433 0.676667
      vertex 4.92 3.69933 0.676667
      vertex 4.82 4.62433 0.676667
    endloop
  endfacet
  facet normal 0 0 -1
    outer loop
      vertex 4.92 3.69933 0.676667
      vertex 4.82 3.69933 0.676667
      vertex 4.82 4.62433 0.676667
    endloop
  endfacet
  facet normal -1 0 0
    outer loop
      vertex 4.82 4.865 0
      vertex 4.82 4.62433 0
      vertex 4.82 4.62433 0.676667
    endloop
  endfacet
  facet normal -1 0 0
    outer loop
      vertex 4.82 4.865 2.66
      vertex 4.82 3.62 1.76
      vertex 4.82 2.92 1.76
    endloop
  endfacet
  facet normal -1 0 0
    outer loop
      vertex 4.82 2.92 0.92
      vertex 4.82 0 0.92
      vertex 4.82 2.92 1.76
    endloop
  endfacet
  facet normal -1 0 0
    outer loop
      vertex 4.82 0 0.92
      vertex 4.82 6.93889e-17 2.66
      vertex 4.82 2.92 1.76
    endloop
  endfacet
  facet normal -1 0 0
    outer loop
      vertex 4.82 2.92 1.76
      vertex 4.82 6.93889e-17 2.66
      vertex 4.82 4.865 2.66
    endloop
  endfacet
  facet normal -1 0 0
    outer loop
      vertex 4.82 3.69933 0
      vertex 4.82 3.62 0
      vertex 4.82 3.69933 0.676667
    endloop
  endfacet
  facet normal -1 0 0
    outer loop
      vertex 4.82 3.62 0
      vertex 4.82 3.62 1.76
      vertex 4.82 3.69933 0.676667
    endloop
  endfacet
  facet normal -1 0 0
    outer loop
      vertex 4.82 3.69933 0.676667
      vertex 4.82 3.62 1.76
      vertex 4.82 4.62433 0.676667
    endloop
  endfacet
  facet normal -1 0 0
    outer loop
      vertex 4.82 3.62 1.76
      vertex 4.82 4.865 2.66
      vertex 4.82 4.62433 0.676667
    endloop
  endfacet
  facet normal -1 0 0
    outer loop
      vertex 4.82 4.62433 0.676667
      vertex 4.82 4.865 2.66
      vertex 4.82 4.865 0
    endloop
  endfacet
  facet normal 0 0 1
    outer loop
      vertex 0 4.965 2.76
      vertex 0 -0.1 2.76
      vertex 4.92 4.965 2.76
    endloop
  endfacet
  facet normal 0 0 1
    outer loop
      vertex 0 -0.1 2.76
      vertex 4.92 -0.1 2.76
      vertex 4.92 4.965 2.76
    endloop
  endfacet
  facet normal 1 0 0
    outer loop
      vertex 2.39077 0 0
      vertex 2.39077 0.355 0
      vertex 2.39077 0 2.66
    endloop
  endfacet
  facet normal 1 0 0
    outer loop
      vertex 2.39077 0.355 0
      vertex 2.39077 0.355 2.66
      vertex 2.39077 0 2.66
    endloop
  endfacet
  facet normal 1 0 0
    outer loop
      vertex 0.68 0.7 1.61
      vertex 0.68 0 1.61
      vertex 0.68 0.7 0
    endloop
  endfacet
  facet normal 1 0 0
    outer loop
      vertex 0.68 0 1.61
      vertex 0.68 0 0
      vertex 0.68 0.7 0
    endloop
  endfacet
  facet normal 0 1 0
    outer loop
      vertex 2.39077 0.355 2.66
      vertex 2.39077 0.355 0
      vertex 2.03577 0.355 2.66
    endloop
  endfacet
  facet normal 0 1 0
    outer loop
      vertex 2.39077 0.355 0
      vertex 2.03577 0.355 0
      vertex 2.03577 0.355 2.66
    endloop
  endfacet
  facet normal -1 0 0
    outer loop
      vertex 2.03577 0.355 2.66
      vertex 2.03577 0.355 0
      vertex 2.03577 0 2.66
    endloop
  endfacet
  facet normal -1 0 0
    outer loop
      vertex 2.03577 0.355 0
      vertex 2.03577 0 0
      vertex 2.03577 0 2.66
    endloop
  endfacet
  facet normal 0 0 1
    outer loop
      vertex 0.1 4.53572e-16 1.61
      vertex 0.68 0 1.61
      vertex 0.1 0.7 1.61
    endloop
  endfacet
  facet normal 0 0 1
    outer loop
      vertex 0.68 0 1.61
      vertex 0.68 0.7 1.61
      vertex 0.1 0.7 1.61
    endloop
  endfacet
  facet normal 1 0 0
    outer loop
      vertex 0.1 2.33 1.94
      vertex 0.1 4.865 2.66
      vertex 0.1 1.32102e-16 2.66
    endloop
  endfacet
  facet normal 1 0 0
    outer loop
      vertex 0.1 1.32102e-16 2.66
      vertex 0.1 4.53572e-16 1.61
      vertex 0.1 0.7 1.61
    endloop
  endfacet
  facet normal 1 0 0
    outer loop
      vertex 0.1 4.865 2.66
      vertex 0.1 2.33 1.94
      vertex 0.1 4.865 2.44457e-16
    endloop
  endfacet
  facet normal 1 0 0
    outer loop
      vertex 0.1 2.33 1.94
      vertex 0.1 2.33 1.04
      vertex 0.1 4.865 2.44457e-16
    endloop
  endfacet
  facet normal 1 0 0
    outer loop
      vertex 0.1 4.865 2.44457e-16
      vertex 0.1 2.33 1.04
      vertex 0.1 0.7 -2.65608e-16
    endloop
  endfacet
  facet normal 1 0 0
    outer loop
      vertex 0.1 2.33 1.04
      vertex 0.1 1.29841 1.04
      vertex 0.1 0.7 -2.65608e-16
    endloop
  endfacet
  facet normal 1 0 0
    outer loop
      vertex 0.1 1.29841 1.04
      vertex 0.1 1.28159 1.04
      vertex 0.1 0.7 -2.65608e-16
    endloop
  endfacet
  facet normal 1 0 0
    outer loop
      vertex 0.1 0.7 -2.65608e-16
      vertex 0.1 1.28159 1.04
      vertex 0.1 0.7 1.61
    endloop
  endfacet
  facet normal 1 0 0
    outer loop
      vertex 0.1 1.28159 1.04
      vertex 0.1 1.28159 1.94
      vertex 0.1 0.7 1.61
    endloop
  endfacet
  facet normal 1 0 0
    outer loop
      vertex 0.1 0.7 1.61
      vertex 0.1 1.28159 1.94
      vertex 0.1 1.32102e-16 2.66
    endloop
  endfacet
  facet normal 1 0 0
    outer loop
      vertex 0.1 1.28159 1.94
      vertex 0.1 1.29841 1.94
      vertex 0.1 1.32102e-16 2.66
    endloop
  endfacet
  facet normal 1 0 0
    outer loop
      vertex 0.1 1.32102e-16 2.66
      vertex 0.1 1.29841 1.94
      vertex 0.1 2.33 1.94
    endloop
  endfacet
  facet normal -1 0 0
    outer loop
      vertex 4.195 0 0.92
      vertex 4.195 2.92 0.92
      vertex 4.195 0 0
    endloop
  endfacet
  facet normal -1 0 0
    outer loop
      vertex 4.195 2.92 0.92
      vertex 4.195 2.92 0
      vertex 4.195 0 0
    endloop
  endfacet
  facet normal 0.866025 0.5 0
    outer loop
      vertex 1.03602 1.74876 1.94
      vertex 1.03602 1.74876 1.04
      vertex 1.00067 1.81 1.94
    endloop
  endfacet
  facet normal 0.866025 0.5 0
    outer loop
      vertex 1.03602 1.74876 1.04
      vertex 1.00067 1.81 1.04
      vertex 1.00067 1.81 1.94
    endloop
  endfacet
  facet normal 0 0 1
    outer loop
      vertex 4.195 0 0.92
      vertex 4.82 0 0.92
      vertex 4.195 2.92 0.92
    endloop
  endfacet
  facet normal 0 0 1
    outer loop
      vertex 4.82 0 0.92
      vertex 4.82 2.92 0.92
      vertex 4.195 2.92 0.92
    endloop
  endfacet
  facet normal -1 0 0
    outer loop
      vertex 4.16 2.92 1.76
      vertex 4.16 3.62 1.76
      vertex 4.16 2.92 0
    endloop
  endfacet
  facet normal -1 0 0
    outer loop
      vertex 4.16 3.62 1.76
      vertex 4.16 3.62 0
      vertex 4.16 2.92 0
    endloop
  endfacet
  facet normal 0 -1 0
    outer loop
      vertex 0 2.33 1.265
      vertex 0 2.33 1.04
      vertex 0.025 2.33 1.265
    endloop
  endfacet
  facet normal 0 -1 0
    outer loop
      vertex 0 2.33 1.04
      vertex 0.1 2.33 1.04
      vertex 0.025 2.33 1.265
    endloop
  endfacet
  facet normal 0 -1 0
    outer loop
      vertex 0.025 2.33 1.265
      vertex 0.1 2.33 1.04
      vertex 0.025 2.33 1.94
    endloop
  endfacet
  facet normal 0 -1 0
    outer loop
      vertex 0.1 2.33 1.04
      vertex 0.1 2.33 1.94
      vertex 0.025 2.33 1.94
    endloop
  endfacet
  facet normal 0 0 1
    outer loop
      vertex 4.16 3.62 1.76
      vertex 4.16 2.92 1.76
      vertex 4.82 3.62 1.76
    endloop
  endfacet
  facet normal 0 0 1
    outer loop
      vertex 4.16 2.92 1.76
      vertex 4.82 2.92 1.76
      vertex 4.82 3.62 1.76
    endloop
  endfacet
  facet normal 0.0217636 -0.999763 0
    outer loop
      vertex 0.1 1.28159 1.94
      vertex 0.1 1.28159 1.04
      vertex 0.100367 1.2816 1.04
    endloop
  endfacet
  facet normal 0.0217636 -0.999763 0
    outer loop
      vertex 0.1 1.28159 1.94
      vertex 0.100367 1.2816 1.04
      vertex 0.100367 1.2816 1.94
    endloop
  endfacet
  facet normal 0.0656135 -0.997845 0
    outer loop
      vertex 0.100367 1.2816 1.04
      vertex 0.100733 1.28162 1.04
      vertex 0.100367 1.2816 1.94
    endloop
  endfacet
  facet normal 0.0656135 -0.997845 0
    outer loop
      vertex 0.100367 1.2816 1.94
      vertex 0.100733 1.28162 1.04
      vertex 0.100733 1.28162 1.94
    endloop
  endfacet
  facet normal 0.108818 -0.994062 0
    outer loop
      vertex 0.100733 1.28162 1.04
      vertex 0.101098 1.28166 1.04
      vertex 0.100733 1.28162 1.94
    endloop
  endfacet
  facet normal 0.108818 -0.994062 0
    outer loop
      vertex 0.100733 1.28162 1.94
      vertex 0.101098 1.28166 1.04
      vertex 0.101098 1.28166 1.94
    endloop
  endfacet
  facet normal 0.152021 -0.988377 0
    outer loop
      vertex 0.101098 1.28166 1.04
      vertex 0.101461 1.28172 1.04
      vertex 0.101098 1.28166 1.94
    endloop
  endfacet
  facet normal 0.152021 -0.988377 0
    outer loop
      vertex 0.101098 1.28166 1.94
      vertex 0.101461 1.28172 1.04
      vertex 0.101461 1.28172 1.94
    endloop
  endfacet
  facet normal 0.195218 -0.98076 0
    outer loop
      vertex 0.101461 1.28172 1.04
      vertex 0.101821 1.28179 1.04
      vertex 0.101461 1.28172 1.94
    endloop
  endfacet
  facet normal 0.195218 -0.98076 0
    outer loop
      vertex 0.101461 1.28172 1.94
      vertex 0.101821 1.28179 1.04
      vertex 0.101821 1.28179 1.94
    endloop
  endfacet
  facet normal 0.237459 -0.971398 0
    outer loop
      vertex 0.101821 1.28179 1.04
      vertex 0.102177 1.28188 1.04
      vertex 0.101821 1.28179 1.94
    endloop
  endfacet
  facet normal 0.237459 -0.971398 0
    outer loop
      vertex 0.101821 1.28179 1.94
      vertex 0.102177 1.28188 1.04
      vertex 0.102177 1.28188 1.94
    endloop
  endfacet
  facet normal 0.279988 -0.960003 0
    outer loop
      vertex 0.102177 1.28188 1.04
      vertex 0.102529 1.28198 1.04
      vertex 0.102177 1.28188 1.94
    endloop
  endfacet
  facet normal 0.279988 -0.960003 0
    outer loop
      vertex 0.102177 1.28188 1.94
      vertex 0.102529 1.28198 1.04
      vertex 0.102529 1.28198 1.94
    endloop
  endfacet
  facet normal 0.321564 -0.946888 0
    outer loop
      vertex 0.102529 1.28198 1.04
      vertex 0.102877 1.2821 1.04
      vertex 0.102529 1.28198 1.94
    endloop
  endfacet
  facet normal 0.321564 -0.946888 0
    outer loop
      vertex 0.102529 1.28198 1.94
      vertex 0.102877 1.2821 1.04
      vertex 0.102877 1.2821 1.94
    endloop
  endfacet
  facet normal 0.362215 -0.932095 0
    outer loop
      vertex 0.102877 1.2821 1.04
      vertex 0.103219 1.28223 1.04
      vertex 0.102877 1.2821 1.94
    endloop
  endfacet
  facet normal 0.362215 -0.932095 0
    outer loop
      vertex 0.102877 1.2821 1.94
      vertex 0.103219 1.28223 1.04
      vertex 0.103219 1.28223 1.94
    endloop
  endfacet
  facet normal 0.402775 -0.915299 0
    outer loop
      vertex 0.103219 1.28223 1.04
      vertex 0.103555 1.28238 1.04
      vertex 0.103219 1.28223 1.94
    endloop
  endfacet
  facet normal 0.402775 -0.915299 0
    outer loop
      vertex 0.103219 1.28223 1.94
      vertex 0.103555 1.28238 1.04
      vertex 0.103555 1.28238 1.94
    endloop
  endfacet
  facet normal 0.442392 -0.896822 0
    outer loop
      vertex 0.103555 1.28238 1.04
      vertex 0.103884 1.28254 1.04
      vertex 0.103555 1.28238 1.94
    endloop
  endfacet
  facet normal 0.442392 -0.896822 0
    outer loop
      vertex 0.103555 1.28238 1.94
      vertex 0.103884 1.28254 1.04
      vertex 0.103884 1.28254 1.94
    endloop
  endfacet
  facet normal 0.48105 -0.876693 0
    outer loop
      vertex 0.103884 1.28254 1.04
      vertex 0.104206 1.28272 1.04
      vertex 0.103884 1.28254 1.94
    endloop
  endfacet
  facet normal 0.48105 -0.876693 0
    outer loop
      vertex 0.103884 1.28254 1.94
      vertex 0.104206 1.28272 1.04
      vertex 0.104206 1.28272 1.94
    endloop
  endfacet
  facet normal 0 -1 0
    outer loop
      vertex 4.82 4.62433 0
      vertex 4.92 4.62433 0
      vertex 4.82 4.62433 0.676667
    endloop
  endfacet
  facet normal 0 -1 0
    outer loop
      vertex 4.92 4.62433 0
      vertex 4.92 4.62433 0.676667
      vertex 4.82 4.62433 0.676667
    endloop
  endfacet
  facet normal 0 0 1
    outer loop
      vertex 0.104206 1.28272 1.94
      vertex 0.135355 1.22876 1.94
      vertex 0.107285 1.29421 1.94
    endloop
  endfacet
  facet normal 0 0 1
    outer loop
      vertex 0.135355 1.22876 1.94
      vertex 1.03602 1.74876 1.94
      vertex 0.107285 1.29421 1.94
    endloop
  endfacet
  facet normal 0 0 1
    outer loop
      vertex 0.107285 1.29421 1.94
      vertex 1.03602 1.74876 1.94
      vertex 1.00067 1.81 1.94
    endloop
  endfacet
  facet normal 0 0 1
    outer loop
      vertex 0.104206 1.28272 1.94
      vertex 0.107285 1.29421 1.94
      vertex 0.103884 1.28254 1.94
    endloop
  endfacet
  facet normal 0 0 1
    outer loop
      vertex 0.107285 1.29421 1.94
      vertex 0.107097 1.29451 1.94
      vertex 0.103884 1.28254 1.94
    endloop
  endfacet
  facet normal 0 0 1
    outer loop
      vertex 0.103884 1.28254 1.94
      vertex 0.107097 1.29451 1.94
      vertex 0.103555 1.28238 1.94
    endloop
  endfacet
  facet normal 0 0 1
    outer loop
      vertex 0.106684 1.29511 1.94
      vertex 0.106459 1.29539 1.94
      vertex 0.1 1.28159 1.94
    endloop
  endfacet
  facet normal 0 0 1
    outer loop
      vertex 0.106459 1.29539 1.94
      vertex 0.106222 1.29566 1.94
      vertex 0.1 1.28159 1.94
    endloop
  endfacet
  facet normal 0 0 1
    outer loop
      vertex 0.106222 1.29566 1.94
      vertex 0.105973 1.29592 1.94
      vertex 0.1 1.28159 1.94
    endloop
  endfacet
  facet normal 0 0 1
    outer loop
      vertex 0.105973 1.29592 1.94
      vertex 0.105714 1.29617 1.94
      vertex 0.1 1.28159 1.94
    endloop
  endfacet
  facet normal 0 0 1
    outer loop
      vertex 0.1 1.28159 1.94
      vertex 0.105714 1.29617 1.94
      vertex 0.105444 1.29641 1.94
    endloop
  endfacet
  facet normal 0 0 1
    outer loop
      vertex 0.103631 1.29759 1.94
      vertex 0.103302 1.29774 1.94
      vertex 0.1 1.28159 1.94
    endloop
  endfacet
  facet normal 0 0 1
    outer loop
      vertex 0.103302 1.29774 1.94
      vertex 0.102967 1.29787 1.94
      vertex 0.1 1.28159 1.94
    endloop
  endfacet
  facet normal 0 0 1
    outer loop
      vertex 0.100367 1.2816 1.94
      vertex 0.107097 1.29451 1.94
      vertex 0.1 1.28159 1.94
    endloop
  endfacet
  facet normal 0 0 1
    outer loop
      vertex 0.107097 1.29451 1.94
      vertex 0.106897 1.29481 1.94
      vertex 0.1 1.28159 1.94
    endloop
  endfacet
  facet normal 0 0 1
    outer loop
      vertex 0.1 1.28159 1.94
      vertex 0.106897 1.29481 1.94
      vertex 0.106684 1.29511 1.94
    endloop
  endfacet
  facet normal 0 0 1
    outer loop
      vertex 0.100367 1.2816 1.94
      vertex 0.100733 1.28162 1.94
      vertex 0.107097 1.29451 1.94
    endloop
  endfacet
  facet normal 0 0 1
    outer loop
      vertex 0.100733 1.28162 1.94
      vertex 0.101098 1.28166 1.94
      vertex 0.107097 1.29451 1.94
    endloop
  endfacet
  facet normal 0 0 1
    outer loop
      vertex 0.107097 1.29451 1.94
      vertex 0.101098 1.28166 1.94
      vertex 0.101461 1.28172 1.94
    endloop
  endfacet
  facet normal 0 0 1
    outer loop
      vertex 0.101461 1.28172 1.94
      vertex 0.101821 1.28179 1.94
      vertex 0.107097 1.29451 1.94
    endloop
  endfacet
  facet normal 0 0 1
    outer loop
      vertex 0.101821 1.28179 1.94
      vertex 0.102177 1.28188 1.94
      vertex 0.107097 1.29451 1.94
    endloop
  endfacet
  facet normal 0 0 1
    outer loop
      vertex 0.107097 1.29451 1.94
      vertex 0.102177 1.28188 1.94
      vertex 0.102529 1.28198 1.94
    endloop
  endfacet
  facet normal 0 0 1
    outer loop
      vertex 0.102529 1.28198 1.94
      vertex 0.102877 1.2821 1.94
      vertex 0.107097 1.29451 1.94
    endloop
  endfacet
  facet normal 0 0 1
    outer loop
      vertex 0.102877 1.2821 1.94
      vertex 0.103219 1.28223 1.94
      vertex 0.107097 1.29451 1.94
    endloop
  endfacet
  facet normal 0 0 1
    outer loop
      vertex 0.107097 1.29451 1.94
      vertex 0.103219 1.28223 1.94
      vertex 0.103555 1.28238 1.94
    endloop
  endfacet
  facet normal 0 0 1
    outer loop
      vertex 0.105444 1.29641 1.94
      vertex 0.105163 1.29664 1.94
      vertex 0.1 1.28159 1.94
    endloop
  endfacet
  facet normal 0 0 1
    outer loop
      vertex 0.105163 1.29664 1.94
      vertex 0.104874 1.29686 1.94
      vertex 0.1 1.28159 1.94
    endloop
  endfacet
  facet normal 0 0 1
    outer loop
      vertex 0.1 1.28159 1.94
      vertex 0.104874 1.29686 1.94
      vertex 0.104575 1.29706 1.94
    endloop
  endfacet
  facet normal 0 0 1
    outer loop
      vertex 0.102967 1.29787 1.94
      vertex 0.102627 1.29799 1.94
      vertex 0.1 1.28159 1.94
    endloop
  endfacet
  facet normal 0 0 1
    outer loop
      vertex 0.102627 1.29799 1.94
      vertex 0.102281 1.2981 1.94
      vertex 0.1 1.28159 1.94
    endloop
  endfacet
  facet normal 0 0 1
    outer loop
      vertex 0.1 1.28159 1.94
      vertex 0.102281 1.2981 1.94
      vertex 0.101932 1.29819 1.94
    endloop
  endfacet
  facet normal 0 0 1
    outer loop
      vertex 0.101932 1.29819 1.94
      vertex 0.101579 1.29826 1.94
      vertex 0.1 1.28159 1.94
    endloop
  endfacet
  facet normal 0 0 1
    outer loop
      vertex 0.101579 1.29826 1.94
      vertex 0.101223 1.29832 1.94
      vertex 0.1 1.28159 1.94
    endloop
  endfacet
  facet normal 0 0 1
    outer loop
      vertex 0.1 1.28159 1.94
      vertex 0.101223 1.29832 1.94
      vertex 0.100865 1.29837 1.94
    endloop
  endfacet
  facet normal 0 0 1
    outer loop
      vertex 0.100865 1.29837 1.94
      vertex 0.100505 1.2984 1.94
      vertex 0.1 1.28159 1.94
    endloop
  endfacet
  facet normal 0 0 1
    outer loop
      vertex 0.100505 1.2984 1.94
      vertex 0.100144 1.29841 1.94
      vertex 0.1 1.28159 1.94
    endloop
  endfacet
  facet normal 0 0 1
    outer loop
      vertex 0.1 1.28159 1.94
      vertex 0.100144 1.29841 1.94
      vertex 0.1 1.29841 1.94
    endloop
  endfacet
  facet normal 0 0 1
    outer loop
      vertex 0.104575 1.29706 1.94
      vertex 0.104268 1.29725 1.94
      vertex 0.1 1.28159 1.94
    endloop
  endfacet
  facet normal 0 0 1
    outer loop
      vertex 0.104268 1.29725 1.94
      vertex 0.103953 1.29742 1.94
      vertex 0.1 1.28159 1.94
    endloop
  endfacet
  facet normal 0 0 1
    outer loop
      vertex 0.1 1.28159 1.94
      vertex 0.103953 1.29742 1.94
      vertex 0.103631 1.29759 1.94
    endloop
  endfacet
endsolid Mesh
