solid Mesh
  facet normal 1 0 0
    outer loop
      vertex 0.025 1.29 1.94
      vertex 0.025 1.29 1.58
      vertex 0.025 2.33 1.94
    endloop
  endfacet
  facet normal 1 0 0
    outer loop
      vertex 0.025 1.29 1.58
      vertex 0.025 2.33 1.58
      vertex 0.025 2.33 1.94
    endloop
  endfacet
  facet normal 0 0 -1
    outer loop
      vertex 0.025 2.33 1.58
      vertex 0.025 1.29 1.58
      vertex 0 2.33 1.58
    endloop
  endfacet
  facet normal 0 0 -1
    outer loop
      vertex 0.025 1.29 1.58
      vertex 0 1.29 1.58
      vertex 0 2.33 1.58
    endloop
  endfacet
  facet normal 0 0 -1
    outer loop
      vertex 0.1 1.28159 1.04
      vertex 0.1 1.29841 1.04
      vertex 0.10012 1.29841 1.04
    endloop
  endfacet
  facet normal 0 0 -1
    outer loop
      vertex 0.885391 1.97539 1.04
      vertex 0.15 1.24 1.04
      vertex 0.105948 1.28405 1.04
    endloop
  endfacet
  facet normal 0 0 -1
    outer loop
      vertex 0.1 1.28159 1.04
      vertex 0.101197 1.29833 1.04
      vertex 0.101553 1.29827 1.04
    endloop
  endfacet
  facet normal 0 0 -1
    outer loop
      vertex 0.10012 1.29841 1.04
      vertex 0.10048 1.2984 1.04
      vertex 0.1 1.28159 1.04
    endloop
  endfacet
  facet normal 0 0 -1
    outer loop
      vertex 0.10048 1.2984 1.04
      vertex 0.100839 1.29837 1.04
      vertex 0.1 1.28159 1.04
    endloop
  endfacet
  facet normal 0 0 -1
    outer loop
      vertex 0.1 1.28159 1.04
      vertex 0.100839 1.29837 1.04
      vertex 0.101197 1.29833 1.04
    endloop
  endfacet
  facet normal 0 0 -1
    outer loop
      vertex 0.103603 1.2976 1.04
      vertex 0.103925 1.29744 1.04
      vertex 0.1 1.28159 1.04
    endloop
  endfacet
  facet normal 0 0 -1
    outer loop
      vertex 0.103925 1.29744 1.04
      vertex 0.10424 1.29726 1.04
      vertex 0.1 1.28159 1.04
    endloop
  endfacet
  facet normal 0 0 -1
    outer loop
      vertex 0.1 1.28159 1.04
      vertex 0.10424 1.29726 1.04
      vertex 0.104548 1.29708 1.04
    endloop
  endfacet
  facet normal 0 0 -1
    outer loop
      vertex 0.1 1.28159 1.04
      vertex 0.105417 1.29643 1.04
      vertex 0.105688 1.2962 1.04
    endloop
  endfacet
  facet normal 0 0 -1
    outer loop
      vertex 0.101553 1.29827 1.04
      vertex 0.101905 1.29819 1.04
      vertex 0.1 1.28159 1.04
    endloop
  endfacet
  facet normal 0 0 -1
    outer loop
      vertex 0.101905 1.29819 1.04
      vertex 0.102254 1.2981 1.04
      vertex 0.1 1.28159 1.04
    endloop
  endfacet
  facet normal 0 0 -1
    outer loop
      vertex 0.1 1.28159 1.04
      vertex 0.102254 1.2981 1.04
      vertex 0.102599 1.298 1.04
    endloop
  endfacet
  facet normal 0 0 -1
    outer loop
      vertex 0.102529 1.28198 1.04
      vertex 0.102177 1.28188 1.04
      vertex 0.105688 1.2962 1.04
    endloop
  endfacet
  facet normal 0 0 -1
    outer loop
      vertex 0.102599 1.298 1.04
      vertex 0.10294 1.29788 1.04
      vertex 0.1 1.28159 1.04
    endloop
  endfacet
  facet normal 0 0 -1
    outer loop
      vertex 0.10294 1.29788 1.04
      vertex 0.103274 1.29775 1.04
      vertex 0.1 1.28159 1.04
    endloop
  endfacet
  facet normal 0 0 -1
    outer loop
      vertex 0.1 1.28159 1.04
      vertex 0.103274 1.29775 1.04
      vertex 0.103603 1.2976 1.04
    endloop
  endfacet
  facet normal 0 0 -1
    outer loop
      vertex 0.104548 1.29708 1.04
      vertex 0.104847 1.29688 1.04
      vertex 0.1 1.28159 1.04
    endloop
  endfacet
  facet normal 0 0 -1
    outer loop
      vertex 0.104847 1.29688 1.04
      vertex 0.105136 1.29666 1.04
      vertex 0.1 1.28159 1.04
    endloop
  endfacet
  facet normal 0 0 -1
    outer loop
      vertex 0.1 1.28159 1.04
      vertex 0.105136 1.29666 1.04
      vertex 0.105417 1.29643 1.04
    endloop
  endfacet
  facet normal 0 0 -1
    outer loop
      vertex 0.105688 1.2962 1.04
      vertex 0.105948 1.29595 1.04
      vertex 0.105948 1.28405 1.04
    endloop
  endfacet
  facet normal 0 0 -1
    outer loop
      vertex 0.105948 1.29595 1.04
      vertex 0.835391 2.02539 1.04
      vertex 0.105948 1.28405 1.04
    endloop
  endfacet
  facet normal 0 0 -1
    outer loop
      vertex 0.105948 1.28405 1.04
      vertex 0.835391 2.02539 1.04
      vertex 0.885391 1.97539 1.04
    endloop
  endfacet
  facet normal 0 0 -1
    outer loop
      vertex 0.104206 1.28272 1.04
      vertex 0.103884 1.28254 1.04
      vertex 0.105688 1.2962 1.04
    endloop
  endfacet
  facet normal 0 0 -1
    outer loop
      vertex 0.103884 1.28254 1.04
      vertex 0.103555 1.28238 1.04
      vertex 0.105688 1.2962 1.04
    endloop
  endfacet
  facet normal 0 0 -1
    outer loop
      vertex 0.101098 1.28166 1.04
      vertex 0.100733 1.28162 1.04
      vertex 0.105688 1.2962 1.04
    endloop
  endfacet
  facet normal 0 0 -1
    outer loop
      vertex 0.100733 1.28162 1.04
      vertex 0.100367 1.2816 1.04
      vertex 0.105688 1.2962 1.04
    endloop
  endfacet
  facet normal 0 0 -1
    outer loop
      vertex 0.105688 1.2962 1.04
      vertex 0.100367 1.2816 1.04
      vertex 0.1 1.28159 1.04
    endloop
  endfacet
  facet normal 0 0 -1
    outer loop
      vertex 0.103555 1.28238 1.04
      vertex 0.103219 1.28223 1.04
      vertex 0.105688 1.2962 1.04
    endloop
  endfacet
  facet normal 0 0 -1
    outer loop
      vertex 0.103219 1.28223 1.04
      vertex 0.102877 1.2821 1.04
      vertex 0.105688 1.2962 1.04
    endloop
  endfacet
  facet normal 0 0 -1
    outer loop
      vertex 0.105688 1.2962 1.04
      vertex 0.102877 1.2821 1.04
      vertex 0.102529 1.28198 1.04
    endloop
  endfacet
  facet normal 0 0 -1
    outer loop
      vertex 0.102177 1.28188 1.04
      vertex 0.101821 1.28179 1.04
      vertex 0.105688 1.2962 1.04
    endloop
  endfacet
  facet normal 0 0 -1
    outer loop
      vertex 0.101821 1.28179 1.04
      vertex 0.101461 1.28172 1.04
      vertex 0.105688 1.2962 1.04
    endloop
  endfacet
  facet normal 0 0 -1
    outer loop
      vertex 0.105688 1.2962 1.04
      vertex 0.101461 1.28172 1.04
      vertex 0.101098 1.28166 1.04
    endloop
  endfacet
  facet normal 0 0 -1
    outer loop
      vertex 0.105948 1.28405 1.04
      vertex 0.105683 1.2838 1.04
      vertex 0.105688 1.2962 1.04
    endloop
  endfacet
  facet normal 0 0 -1
    outer loop
      vertex 0.105683 1.2838 1.04
      vertex 0.105407 1.28356 1.04
      vertex 0.105688 1.2962 1.04
    endloop
  endfacet
  facet normal 0 0 -1
    outer loop
      vertex 0.105688 1.2962 1.04
      vertex 0.105407 1.28356 1.04
      vertex 0.105121 1.28333 1.04
    endloop
  endfacet
  facet normal 0 0 -1
    outer loop
      vertex 0.105121 1.28333 1.04
      vertex 0.104825 1.28311 1.04
      vertex 0.105688 1.2962 1.04
    endloop
  endfacet
  facet normal 0 0 -1
    outer loop
      vertex 0.104825 1.28311 1.04
      vertex 0.10452 1.28291 1.04
      vertex 0.105688 1.2962 1.04
    endloop
  endfacet
  facet normal 0 0 -1
    outer loop
      vertex 0.105688 1.2962 1.04
      vertex 0.10452 1.28291 1.04
      vertex 0.104206 1.28272 1.04
    endloop
  endfacet
  facet normal -0.707107 -0.707107 0
    outer loop
      vertex 0.105948 1.28405 1.04
      vertex 0.15 1.24 1.04
      vertex 0.105948 1.28405 1.94
    endloop
  endfacet
  facet normal -0.707107 -0.707107 0
    outer loop
      vertex 0.15 1.24 1.04
      vertex 0.15 1.24 1.94
      vertex 0.105948 1.28405 1.94
    endloop
  endfacet
  facet normal -0.707107 0.707107 0
    outer loop
      vertex 0.835391 2.02539 1.94
      vertex 0.835391 2.02539 1.04
      vertex 0.105948 1.29595 1.94
    endloop
  endfacet
  facet normal -0.707107 0.707107 0
    outer loop
      vertex 0.835391 2.02539 1.04
      vertex 0.105948 1.29595 1.04
      vertex 0.105948 1.29595 1.94
    endloop
  endfacet
  facet normal 0 1 0
    outer loop
      vertex 4.82 3.69933 2.03
      vertex 4.92 3.69933 2.03
      vertex 4.82 3.69933 0
    endloop
  endfacet
  facet normal 0 1 0
    outer loop
      vertex 4.92 3.69933 2.03
      vertex 4.92 3.69933 0
      vertex 4.82 3.69933 0
    endloop
  endfacet
  facet normal 0.691798 0.722091 0
    outer loop
      vertex 0.105948 1.29595 1.94
      vertex 0.105948 1.29595 1.04
      vertex 0.105688 1.2962 1.04
    endloop
  endfacet
  facet normal 0.691798 0.722091 0
    outer loop
      vertex 0.105948 1.29595 1.94
      vertex 0.105688 1.2962 1.04
      vertex 0.105688 1.2962 1.94
    endloop
  endfacet
  facet normal 0.660122 0.751158 0
    outer loop
      vertex 0.105688 1.2962 1.04
      vertex 0.105417 1.29643 1.04
      vertex 0.105688 1.2962 1.94
    endloop
  endfacet
  facet normal 0.660122 0.751158 0
    outer loop
      vertex 0.105688 1.2962 1.94
      vertex 0.105417 1.29643 1.04
      vertex 0.105417 1.29643 1.94
    endloop
  endfacet
  facet normal 0.627545 0.77858 0
    outer loop
      vertex 0.105417 1.29643 1.04
      vertex 0.105136 1.29666 1.04
      vertex 0.105417 1.29643 1.94
    endloop
  endfacet
  facet normal 0.627545 0.77858 0
    outer loop
      vertex 0.105417 1.29643 1.94
      vertex 0.105136 1.29666 1.04
      vertex 0.105136 1.29666 1.94
    endloop
  endfacet
  facet normal 0.593539 0.804805 0
    outer loop
      vertex 0.105136 1.29666 1.04
      vertex 0.104847 1.29688 1.04
      vertex 0.105136 1.29666 1.94
    endloop
  endfacet
  facet normal 0.593539 0.804805 0
    outer loop
      vertex 0.105136 1.29666 1.94
      vertex 0.104847 1.29688 1.04
      vertex 0.104847 1.29688 1.94
    endloop
  endfacet
  facet normal 0.558483 0.829516 0
    outer loop
      vertex 0.104847 1.29688 1.04
      vertex 0.104548 1.29708 1.04
      vertex 0.104847 1.29688 1.94
    endloop
  endfacet
  facet normal 0.558483 0.829516 0
    outer loop
      vertex 0.104847 1.29688 1.94
      vertex 0.104548 1.29708 1.04
      vertex 0.104548 1.29708 1.94
    endloop
  endfacet
  facet normal 0.522426 0.852685 0
    outer loop
      vertex 0.104548 1.29708 1.04
      vertex 0.10424 1.29726 1.04
      vertex 0.104548 1.29708 1.94
    endloop
  endfacet
  facet normal 0.522426 0.852685 0
    outer loop
      vertex 0.104548 1.29708 1.94
      vertex 0.10424 1.29726 1.04
      vertex 0.10424 1.29726 1.94
    endloop
  endfacet
  facet normal 0.485629 0.874165 0
    outer loop
      vertex 0.10424 1.29726 1.04
      vertex 0.103925 1.29744 1.04
      vertex 0.10424 1.29726 1.94
    endloop
  endfacet
  facet normal 0.485629 0.874165 0
    outer loop
      vertex 0.10424 1.29726 1.94
      vertex 0.103925 1.29744 1.04
      vertex 0.103925 1.29744 1.94
    endloop
  endfacet
  facet normal 0.447627 0.89422 0
    outer loop
      vertex 0.103925 1.29744 1.04
      vertex 0.103603 1.2976 1.04
      vertex 0.103925 1.29744 1.94
    endloop
  endfacet
  facet normal 0.447627 0.89422 0
    outer loop
      vertex 0.103925 1.29744 1.94
      vertex 0.103603 1.2976 1.04
      vertex 0.103603 1.2976 1.94
    endloop
  endfacet
  facet normal 0.408915 0.912573 0
    outer loop
      vertex 0.103603 1.2976 1.04
      vertex 0.103274 1.29775 1.04
      vertex 0.103603 1.2976 1.94
    endloop
  endfacet
  facet normal 0.408915 0.912573 0
    outer loop
      vertex 0.103603 1.2976 1.94
      vertex 0.103274 1.29775 1.04
      vertex 0.103274 1.29775 1.94
    endloop
  endfacet
  facet normal 0.369536 0.929216 0
    outer loop
      vertex 0.103274 1.29775 1.04
      vertex 0.10294 1.29788 1.04
      vertex 0.103274 1.29775 1.94
    endloop
  endfacet
  facet normal 0.369536 0.929216 0
    outer loop
      vertex 0.103274 1.29775 1.94
      vertex 0.10294 1.29788 1.04
      vertex 0.10294 1.29788 1.94
    endloop
  endfacet
  facet normal 0.329201 0.94426 0
    outer loop
      vertex 0.10294 1.29788 1.04
      vertex 0.102599 1.298 1.04
      vertex 0.10294 1.29788 1.94
    endloop
  endfacet
  facet normal 0.329201 0.94426 0
    outer loop
      vertex 0.10294 1.29788 1.94
      vertex 0.102599 1.298 1.04
      vertex 0.102599 1.298 1.94
    endloop
  endfacet
  facet normal 0.288501 0.95748 0
    outer loop
      vertex 0.102599 1.298 1.04
      vertex 0.102254 1.2981 1.04
      vertex 0.102599 1.298 1.94
    endloop
  endfacet
  facet normal 0.288501 0.95748 0
    outer loop
      vertex 0.102599 1.298 1.94
      vertex 0.102254 1.2981 1.04
      vertex 0.102254 1.2981 1.94
    endloop
  endfacet
  facet normal 0.247461 0.968898 0
    outer loop
      vertex 0.102254 1.2981 1.04
      vertex 0.101905 1.29819 1.04
      vertex 0.102254 1.2981 1.94
    endloop
  endfacet
  facet normal 0.247461 0.968898 0
    outer loop
      vertex 0.102254 1.2981 1.94
      vertex 0.101905 1.29819 1.04
      vertex 0.101905 1.29819 1.94
    endloop
  endfacet
  facet normal 0.205456 0.978666 0
    outer loop
      vertex 0.101905 1.29819 1.04
      vertex 0.101553 1.29827 1.04
      vertex 0.101905 1.29819 1.94
    endloop
  endfacet
  facet normal 0.205456 0.978666 0
    outer loop
      vertex 0.101905 1.29819 1.94
      vertex 0.101553 1.29827 1.04
      vertex 0.101553 1.29827 1.94
    endloop
  endfacet
  facet normal 0.163437 0.986554 0
    outer loop
      vertex 0.101553 1.29827 1.04
      vertex 0.101197 1.29833 1.04
      vertex 0.101553 1.29827 1.94
    endloop
  endfacet
  facet normal 0.163437 0.986554 0
    outer loop
      vertex 0.101553 1.29827 1.94
      vertex 0.101197 1.29833 1.04
      vertex 0.101197 1.29833 1.94
    endloop
  endfacet
  facet normal 0.121087 0.992642 0
    outer loop
      vertex 0.101197 1.29833 1.04
      vertex 0.100839 1.29837 1.04
      vertex 0.101197 1.29833 1.94
    endloop
  endfacet
  facet normal 0.121087 0.992642 0
    outer loop
      vertex 0.101197 1.29833 1.94
      vertex 0.100839 1.29837 1.04
      vertex 0.100839 1.29837 1.94
    endloop
  endfacet
  facet normal 0.0784105 0.996921 0
    outer loop
      vertex 0.100839 1.29837 1.04
      vertex 0.10048 1.2984 1.04
      vertex 0.100839 1.29837 1.94
    endloop
  endfacet
  facet normal 0.0784105 0.996921 0
    outer loop
      vertex 0.100839 1.29837 1.94
      vertex 0.10048 1.2984 1.04
      vertex 0.10048 1.2984 1.94
    endloop
  endfacet
  facet normal 0.0357306 0.999361 0
    outer loop
      vertex 0.10048 1.2984 1.04
      vertex 0.10012 1.29841 1.04
      vertex 0.10048 1.2984 1.94
    endloop
  endfacet
  facet normal 0.0357306 0.999361 0
    outer loop
      vertex 0.10048 1.2984 1.94
      vertex 0.10012 1.29841 1.04
      vertex 0.10012 1.29841 1.94
    endloop
  endfacet
  facet normal 0.00694729 0.999976 0
    outer loop
      vertex 0.10012 1.29841 1.94
      vertex 0.10012 1.29841 1.04
      vertex 0.1 1.29841 1.94
    endloop
  endfacet
  facet normal 0.00694729 0.999976 0
    outer loop
      vertex 0.10012 1.29841 1.04
      vertex 0.1 1.29841 1.04
      vertex 0.1 1.29841 1.94
    endloop
  endfacet
  facet normal -0.0138949 0.999903 0
    outer loop
      vertex 0.1 1.29841 1.94
      vertex 0.1 1.29841 1.04
      vertex 0.0997598 1.29841 1.94
    endloop
  endfacet
  facet normal -0.0138949 0.999903 0
    outer loop
      vertex 0.1 1.29841 1.04
      vertex 0.0997598 1.29841 1.04
      vertex 0.0997598 1.29841 1.94
    endloop
  endfacet
  facet normal -0.0499562 0.998751 0
    outer loop
      vertex 0.0997598 1.29841 1.04
      vertex 0.0993999 1.29839 1.04
      vertex 0.0997598 1.29841 1.94
    endloop
  endfacet
  facet normal -0.0499562 0.998751 0
    outer loop
      vertex 0.0997598 1.29841 1.94
      vertex 0.0993999 1.29839 1.04
      vertex 0.0993999 1.29839 1.94
    endloop
  endfacet
  facet normal -0.0926367 0.9957 0
    outer loop
      vertex 0.0993999 1.29839 1.04
      vertex 0.0990412 1.29836 1.04
      vertex 0.0993999 1.29839 1.94
    endloop
  endfacet
  facet normal -0.0926367 0.9957 0
    outer loop
      vertex 0.0993999 1.29839 1.94
      vertex 0.0990412 1.29836 1.04
      vertex 0.0990412 1.29836 1.94
    endloop
  endfacet
  facet normal -0.135313 0.990803 0
    outer loop
      vertex 0.0990412 1.29836 1.04
      vertex 0.0986841 1.29831 1.04
      vertex 0.0990412 1.29836 1.94
    endloop
  endfacet
  facet normal -0.135313 0.990803 0
    outer loop
      vertex 0.0990412 1.29836 1.94
      vertex 0.0986841 1.29831 1.04
      vertex 0.0986841 1.29831 1.94
    endloop
  endfacet
  facet normal -0.177655 0.984093 0
    outer loop
      vertex 0.0986841 1.29831 1.04
      vertex 0.0983295 1.29824 1.04
      vertex 0.0986841 1.29831 1.94
    endloop
  endfacet
  facet normal -0.177655 0.984093 0
    outer loop
      vertex 0.0986841 1.29831 1.94
      vertex 0.0983295 1.29824 1.04
      vertex 0.0983295 1.29824 1.94
    endloop
  endfacet
  facet normal -0.21936 0.975644 0
    outer loop
      vertex 0.0983295 1.29824 1.04
      vertex 0.097978 1.29816 1.04
      vertex 0.0983295 1.29824 1.94
    endloop
  endfacet
  facet normal -0.21936 0.975644 0
    outer loop
      vertex 0.0983295 1.29824 1.94
      vertex 0.097978 1.29816 1.04
      vertex 0.097978 1.29816 1.94
    endloop
  endfacet
  facet normal -0.261346 0.965245 0
    outer loop
      vertex 0.097978 1.29816 1.04
      vertex 0.0976302 1.29807 1.04
      vertex 0.097978 1.29816 1.94
    endloop
  endfacet
  facet normal -0.261346 0.965245 0
    outer loop
      vertex 0.097978 1.29816 1.94
      vertex 0.0976302 1.29807 1.04
      vertex 0.0976302 1.29807 1.94
    endloop
  endfacet
  facet normal -0.302073 0.953285 0
    outer loop
      vertex 0.0976302 1.29807 1.04
      vertex 0.0972867 1.29796 1.04
      vertex 0.0976302 1.29807 1.94
    endloop
  endfacet
  facet normal -0.302073 0.953285 0
    outer loop
      vertex 0.0976302 1.29807 1.94
      vertex 0.0972867 1.29796 1.04
      vertex 0.0972867 1.29796 1.94
    endloop
  endfacet
  facet normal -0.342752 0.939426 0
    outer loop
      vertex 0.0972867 1.29796 1.04
      vertex 0.0969482 1.29784 1.04
      vertex 0.0972867 1.29796 1.94
    endloop
  endfacet
  facet normal -0.342752 0.939426 0
    outer loop
      vertex 0.0972867 1.29796 1.94
      vertex 0.0969482 1.29784 1.04
      vertex 0.0969482 1.29784 1.94
    endloop
  endfacet
  facet normal -0.382763 0.923846 0
    outer loop
      vertex 0.0969482 1.29784 1.04
      vertex 0.0966153 1.2977 1.04
      vertex 0.0969482 1.29784 1.94
    endloop
  endfacet
  facet normal -0.382763 0.923846 0
    outer loop
      vertex 0.0969482 1.29784 1.94
      vertex 0.0966153 1.2977 1.04
      vertex 0.0966153 1.2977 1.94
    endloop
  endfacet
  facet normal -0.421841 0.90667 0
    outer loop
      vertex 0.0966153 1.2977 1.04
      vertex 0.0962887 1.29755 1.04
      vertex 0.0966153 1.2977 1.94
    endloop
  endfacet
  facet normal -0.421841 0.90667 0
    outer loop
      vertex 0.0966153 1.2977 1.94
      vertex 0.0962887 1.29755 1.04
      vertex 0.0962887 1.29755 1.94
    endloop
  endfacet
  facet normal -0.460487 0.887666 0
    outer loop
      vertex 0.0962887 1.29755 1.04
      vertex 0.0959688 1.29738 1.04
      vertex 0.0962887 1.29755 1.94
    endloop
  endfacet
  facet normal -0.460487 0.887666 0
    outer loop
      vertex 0.0962887 1.29755 1.94
      vertex 0.0959688 1.29738 1.04
      vertex 0.0959688 1.29738 1.94
    endloop
  endfacet
  facet normal -0.497919 0.867223 0
    outer loop
      vertex 0.0959688 1.29738 1.04
      vertex 0.0956563 1.2972 1.04
      vertex 0.0959688 1.29738 1.94
    endloop
  endfacet
  facet normal -0.497919 0.867223 0
    outer loop
      vertex 0.0959688 1.29738 1.94
      vertex 0.0956563 1.2972 1.04
      vertex 0.0956563 1.2972 1.94
    endloop
  endfacet
  facet normal -0.534634 0.845084 0
    outer loop
      vertex 0.0956563 1.2972 1.04
      vertex 0.0953518 1.29701 1.04
      vertex 0.0956563 1.2972 1.94
    endloop
  endfacet
  facet normal -0.534634 0.845084 0
    outer loop
      vertex 0.0956563 1.2972 1.94
      vertex 0.0953518 1.29701 1.04
      vertex 0.0953518 1.29701 1.94
    endloop
  endfacet
  facet normal -0.570357 0.821397 0
    outer loop
      vertex 0.0953518 1.29701 1.04
      vertex 0.0950558 1.29681 1.04
      vertex 0.0953518 1.29701 1.94
    endloop
  endfacet
  facet normal -0.570357 0.821397 0
    outer loop
      vertex 0.0953518 1.29701 1.94
      vertex 0.0950558 1.29681 1.04
      vertex 0.0950558 1.29681 1.94
    endloop
  endfacet
  facet normal -0.604846 0.796342 0
    outer loop
      vertex 0.0950558 1.29681 1.04
      vertex 0.0947689 1.29659 1.04
      vertex 0.0950558 1.29681 1.94
    endloop
  endfacet
  facet normal -0.604846 0.796342 0
    outer loop
      vertex 0.0950558 1.29681 1.94
      vertex 0.0947689 1.29659 1.04
      vertex 0.0947689 1.29659 1.94
    endloop
  endfacet
  facet normal -0.638525 0.769601 0
    outer loop
      vertex 0.0947689 1.29659 1.04
      vertex 0.0944916 1.29636 1.04
      vertex 0.0947689 1.29659 1.94
    endloop
  endfacet
  facet normal -0.638525 0.769601 0
    outer loop
      vertex 0.0947689 1.29659 1.94
      vertex 0.0944916 1.29636 1.04
      vertex 0.0944916 1.29636 1.94
    endloop
  endfacet
  facet normal -0.670919 0.74153 0
    outer loop
      vertex 0.0944916 1.29636 1.04
      vertex 0.0942244 1.29612 1.04
      vertex 0.0944916 1.29636 1.94
    endloop
  endfacet
  facet normal -0.670919 0.74153 0
    outer loop
      vertex 0.0944916 1.29636 1.94
      vertex 0.0942244 1.29612 1.04
      vertex 0.0942244 1.29612 1.94
    endloop
  endfacet
  facet normal -0.702043 0.712134 0
    outer loop
      vertex 0.0942244 1.29612 1.04
      vertex 0.0939678 1.29586 1.04
      vertex 0.0942244 1.29612 1.94
    endloop
  endfacet
  facet normal -0.702043 0.712134 0
    outer loop
      vertex 0.0942244 1.29612 1.94
      vertex 0.0939678 1.29586 1.04
      vertex 0.0939678 1.29586 1.94
    endloop
  endfacet
  facet normal -0.731865 0.68145 0
    outer loop
      vertex 0.0939678 1.29586 1.04
      vertex 0.0937223 1.2956 1.04
      vertex 0.0939678 1.29586 1.94
    endloop
  endfacet
  facet normal -0.731865 0.68145 0
    outer loop
      vertex 0.0939678 1.29586 1.94
      vertex 0.0937223 1.2956 1.04
      vertex 0.0937223 1.2956 1.94
    endloop
  endfacet
  facet normal -0.760483 0.649358 0
    outer loop
      vertex 0.0937223 1.2956 1.04
      vertex 0.0934883 1.29532 1.04
      vertex 0.0937223 1.2956 1.94
    endloop
  endfacet
  facet normal -0.760483 0.649358 0
    outer loop
      vertex 0.0937223 1.2956 1.94
      vertex 0.0934883 1.29532 1.04
      vertex 0.0934883 1.29532 1.94
    endloop
  endfacet
  facet normal -0.787482 0.616337 0
    outer loop
      vertex 0.0934883 1.29532 1.04
      vertex 0.0932662 1.29504 1.04
      vertex 0.0934883 1.29532 1.94
    endloop
  endfacet
  facet normal -0.787482 0.616337 0
    outer loop
      vertex 0.0934883 1.29532 1.94
      vertex 0.0932662 1.29504 1.04
      vertex 0.0932662 1.29504 1.94
    endloop
  endfacet
  facet normal -0.813199 0.581985 0
    outer loop
      vertex 0.0932662 1.29504 1.04
      vertex 0.0930565 1.29475 1.04
      vertex 0.0932662 1.29504 1.94
    endloop
  endfacet
  facet normal -0.813199 0.581985 0
    outer loop
      vertex 0.0932662 1.29504 1.94
      vertex 0.0930565 1.29475 1.04
      vertex 0.0930565 1.29475 1.94
    endloop
  endfacet
  facet normal -0.837369 0.546639 0
    outer loop
      vertex 0.0930565 1.29475 1.04
      vertex 0.0928595 1.29445 1.04
      vertex 0.0930565 1.29475 1.94
    endloop
  endfacet
  facet normal -0.837369 0.546639 0
    outer loop
      vertex 0.0930565 1.29475 1.94
      vertex 0.0928595 1.29445 1.04
      vertex 0.0928595 1.29445 1.94
    endloop
  endfacet
  facet normal -0.859968 0.510348 0
    outer loop
      vertex 0.0928595 1.29445 1.04
      vertex 0.0926757 1.29414 1.04
      vertex 0.0928595 1.29445 1.94
    endloop
  endfacet
  facet normal -0.859968 0.510348 0
    outer loop
      vertex 0.0928595 1.29445 1.94
      vertex 0.0926757 1.29414 1.04
      vertex 0.0926757 1.29414 1.94
    endloop
  endfacet
  facet normal -0.881138 0.472859 0
    outer loop
      vertex 0.0926757 1.29414 1.04
      vertex 0.0925053 1.29382 1.04
      vertex 0.0926757 1.29414 1.94
    endloop
  endfacet
  facet normal -0.881138 0.472859 0
    outer loop
      vertex 0.0926757 1.29414 1.94
      vertex 0.0925053 1.29382 1.04
      vertex 0.0925053 1.29382 1.94
    endloop
  endfacet
  facet normal -0.900536 0.434781 0
    outer loop
      vertex 0.0925053 1.29382 1.04
      vertex 0.0923486 1.29349 1.04
      vertex 0.0925053 1.29382 1.94
    endloop
  endfacet
  facet normal -0.900536 0.434781 0
    outer loop
      vertex 0.0925053 1.29382 1.94
      vertex 0.0923486 1.29349 1.04
      vertex 0.0923486 1.29349 1.94
    endloop
  endfacet
  facet normal -0.918278 0.395935 0
    outer loop
      vertex 0.0923486 1.29349 1.04
      vertex 0.092206 1.29316 1.04
      vertex 0.0923486 1.29349 1.94
    endloop
  endfacet
  facet normal -0.918278 0.395935 0
    outer loop
      vertex 0.0923486 1.29349 1.94
      vertex 0.092206 1.29316 1.04
      vertex 0.092206 1.29316 1.94
    endloop
  endfacet
  facet normal -0.934461 0.356067 0
    outer loop
      vertex 0.092206 1.29316 1.04
      vertex 0.0920776 1.29283 1.04
      vertex 0.092206 1.29316 1.94
    endloop
  endfacet
  facet normal -0.934461 0.356067 0
    outer loop
      vertex 0.092206 1.29316 1.94
      vertex 0.0920776 1.29283 1.04
      vertex 0.0920776 1.29283 1.94
    endloop
  endfacet
  facet normal -0.948826 0.3158 0
    outer loop
      vertex 0.0920776 1.29283 1.04
      vertex 0.0919638 1.29248 1.04
      vertex 0.0920776 1.29283 1.94
    endloop
  endfacet
  facet normal -0.948826 0.3158 0
    outer loop
      vertex 0.0920776 1.29283 1.94
      vertex 0.0919638 1.29248 1.04
      vertex 0.0919638 1.29248 1.94
    endloop
  endfacet
  facet normal -0.961478 0.274882 0
    outer loop
      vertex 0.0919638 1.29248 1.04
      vertex 0.0918648 1.29214 1.04
      vertex 0.0919638 1.29248 1.94
    endloop
  endfacet
  facet normal -0.961478 0.274882 0
    outer loop
      vertex 0.0919638 1.29248 1.94
      vertex 0.0918648 1.29214 1.04
      vertex 0.0918648 1.29214 1.94
    endloop
  endfacet
  facet normal -0.972367 0.233456 0
    outer loop
      vertex 0.0918648 1.29214 1.04
      vertex 0.0917807 1.29179 1.04
      vertex 0.0918648 1.29214 1.94
    endloop
  endfacet
  facet normal -0.972367 0.233456 0
    outer loop
      vertex 0.0918648 1.29214 1.94
      vertex 0.0917807 1.29179 1.04
      vertex 0.0917807 1.29179 1.94
    endloop
  endfacet
  facet normal -0.981466 0.191636 0
    outer loop
      vertex 0.0917807 1.29179 1.04
      vertex 0.0917116 1.29143 1.04
      vertex 0.0917807 1.29179 1.94
    endloop
  endfacet
  facet normal -0.981466 0.191636 0
    outer loop
      vertex 0.0917807 1.29179 1.94
      vertex 0.0917116 1.29143 1.04
      vertex 0.0917116 1.29143 1.94
    endloop
  endfacet
  facet normal -0.988783 0.149359 0
    outer loop
      vertex 0.0917116 1.29143 1.04
      vertex 0.0916578 1.29108 1.04
      vertex 0.0917116 1.29143 1.94
    endloop
  endfacet
  facet normal -0.988783 0.149359 0
    outer loop
      vertex 0.0917116 1.29143 1.94
      vertex 0.0916578 1.29108 1.04
      vertex 0.0916578 1.29108 1.94
    endloop
  endfacet
  facet normal -0.994271 0.106892 0
    outer loop
      vertex 0.0916578 1.29108 1.04
      vertex 0.0916193 1.29072 1.04
      vertex 0.0916578 1.29108 1.94
    endloop
  endfacet
  facet normal -0.994271 0.106892 0
    outer loop
      vertex 0.0916578 1.29108 1.94
      vertex 0.0916193 1.29072 1.04
      vertex 0.0916193 1.29072 1.94
    endloop
  endfacet
  facet normal -0.997936 0.0642109 0
    outer loop
      vertex 0.0916193 1.29072 1.04
      vertex 0.0915962 1.29036 1.04
      vertex 0.0916193 1.29072 1.94
    endloop
  endfacet
  facet normal -0.997936 0.0642109 0
    outer loop
      vertex 0.0916193 1.29072 1.94
      vertex 0.0915962 1.29036 1.04
      vertex 0.0915962 1.29036 1.94
    endloop
  endfacet
  facet normal -0.999771 0.0214213 0
    outer loop
      vertex 0.0915962 1.29036 1.04
      vertex 0.0915885 1.29 1.04
      vertex 0.0915962 1.29036 1.94
    endloop
  endfacet
  facet normal -0.999771 0.0214213 0
    outer loop
      vertex 0.0915962 1.29036 1.94
      vertex 0.0915885 1.29 1.04
      vertex 0.0915885 1.29 1.94
    endloop
  endfacet
  facet normal 0.707107 -0.707107 0
    outer loop
      vertex 0.15 1.24 1.94
      vertex 0.15 1.24 1.04
      vertex 0.885391 1.97539 1.94
    endloop
  endfacet
  facet normal 0.707107 -0.707107 0
    outer loop
      vertex 0.15 1.24 1.04
      vertex 0.885391 1.97539 1.04
      vertex 0.885391 1.97539 1.94
    endloop
  endfacet
  facet normal 0 -1 0
    outer loop
      vertex 4.82 4.62433 2.03
      vertex 4.82 4.62433 0
      vertex 4.92 4.62433 2.03
    endloop
  endfacet
  facet normal 0 -1 0
    outer loop
      vertex 4.82 4.62433 0
      vertex 4.92 4.62433 0
      vertex 4.92 4.62433 2.03
    endloop
  endfacet
  facet normal 0 1 0
    outer loop
      vertex 4.92 4.965 2.76
      vertex 4.92 4.965 -0.1
      vertex 0 4.965 2.76
    endloop
  endfacet
  facet normal 0 1 0
    outer loop
      vertex 4.92 4.965 -0.1
      vertex -8.88178e-16 4.965 -0.1
      vertex 0 4.965 2.76
    endloop
  endfacet
  facet normal 0 -1 0
    outer loop
      vertex 4.16 2.92 0
      vertex 4.195 2.92 0
      vertex 4.195 2.92 0.92
    endloop
  endfacet
  facet normal 0 -1 0
    outer loop
      vertex 4.82 2.92 0.92
      vertex 4.82 2.92 1.76
      vertex 4.195 2.92 0.92
    endloop
  endfacet
  facet normal 0 -1 0
    outer loop
      vertex 4.82 2.92 1.76
      vertex 4.16 2.92 1.76
      vertex 4.195 2.92 0.92
    endloop
  endfacet
  facet normal 0 -1 0
    outer loop
      vertex 4.195 2.92 0.92
      vertex 4.16 2.92 1.76
      vertex 4.16 2.92 0
    endloop
  endfacet
  facet normal 0 -1 0
    outer loop
      vertex 0.1 4.865 2.44457e-16
      vertex 4.82 4.865 0
      vertex 0.1 4.865 2.66
    endloop
  endfacet
  facet normal 0 -1 0
    outer loop
      vertex 4.82 4.865 0
      vertex 4.82 4.865 2.66
      vertex 0.1 4.865 2.66
    endloop
  endfacet
  facet normal 0 1 0
    outer loop
      vertex 2.39077 0.355 2.66
      vertex 2.39077 0.355 0
      vertex 2.03577 0.355 2.66
    endloop
  endfacet
  facet normal 0 1 0
    outer loop
      vertex 2.39077 0.355 0
      vertex 2.03577 0.355 0
      vertex 2.03577 0.355 2.66
    endloop
  endfacet
  facet normal 0 0 -1
    outer loop
      vertex 4.92 4.965 -0.1
      vertex 4.92 -0.1 -0.1
      vertex -8.88178e-16 4.965 -0.1
    endloop
  endfacet
  facet normal 0 0 -1
    outer loop
      vertex 4.92 -0.1 -0.1
      vertex 0 -0.1 -0.1
      vertex -8.88178e-16 4.965 -0.1
    endloop
  endfacet
  facet normal 1 0 0
    outer loop
      vertex 4.92 4.965 -0.1
      vertex 4.92 4.62433 0
      vertex 4.92 3.69933 0
    endloop
  endfacet
  facet normal 1 0 0
    outer loop
      vertex 4.92 4.62433 0
      vertex 4.92 4.965 -0.1
      vertex 4.92 4.62433 2.03
    endloop
  endfacet
  facet normal 1 0 0
    outer loop
      vertex 4.92 4.965 -0.1
      vertex 4.92 4.965 2.76
      vertex 4.92 4.62433 2.03
    endloop
  endfacet
  facet normal 1 0 0
    outer loop
      vertex 4.92 4.62433 2.03
      vertex 4.92 4.965 2.76
      vertex 4.92 3.69933 2.03
    endloop
  endfacet
  facet normal 1 0 0
    outer loop
      vertex 4.92 4.965 2.76
      vertex 4.92 -0.1 2.76
      vertex 4.92 3.69933 2.03
    endloop
  endfacet
  facet normal 1 0 0
    outer loop
      vertex 4.92 3.69933 2.03
      vertex 4.92 -0.1 2.76
      vertex 4.92 3.69933 0
    endloop
  endfacet
  facet normal 1 0 0
    outer loop
      vertex 4.92 -0.1 2.76
      vertex 4.92 -0.1 -0.1
      vertex 4.92 3.69933 0
    endloop
  endfacet
  facet normal 1 0 0
    outer loop
      vertex 4.92 3.69933 0
      vertex 4.92 -0.1 -0.1
      vertex 4.92 4.965 -0.1
    endloop
  endfacet
  facet normal 0 1 0
    outer loop
      vertex 0.025 1.29 1.94
      vertex 0.0915885 1.29 1.94
      vertex 0.025 1.29 1.58
    endloop
  endfacet
  facet normal 0 1 0
    outer loop
      vertex 0.0915885 1.29 1.94
      vertex 0.0915885 1.29 1.04
      vertex 0.025 1.29 1.58
    endloop
  endfacet
  facet normal 0 1 0
    outer loop
      vertex 0.025 1.29 1.58
      vertex 0.0915885 1.29 1.04
      vertex 0 1.29 1.58
    endloop
  endfacet
  facet normal 0 1 0
    outer loop
      vertex 0.0915885 1.29 1.04
      vertex 0 1.29 1.04
      vertex 0 1.29 1.58
    endloop
  endfacet
  facet normal 7.82021e-16 1 3.06162e-16
    outer loop
      vertex 0.1 4.53572e-16 1.61
      vertex 0.1 1.32102e-16 2.66
      vertex 0.68 0 1.61
    endloop
  endfacet
  facet normal 6.82429e-17 1 -8.81158e-17
    outer loop
      vertex 0.1 1.32102e-16 2.66
      vertex 2.03577 0 2.66
      vertex 0.68 0 1.61
    endloop
  endfacet
  facet normal 0 1 0
    outer loop
      vertex 0.68 0 1.61
      vertex 2.03577 0 2.66
      vertex 0.68 0 0
    endloop
  endfacet
  facet normal 0 1 0
    outer loop
      vertex 2.03577 0 2.66
      vertex 2.03577 0 0
      vertex 0.68 0 0
    endloop
  endfacet
  facet normal 0 -1 0
    outer loop
      vertex 4.92 -0.1 2.76
      vertex 0 -0.1 2.76
      vertex 4.92 -0.1 -0.1
    endloop
  endfacet
  facet normal 0 -1 0
    outer loop
      vertex 0 -0.1 2.76
      vertex 0 -0.1 -0.1
      vertex 4.92 -0.1 -0.1
    endloop
  endfacet
  facet normal 5.17918e-17 0 1
    outer loop
      vertex 4.82 4.62433 0
      vertex 4.82 4.865 0
      vertex 0.1 4.865 2.44457e-16
    endloop
  endfacet
  facet normal 0 0 1
    outer loop
      vertex 0.68 0 0
      vertex 2.03577 0 0
      vertex 2.03577 0.355 0
    endloop
  endfacet
  facet normal 0 0 1
    outer loop
      vertex 4.16 3.62 0
      vertex 4.82 3.62 0
      vertex 4.82 3.69933 0
    endloop
  endfacet
  facet normal 0 0 1
    outer loop
      vertex 4.16 2.92 0
      vertex 4.16 3.62 0
      vertex 0.68 0.7 0
    endloop
  endfacet
  facet normal 0 0 1
    outer loop
      vertex 4.82 3.69933 0
      vertex 4.92 3.69933 0
      vertex 4.92 4.62433 0
    endloop
  endfacet
  facet normal 0 0 1
    outer loop
      vertex 2.39077 0 0
      vertex 4.195 0 0
      vertex 2.39077 0.355 0
    endloop
  endfacet
  facet normal 0 0 1
    outer loop
      vertex 4.195 0 0
      vertex 4.195 2.92 0
      vertex 2.39077 0.355 0
    endloop
  endfacet
  facet normal 0 0 1
    outer loop
      vertex 2.39077 0.355 0
      vertex 4.195 2.92 0
      vertex 2.03577 0.355 0
    endloop
  endfacet
  facet normal 0 0 1
    outer loop
      vertex 4.195 2.92 0
      vertex 4.16 2.92 0
      vertex 2.03577 0.355 0
    endloop
  endfacet
  facet normal 0 0 1
    outer loop
      vertex 2.03577 0.355 0
      vertex 4.16 2.92 0
      vertex 0.68 0 0
    endloop
  endfacet
  facet normal 0 0 1
    outer loop
      vertex 4.16 2.92 0
      vertex 0.68 0.7 0
      vertex 0.68 0 0
    endloop
  endfacet
  facet normal 0 0 1
    outer loop
      vertex 4.92 4.62433 0
      vertex 4.82 4.62433 0
      vertex 4.82 3.69933 0
    endloop
  endfacet
  facet normal 5.17918e-17 0 1
    outer loop
      vertex 4.82 4.62433 0
      vertex 0.1 4.865 2.44457e-16
      vertex 4.82 3.69933 0
    endloop
  endfacet
  facet normal 1.69557e-17 -1.41058e-16 1
    outer loop
      vertex 4.82 3.69933 0
      vertex 0.1 4.865 2.44457e-16
      vertex 4.16 3.62 0
    endloop
  endfacet
  facet normal 2.26573e-17 -1.22465e-16 1
    outer loop
      vertex 0.1 4.865 2.44457e-16
      vertex 0.1 0.7 -2.65608e-16
      vertex 4.16 3.62 0
    endloop
  endfacet
  facet normal -4.57945e-16 5.4577e-16 1
    outer loop
      vertex 4.16 3.62 0
      vertex 0.1 0.7 -2.65608e-16
      vertex 0.68 0.7 0
    endloop
  endfacet
  facet normal -1 0 0
    outer loop
      vertex 0 2.33 1.58
      vertex 0 4.965 2.76
      vertex 0 2.33 1.04
    endloop
  endfacet
  facet normal -1 -2.02713e-16 3.10552e-16
    outer loop
      vertex 0 4.965 2.76
      vertex -8.88178e-16 4.965 -0.1
      vertex 0 2.33 1.04
    endloop
  endfacet
  facet normal -1 0 7.79104e-16
    outer loop
      vertex 0 2.33 1.04
      vertex -8.88178e-16 4.965 -0.1
      vertex 0 1.29 1.04
    endloop
  endfacet
  facet normal -1 -1.75356e-16 2.13811e-16
    outer loop
      vertex -8.88178e-16 4.965 -0.1
      vertex 0 -0.1 -0.1
      vertex 0 1.29 1.04
    endloop
  endfacet
  facet normal -1 0 0
    outer loop
      vertex 0 1.29 1.04
      vertex 0 -0.1 -0.1
      vertex 0 1.29 1.58
    endloop
  endfacet
  facet normal -1 0 0
    outer loop
      vertex 0 -0.1 -0.1
      vertex 0 -0.1 2.76
      vertex 0 1.29 1.58
    endloop
  endfacet
  facet normal -1 0 0
    outer loop
      vertex 0 1.29 1.58
      vertex 0 -0.1 2.76
      vertex 0 2.33 1.58
    endloop
  endfacet
  facet normal -1 0 0
    outer loop
      vertex 0 -0.1 2.76
      vertex 0 4.965 2.76
      vertex 0 2.33 1.58
    endloop
  endfacet
  facet normal 0 0 -1
    outer loop
      vertex 0.0917116 1.29143 1.94
      vertex 0.0916578 1.29108 1.94
      vertex 0.025 1.29 1.94
    endloop
  endfacet
  facet normal 0 0 -1
    outer loop
      vertex 0.0942244 1.29612 1.94
      vertex 0.0939678 1.29586 1.94
      vertex 0.025 2.33 1.94
    endloop
  endfacet
  facet normal 0 0 -1
    outer loop
      vertex 0.0916578 1.29108 1.94
      vertex 0.0916193 1.29072 1.94
      vertex 0.025 1.29 1.94
    endloop
  endfacet
  facet normal 0 0 -1
    outer loop
      vertex 0.0916193 1.29072 1.94
      vertex 0.0915962 1.29036 1.94
      vertex 0.025 1.29 1.94
    endloop
  endfacet
  facet normal 0 0 -1
    outer loop
      vertex 0.025 1.29 1.94
      vertex 0.0915962 1.29036 1.94
      vertex 0.0915885 1.29 1.94
    endloop
  endfacet
  facet normal 0 0 -1
    outer loop
      vertex 0.0934883 1.29532 1.94
      vertex 0.0932662 1.29504 1.94
      vertex 0.025 1.29 1.94
    endloop
  endfacet
  facet normal 0 0 -1
    outer loop
      vertex 0.0932662 1.29504 1.94
      vertex 0.0930565 1.29475 1.94
      vertex 0.025 1.29 1.94
    endloop
  endfacet
  facet normal 0 0 -1
    outer loop
      vertex 0.025 1.29 1.94
      vertex 0.0930565 1.29475 1.94
      vertex 0.0928595 1.29445 1.94
    endloop
  endfacet
  facet normal 0 0 -1
    outer loop
      vertex 0.0923486 1.29349 1.94
      vertex 0.092206 1.29316 1.94
      vertex 0.025 1.29 1.94
    endloop
  endfacet
  facet normal 0 0 -1
    outer loop
      vertex 0.092206 1.29316 1.94
      vertex 0.0920776 1.29283 1.94
      vertex 0.025 1.29 1.94
    endloop
  endfacet
  facet normal 0 0 -1
    outer loop
      vertex 0.025 1.29 1.94
      vertex 0.0920776 1.29283 1.94
      vertex 0.0919638 1.29248 1.94
    endloop
  endfacet
  facet normal 0 0 -1
    outer loop
      vertex 0.0983295 1.29824 1.94
      vertex 0.097978 1.29816 1.94
      vertex 0.025 2.33 1.94
    endloop
  endfacet
  facet normal 0 0 -1
    outer loop
      vertex 0.025 2.33 1.94
      vertex 0.0939678 1.29586 1.94
      vertex 0.025 1.29 1.94
    endloop
  endfacet
  facet normal 0 0 -1
    outer loop
      vertex 0.0939678 1.29586 1.94
      vertex 0.0937223 1.2956 1.94
      vertex 0.025 1.29 1.94
    endloop
  endfacet
  facet normal 0 0 -1
    outer loop
      vertex 0.025 1.29 1.94
      vertex 0.0937223 1.2956 1.94
      vertex 0.0934883 1.29532 1.94
    endloop
  endfacet
  facet normal 0 0 -1
    outer loop
      vertex 0.0928595 1.29445 1.94
      vertex 0.0926757 1.29414 1.94
      vertex 0.025 1.29 1.94
    endloop
  endfacet
  facet normal 0 0 -1
    outer loop
      vertex 0.0926757 1.29414 1.94
      vertex 0.0925053 1.29382 1.94
      vertex 0.025 1.29 1.94
    endloop
  endfacet
  facet normal 0 0 -1
    outer loop
      vertex 0.025 1.29 1.94
      vertex 0.0925053 1.29382 1.94
      vertex 0.0923486 1.29349 1.94
    endloop
  endfacet
  facet normal 0 0 -1
    outer loop
      vertex 0.0919638 1.29248 1.94
      vertex 0.0918648 1.29214 1.94
      vertex 0.025 1.29 1.94
    endloop
  endfacet
  facet normal 0 0 -1
    outer loop
      vertex 0.0918648 1.29214 1.94
      vertex 0.0917807 1.29179 1.94
      vertex 0.025 1.29 1.94
    endloop
  endfacet
  facet normal 0 0 -1
    outer loop
      vertex 0.025 1.29 1.94
      vertex 0.0917807 1.29179 1.94
      vertex 0.0917116 1.29143 1.94
    endloop
  endfacet
  facet normal 0 0 -1
    outer loop
      vertex 0.097978 1.29816 1.94
      vertex 0.0976302 1.29807 1.94
      vertex 0.025 2.33 1.94
    endloop
  endfacet
  facet normal 0 0 -1
    outer loop
      vertex 0.0976302 1.29807 1.94
      vertex 0.0972867 1.29796 1.94
      vertex 0.025 2.33 1.94
    endloop
  endfacet
  facet normal 0 0 -1
    outer loop
      vertex 0.025 2.33 1.94
      vertex 0.0972867 1.29796 1.94
      vertex 0.0969482 1.29784 1.94
    endloop
  endfacet
  facet normal 0 0 -1
    outer loop
      vertex 0.0959688 1.29738 1.94
      vertex 0.0956563 1.2972 1.94
      vertex 0.025 2.33 1.94
    endloop
  endfacet
  facet normal 0 0 -1
    outer loop
      vertex 0.0956563 1.2972 1.94
      vertex 0.0953518 1.29701 1.94
      vertex 0.025 2.33 1.94
    endloop
  endfacet
  facet normal 0 0 -1
    outer loop
      vertex 0.025 2.33 1.94
      vertex 0.0953518 1.29701 1.94
      vertex 0.0950558 1.29681 1.94
    endloop
  endfacet
  facet normal 0 0 -1
    outer loop
      vertex 0.0969482 1.29784 1.94
      vertex 0.0966153 1.2977 1.94
      vertex 0.025 2.33 1.94
    endloop
  endfacet
  facet normal 0 0 -1
    outer loop
      vertex 0.0966153 1.2977 1.94
      vertex 0.0962887 1.29755 1.94
      vertex 0.025 2.33 1.94
    endloop
  endfacet
  facet normal 0 0 -1
    outer loop
      vertex 0.025 2.33 1.94
      vertex 0.0962887 1.29755 1.94
      vertex 0.0959688 1.29738 1.94
    endloop
  endfacet
  facet normal 0 0 -1
    outer loop
      vertex 0.0950558 1.29681 1.94
      vertex 0.0947689 1.29659 1.94
      vertex 0.025 2.33 1.94
    endloop
  endfacet
  facet normal 0 0 -1
    outer loop
      vertex 0.0947689 1.29659 1.94
      vertex 0.0944916 1.29636 1.94
      vertex 0.025 2.33 1.94
    endloop
  endfacet
  facet normal 0 0 -1
    outer loop
      vertex 0.025 2.33 1.94
      vertex 0.0944916 1.29636 1.94
      vertex 0.0942244 1.29612 1.94
    endloop
  endfacet
  facet normal 0 0 -1
    outer loop
      vertex 0.1 2.33 1.94
      vertex 0.1 1.29841 1.94
      vertex 0.025 2.33 1.94
    endloop
  endfacet
  facet normal 0 0 -1
    outer loop
      vertex 0.1 1.29841 1.94
      vertex 0.0997598 1.29841 1.94
      vertex 0.025 2.33 1.94
    endloop
  endfacet
  facet normal 0 0 -1
    outer loop
      vertex 0.025 2.33 1.94
      vertex 0.0997598 1.29841 1.94
      vertex 0.0993999 1.29839 1.94
    endloop
  endfacet
  facet normal 0 0 -1
    outer loop
      vertex 0.0993999 1.29839 1.94
      vertex 0.0990412 1.29836 1.94
      vertex 0.025 2.33 1.94
    endloop
  endfacet
  facet normal 0 0 -1
    outer loop
      vertex 0.0990412 1.29836 1.94
      vertex 0.0986841 1.29831 1.94
      vertex 0.025 2.33 1.94
    endloop
  endfacet
  facet normal 0 0 -1
    outer loop
      vertex 0.025 2.33 1.94
      vertex 0.0986841 1.29831 1.94
      vertex 0.0983295 1.29824 1.94
    endloop
  endfacet
  facet normal 0 1 0
    outer loop
      vertex 4.16 3.62 1.76
      vertex 4.82 3.62 1.76
      vertex 4.16 3.62 0
    endloop
  endfacet
  facet normal 0 1 0
    outer loop
      vertex 4.82 3.62 1.76
      vertex 4.82 3.62 0
      vertex 4.16 3.62 0
    endloop
  endfacet
  facet normal 0 0 -1
    outer loop
      vertex 2.03577 0 2.66
      vertex 0.1 1.32102e-16 2.66
      vertex 2.03577 0.355 2.66
    endloop
  endfacet
  facet normal 0 0 -1
    outer loop
      vertex 0.1 1.32102e-16 2.66
      vertex 0.1 4.865 2.66
      vertex 2.03577 0.355 2.66
    endloop
  endfacet
  facet normal 0 0 -1
    outer loop
      vertex 2.03577 0.355 2.66
      vertex 0.1 4.865 2.66
      vertex 2.39077 0.355 2.66
    endloop
  endfacet
  facet normal 0 0 -1
    outer loop
      vertex 0.1 4.865 2.66
      vertex 4.82 4.865 2.66
      vertex 2.39077 0.355 2.66
    endloop
  endfacet
  facet normal 0 0 -1
    outer loop
      vertex 2.39077 0.355 2.66
      vertex 4.82 4.865 2.66
      vertex 2.39077 0 2.66
    endloop
  endfacet
  facet normal 0 0 -1
    outer loop
      vertex 4.82 4.865 2.66
      vertex 4.82 6.93889e-17 2.66
      vertex 2.39077 0 2.66
    endloop
  endfacet
  facet normal 0 1 0
    outer loop
      vertex 0.1 0.7 1.61
      vertex 0.68 0.7 1.61
      vertex 0.1 0.7 -2.65608e-16
    endloop
  endfacet
  facet normal 0 1 0
    outer loop
      vertex 0.68 0.7 1.61
      vertex 0.68 0.7 0
      vertex 0.1 0.7 -2.65608e-16
    endloop
  endfacet
  facet normal 0 1 0
    outer loop
      vertex 4.195 0 0
      vertex 2.39077 0 0
      vertex 4.195 0 0.92
    endloop
  endfacet
  facet normal 0 1 0
    outer loop
      vertex 2.39077 0 0
      vertex 2.39077 0 2.66
      vertex 4.195 0 0.92
    endloop
  endfacet
  facet normal 0 1 0
    outer loop
      vertex 4.195 0 0.92
      vertex 2.39077 0 2.66
      vertex 4.82 0 0.92
    endloop
  endfacet
  facet normal -2.85642e-17 1 -3.98787e-17
    outer loop
      vertex 2.39077 0 2.66
      vertex 4.82 6.93889e-17 2.66
      vertex 4.82 0 0.92
    endloop
  endfacet
  facet normal 0 0 1
    outer loop
      vertex 0.0997598 1.29841 1.04
      vertex 0.1 1.29841 1.04
      vertex 0.1 2.33 1.04
    endloop
  endfacet
  facet normal 0 0 1
    outer loop
      vertex 0.0917807 1.29179 1.04
      vertex 0 1.29 1.04
      vertex 0.0917116 1.29143 1.04
    endloop
  endfacet
  facet normal 0 0 1
    outer loop
      vertex 0 1.29 1.04
      vertex 0.0916578 1.29108 1.04
      vertex 0.0917116 1.29143 1.04
    endloop
  endfacet
  facet normal 0 0 1
    outer loop
      vertex 0.0915885 1.29 1.04
      vertex 0.0915962 1.29036 1.04
      vertex 0 1.29 1.04
    endloop
  endfacet
  facet normal 0 0 1
    outer loop
      vertex 0.0915962 1.29036 1.04
      vertex 0.0916193 1.29072 1.04
      vertex 0 1.29 1.04
    endloop
  endfacet
  facet normal 0 0 1
    outer loop
      vertex 0 1.29 1.04
      vertex 0.0916193 1.29072 1.04
      vertex 0.0916578 1.29108 1.04
    endloop
  endfacet
  facet normal 0 0 1
    outer loop
      vertex 0.0923486 1.29349 1.04
      vertex 0 1.29 1.04
      vertex 0.092206 1.29316 1.04
    endloop
  endfacet
  facet normal 0 0 1
    outer loop
      vertex 0 1.29 1.04
      vertex 0.0920776 1.29283 1.04
      vertex 0.092206 1.29316 1.04
    endloop
  endfacet
  facet normal 0 0 1
    outer loop
      vertex 0.0928595 1.29445 1.04
      vertex 0.0930565 1.29475 1.04
      vertex 0 1.29 1.04
    endloop
  endfacet
  facet normal 0 0 1
    outer loop
      vertex 0.0930565 1.29475 1.04
      vertex 0.0932662 1.29504 1.04
      vertex 0 1.29 1.04
    endloop
  endfacet
  facet normal 0 0 1
    outer loop
      vertex 0 1.29 1.04
      vertex 0.0932662 1.29504 1.04
      vertex 0 2.33 1.04
    endloop
  endfacet
  facet normal 0 0 1
    outer loop
      vertex 0.0932662 1.29504 1.04
      vertex 0.0934883 1.29532 1.04
      vertex 0 2.33 1.04
    endloop
  endfacet
  facet normal 0 0 1
    outer loop
      vertex 0.0917807 1.29179 1.04
      vertex 0.0918648 1.29214 1.04
      vertex 0 1.29 1.04
    endloop
  endfacet
  facet normal 0 0 1
    outer loop
      vertex 0.0918648 1.29214 1.04
      vertex 0.0919638 1.29248 1.04
      vertex 0 1.29 1.04
    endloop
  endfacet
  facet normal 0 0 1
    outer loop
      vertex 0 1.29 1.04
      vertex 0.0919638 1.29248 1.04
      vertex 0.0920776 1.29283 1.04
    endloop
  endfacet
  facet normal 0 0 1
    outer loop
      vertex 0.0923486 1.29349 1.04
      vertex 0.0925053 1.29382 1.04
      vertex 0 1.29 1.04
    endloop
  endfacet
  facet normal 0 0 1
    outer loop
      vertex 0.0925053 1.29382 1.04
      vertex 0.0926757 1.29414 1.04
      vertex 0 1.29 1.04
    endloop
  endfacet
  facet normal 0 0 1
    outer loop
      vertex 0 1.29 1.04
      vertex 0.0926757 1.29414 1.04
      vertex 0.0928595 1.29445 1.04
    endloop
  endfacet
  facet normal 0 0 1
    outer loop
      vertex 0.0934883 1.29532 1.04
      vertex 0.0937223 1.2956 1.04
      vertex 0 2.33 1.04
    endloop
  endfacet
  facet normal 0 0 1
    outer loop
      vertex 0.0937223 1.2956 1.04
      vertex 0.0939678 1.29586 1.04
      vertex 0 2.33 1.04
    endloop
  endfacet
  facet normal 0 0 1
    outer loop
      vertex 0 2.33 1.04
      vertex 0.0939678 1.29586 1.04
      vertex 0.1 2.33 1.04
    endloop
  endfacet
  facet normal 0 0 1
    outer loop
      vertex 0.0939678 1.29586 1.04
      vertex 0.0942244 1.29612 1.04
      vertex 0.1 2.33 1.04
    endloop
  endfacet
  facet normal 0 0 1
    outer loop
      vertex 0.1 2.33 1.04
      vertex 0.0942244 1.29612 1.04
      vertex 0.0944916 1.29636 1.04
    endloop
  endfacet
  facet normal 0 0 1
    outer loop
      vertex 0.0953518 1.29701 1.04
      vertex 0.0956563 1.2972 1.04
      vertex 0.1 2.33 1.04
    endloop
  endfacet
  facet normal 0 0 1
    outer loop
      vertex 0.0956563 1.2972 1.04
      vertex 0.0959688 1.29738 1.04
      vertex 0.1 2.33 1.04
    endloop
  endfacet
  facet normal 0 0 1
    outer loop
      vertex 0.1 2.33 1.04
      vertex 0.0959688 1.29738 1.04
      vertex 0.0962887 1.29755 1.04
    endloop
  endfacet
  facet normal 0 0 1
    outer loop
      vertex 0.1 2.33 1.04
      vertex 0.0972867 1.29796 1.04
      vertex 0.0976302 1.29807 1.04
    endloop
  endfacet
  facet normal 0 0 1
    outer loop
      vertex 0.0944916 1.29636 1.04
      vertex 0.0947689 1.29659 1.04
      vertex 0.1 2.33 1.04
    endloop
  endfacet
  facet normal 0 0 1
    outer loop
      vertex 0.0947689 1.29659 1.04
      vertex 0.0950558 1.29681 1.04
      vertex 0.1 2.33 1.04
    endloop
  endfacet
  facet normal 0 0 1
    outer loop
      vertex 0.1 2.33 1.04
      vertex 0.0950558 1.29681 1.04
      vertex 0.0953518 1.29701 1.04
    endloop
  endfacet
  facet normal 0 0 1
    outer loop
      vertex 0.0962887 1.29755 1.04
      vertex 0.0966153 1.2977 1.04
      vertex 0.1 2.33 1.04
    endloop
  endfacet
  facet normal 0 0 1
    outer loop
      vertex 0.0966153 1.2977 1.04
      vertex 0.0969482 1.29784 1.04
      vertex 0.1 2.33 1.04
    endloop
  endfacet
  facet normal 0 0 1
    outer loop
      vertex 0.1 2.33 1.04
      vertex 0.0969482 1.29784 1.04
      vertex 0.0972867 1.29796 1.04
    endloop
  endfacet
  facet normal 0 0 1
    outer loop
      vertex 0.0976302 1.29807 1.04
      vertex 0.097978 1.29816 1.04
      vertex 0.1 2.33 1.04
    endloop
  endfacet
  facet normal 0 0 1
    outer loop
      vertex 0.097978 1.29816 1.04
      vertex 0.0983295 1.29824 1.04
      vertex 0.1 2.33 1.04
    endloop
  endfacet
  facet normal 0 0 1
    outer loop
      vertex 0.1 2.33 1.04
      vertex 0.0983295 1.29824 1.04
      vertex 0.0986841 1.29831 1.04
    endloop
  endfacet
  facet normal 0 0 1
    outer loop
      vertex 0.0986841 1.29831 1.04
      vertex 0.0990412 1.29836 1.04
      vertex 0.1 2.33 1.04
    endloop
  endfacet
  facet normal 0 0 1
    outer loop
      vertex 0.0990412 1.29836 1.04
      vertex 0.0993999 1.29839 1.04
      vertex 0.1 2.33 1.04
    endloop
  endfacet
  facet normal 0 0 1
    outer loop
      vertex 0.1 2.33 1.04
      vertex 0.0993999 1.29839 1.04
      vertex 0.0997598 1.29841 1.04
    endloop
  endfacet
  facet normal 0 0 -1
    outer loop
      vertex 4.82 3.69933 2.03
      vertex 4.82 4.62433 2.03
      vertex 4.92 3.69933 2.03
    endloop
  endfacet
  facet normal 0 0 -1
    outer loop
      vertex 4.82 4.62433 2.03
      vertex 4.92 4.62433 2.03
      vertex 4.92 3.69933 2.03
    endloop
  endfacet
  facet normal -1 0 0
    outer loop
      vertex 4.82 2.92 1.76
      vertex 4.82 2.92 0.92
      vertex 4.82 0 0.92
    endloop
  endfacet
  facet normal -1 0 0
    outer loop
      vertex 4.82 4.865 2.66
      vertex 4.82 4.865 0
      vertex 4.82 4.62433 0
    endloop
  endfacet
  facet normal -1 0 0
    outer loop
      vertex 4.82 4.62433 0
      vertex 4.82 4.62433 2.03
      vertex 4.82 4.865 2.66
    endloop
  endfacet
  facet normal -1 0 0
    outer loop
      vertex 4.82 4.62433 2.03
      vertex 4.82 3.69933 2.03
      vertex 4.82 4.865 2.66
    endloop
  endfacet
  facet normal -1 0 0
    outer loop
      vertex 4.82 4.865 2.66
      vertex 4.82 3.69933 2.03
      vertex 4.82 6.93889e-17 2.66
    endloop
  endfacet
  facet normal -1 0 0
    outer loop
      vertex 4.82 0 0.92
      vertex 4.82 6.93889e-17 2.66
      vertex 4.82 2.92 1.76
    endloop
  endfacet
  facet normal -1 0 0
    outer loop
      vertex 4.82 6.93889e-17 2.66
      vertex 4.82 3.69933 2.03
      vertex 4.82 2.92 1.76
    endloop
  endfacet
  facet normal -1 0 0
    outer loop
      vertex 4.82 2.92 1.76
      vertex 4.82 3.69933 2.03
      vertex 4.82 3.62 1.76
    endloop
  endfacet
  facet normal -1 0 0
    outer loop
      vertex 4.82 3.69933 2.03
      vertex 4.82 3.69933 0
      vertex 4.82 3.62 1.76
    endloop
  endfacet
  facet normal -1 0 0
    outer loop
      vertex 4.82 3.62 1.76
      vertex 4.82 3.69933 0
      vertex 4.82 3.62 0
    endloop
  endfacet
  facet normal 0 0 1
    outer loop
      vertex 0 4.965 2.76
      vertex 0 -0.1 2.76
      vertex 4.92 4.965 2.76
    endloop
  endfacet
  facet normal 0 0 1
    outer loop
      vertex 0 -0.1 2.76
      vertex 4.92 -0.1 2.76
      vertex 4.92 4.965 2.76
    endloop
  endfacet
  facet normal 1 0 0
    outer loop
      vertex 2.39077 0 0
      vertex 2.39077 0.355 0
      vertex 2.39077 0 2.66
    endloop
  endfacet
  facet normal 1 0 0
    outer loop
      vertex 2.39077 0.355 0
      vertex 2.39077 0.355 2.66
      vertex 2.39077 0 2.66
    endloop
  endfacet
  facet normal 0 0 1
    outer loop
      vertex 0.1 4.53572e-16 1.61
      vertex 0.68 0 1.61
      vertex 0.1 0.7 1.61
    endloop
  endfacet
  facet normal 0 0 1
    outer loop
      vertex 0.68 0 1.61
      vertex 0.68 0.7 1.61
      vertex 0.1 0.7 1.61
    endloop
  endfacet
  facet normal -1 0 0
    outer loop
      vertex 2.03577 0.355 2.66
      vertex 2.03577 0.355 0
      vertex 2.03577 0 2.66
    endloop
  endfacet
  facet normal -1 0 0
    outer loop
      vertex 2.03577 0.355 0
      vertex 2.03577 0 0
      vertex 2.03577 0 2.66
    endloop
  endfacet
  facet normal 1 0 0
    outer loop
      vertex 0.68 0.7 1.61
      vertex 0.68 0 1.61
      vertex 0.68 0.7 0
    endloop
  endfacet
  facet normal 1 0 0
    outer loop
      vertex 0.68 0 1.61
      vertex 0.68 0 0
      vertex 0.68 0.7 0
    endloop
  endfacet
  facet normal 1 0 0
    outer loop
      vertex 0.1 2.33 1.94
      vertex 0.1 4.865 2.66
      vertex 0.1 1.32102e-16 2.66
    endloop
  endfacet
  facet normal 1 0 0
    outer loop
      vertex 0.1 1.32102e-16 2.66
      vertex 0.1 4.53572e-16 1.61
      vertex 0.1 0.7 1.61
    endloop
  endfacet
  facet normal 1 0 0
    outer loop
      vertex 0.1 4.865 2.66
      vertex 0.1 2.33 1.94
      vertex 0.1 4.865 2.44457e-16
    endloop
  endfacet
  facet normal 1 0 0
    outer loop
      vertex 0.1 2.33 1.94
      vertex 0.1 2.33 1.04
      vertex 0.1 4.865 2.44457e-16
    endloop
  endfacet
  facet normal 1 0 0
    outer loop
      vertex 0.1 4.865 2.44457e-16
      vertex 0.1 2.33 1.04
      vertex 0.1 0.7 -2.65608e-16
    endloop
  endfacet
  facet normal 1 0 0
    outer loop
      vertex 0.1 2.33 1.04
      vertex 0.1 1.29841 1.04
      vertex 0.1 0.7 -2.65608e-16
    endloop
  endfacet
  facet normal 1 0 0
    outer loop
      vertex 0.1 1.29841 1.04
      vertex 0.1 1.28159 1.04
      vertex 0.1 0.7 -2.65608e-16
    endloop
  endfacet
  facet normal 1 0 0
    outer loop
      vertex 0.1 0.7 -2.65608e-16
      vertex 0.1 1.28159 1.04
      vertex 0.1 0.7 1.61
    endloop
  endfacet
  facet normal 1 0 0
    outer loop
      vertex 0.1 1.28159 1.04
      vertex 0.1 1.28159 1.94
      vertex 0.1 0.7 1.61
    endloop
  endfacet
  facet normal 1 0 0
    outer loop
      vertex 0.1 0.7 1.61
      vertex 0.1 1.28159 1.94
      vertex 0.1 1.32102e-16 2.66
    endloop
  endfacet
  facet normal 1 0 0
    outer loop
      vertex 0.1 1.28159 1.94
      vertex 0.1 1.29841 1.94
      vertex 0.1 1.32102e-16 2.66
    endloop
  endfacet
  facet normal 1 0 0
    outer loop
      vertex 0.1 1.32102e-16 2.66
      vertex 0.1 1.29841 1.94
      vertex 0.1 2.33 1.94
    endloop
  endfacet
  facet normal -1 0 0
    outer loop
      vertex 4.195 0 0.92
      vertex 4.195 2.92 0.92
      vertex 4.195 0 0
    endloop
  endfacet
  facet normal -1 0 0
    outer loop
      vertex 4.195 2.92 0.92
      vertex 4.195 2.92 0
      vertex 4.195 0 0
    endloop
  endfacet
  facet normal 0.707107 0.707106 0
    outer loop
      vertex 0.885391 1.97539 1.94
      vertex 0.885391 1.97539 1.04
      vertex 0.835391 2.02539 1.94
    endloop
  endfacet
  facet normal 0.707107 0.707106 0
    outer loop
      vertex 0.885391 1.97539 1.04
      vertex 0.835391 2.02539 1.04
      vertex 0.835391 2.02539 1.94
    endloop
  endfacet
  facet normal 0 0 1
    outer loop
      vertex 4.195 0 0.92
      vertex 4.82 0 0.92
      vertex 4.195 2.92 0.92
    endloop
  endfacet
  facet normal 0 0 1
    outer loop
      vertex 4.82 0 0.92
      vertex 4.82 2.92 0.92
      vertex 4.195 2.92 0.92
    endloop
  endfacet
  facet normal -1 0 0
    outer loop
      vertex 4.16 2.92 1.76
      vertex 4.16 3.62 1.76
      vertex 4.16 2.92 0
    endloop
  endfacet
  facet normal -1 0 0
    outer loop
      vertex 4.16 3.62 1.76
      vertex 4.16 3.62 0
      vertex 4.16 2.92 0
    endloop
  endfacet
  facet normal 0 -1 0
    outer loop
      vertex 0.1 2.33 1.94
      vertex 0.025 2.33 1.94
      vertex 0.025 2.33 1.58
    endloop
  endfacet
  facet normal 0 -1 0
    outer loop
      vertex 0 2.33 1.58
      vertex 0 2.33 1.04
      vertex 0.025 2.33 1.58
    endloop
  endfacet
  facet normal 0 -1 0
    outer loop
      vertex 0 2.33 1.04
      vertex 0.1 2.33 1.04
      vertex 0.025 2.33 1.58
    endloop
  endfacet
  facet normal 0 -1 0
    outer loop
      vertex 0.025 2.33 1.58
      vertex 0.1 2.33 1.04
      vertex 0.1 2.33 1.94
    endloop
  endfacet
  facet normal 0 0 1
    outer loop
      vertex 4.16 3.62 1.76
      vertex 4.16 2.92 1.76
      vertex 4.82 3.62 1.76
    endloop
  endfacet
  facet normal 0 0 1
    outer loop
      vertex 4.16 2.92 1.76
      vertex 4.82 2.92 1.76
      vertex 4.82 3.62 1.76
    endloop
  endfacet
  facet normal 0.0217636 -0.999763 0
    outer loop
      vertex 0.1 1.28159 1.94
      vertex 0.1 1.28159 1.04
      vertex 0.100367 1.2816 1.04
    endloop
  endfacet
  facet normal 0.0217636 -0.999763 0
    outer loop
      vertex 0.1 1.28159 1.94
      vertex 0.100367 1.2816 1.04
      vertex 0.100367 1.2816 1.94
    endloop
  endfacet
  facet normal 0.0656135 -0.997845 0
    outer loop
      vertex 0.100367 1.2816 1.04
      vertex 0.100733 1.28162 1.04
      vertex 0.100367 1.2816 1.94
    endloop
  endfacet
  facet normal 0.0656135 -0.997845 0
    outer loop
      vertex 0.100367 1.2816 1.94
      vertex 0.100733 1.28162 1.04
      vertex 0.100733 1.28162 1.94
    endloop
  endfacet
  facet normal 0.108818 -0.994062 0
    outer loop
      vertex 0.100733 1.28162 1.04
      vertex 0.101098 1.28166 1.04
      vertex 0.100733 1.28162 1.94
    endloop
  endfacet
  facet normal 0.108818 -0.994062 0
    outer loop
      vertex 0.100733 1.28162 1.94
      vertex 0.101098 1.28166 1.04
      vertex 0.101098 1.28166 1.94
    endloop
  endfacet
  facet normal 0.152021 -0.988377 0
    outer loop
      vertex 0.101098 1.28166 1.04
      vertex 0.101461 1.28172 1.04
      vertex 0.101098 1.28166 1.94
    endloop
  endfacet
  facet normal 0.152021 -0.988377 0
    outer loop
      vertex 0.101098 1.28166 1.94
      vertex 0.101461 1.28172 1.04
      vertex 0.101461 1.28172 1.94
    endloop
  endfacet
  facet normal 0.195218 -0.98076 0
    outer loop
      vertex 0.101461 1.28172 1.04
      vertex 0.101821 1.28179 1.04
      vertex 0.101461 1.28172 1.94
    endloop
  endfacet
  facet normal 0.195218 -0.98076 0
    outer loop
      vertex 0.101461 1.28172 1.94
      vertex 0.101821 1.28179 1.04
      vertex 0.101821 1.28179 1.94
    endloop
  endfacet
  facet normal 0.237459 -0.971398 0
    outer loop
      vertex 0.101821 1.28179 1.04
      vertex 0.102177 1.28188 1.04
      vertex 0.101821 1.28179 1.94
    endloop
  endfacet
  facet normal 0.237459 -0.971398 0
    outer loop
      vertex 0.101821 1.28179 1.94
      vertex 0.102177 1.28188 1.04
      vertex 0.102177 1.28188 1.94
    endloop
  endfacet
  facet normal 0.279988 -0.960003 0
    outer loop
      vertex 0.102177 1.28188 1.04
      vertex 0.102529 1.28198 1.04
      vertex 0.102177 1.28188 1.94
    endloop
  endfacet
  facet normal 0.279988 -0.960003 0
    outer loop
      vertex 0.102177 1.28188 1.94
      vertex 0.102529 1.28198 1.04
      vertex 0.102529 1.28198 1.94
    endloop
  endfacet
  facet normal 0.321564 -0.946888 0
    outer loop
      vertex 0.102529 1.28198 1.04
      vertex 0.102877 1.2821 1.04
      vertex 0.102529 1.28198 1.94
    endloop
  endfacet
  facet normal 0.321564 -0.946888 0
    outer loop
      vertex 0.102529 1.28198 1.94
      vertex 0.102877 1.2821 1.04
      vertex 0.102877 1.2821 1.94
    endloop
  endfacet
  facet normal 0.362215 -0.932095 0
    outer loop
      vertex 0.102877 1.2821 1.04
      vertex 0.103219 1.28223 1.04
      vertex 0.102877 1.2821 1.94
    endloop
  endfacet
  facet normal 0.362215 -0.932095 0
    outer loop
      vertex 0.102877 1.2821 1.94
      vertex 0.103219 1.28223 1.04
      vertex 0.103219 1.28223 1.94
    endloop
  endfacet
  facet normal 0.402775 -0.915299 0
    outer loop
      vertex 0.103219 1.28223 1.04
      vertex 0.103555 1.28238 1.04
      vertex 0.103219 1.28223 1.94
    endloop
  endfacet
  facet normal 0.402775 -0.915299 0
    outer loop
      vertex 0.103219 1.28223 1.94
      vertex 0.103555 1.28238 1.04
      vertex 0.103555 1.28238 1.94
    endloop
  endfacet
  facet normal 0.442392 -0.896822 0
    outer loop
      vertex 0.103555 1.28238 1.04
      vertex 0.103884 1.28254 1.04
      vertex 0.103555 1.28238 1.94
    endloop
  endfacet
  facet normal 0.442392 -0.896822 0
    outer loop
      vertex 0.103555 1.28238 1.94
      vertex 0.103884 1.28254 1.04
      vertex 0.103884 1.28254 1.94
    endloop
  endfacet
  facet normal 0.48105 -0.876693 0
    outer loop
      vertex 0.103884 1.28254 1.04
      vertex 0.104206 1.28272 1.04
      vertex 0.103884 1.28254 1.94
    endloop
  endfacet
  facet normal 0.48105 -0.876693 0
    outer loop
      vertex 0.103884 1.28254 1.94
      vertex 0.104206 1.28272 1.04
      vertex 0.104206 1.28272 1.94
    endloop
  endfacet
  facet normal 0.51875 -0.854926 0
    outer loop
      vertex 0.104206 1.28272 1.04
      vertex 0.10452 1.28291 1.04
      vertex 0.104206 1.28272 1.94
    endloop
  endfacet
  facet normal 0.51875 -0.854926 0
    outer loop
      vertex 0.104206 1.28272 1.94
      vertex 0.10452 1.28291 1.04
      vertex 0.10452 1.28291 1.94
    endloop
  endfacet
  facet normal 0.555496 -0.831519 0
    outer loop
      vertex 0.10452 1.28291 1.04
      vertex 0.104825 1.28311 1.04
      vertex 0.10452 1.28291 1.94
    endloop
  endfacet
  facet normal 0.555496 -0.831519 0
    outer loop
      vertex 0.10452 1.28291 1.94
      vertex 0.104825 1.28311 1.04
      vertex 0.104825 1.28311 1.94
    endloop
  endfacet
  facet normal 0.591229 -0.806504 0
    outer loop
      vertex 0.104825 1.28311 1.04
      vertex 0.105121 1.28333 1.04
      vertex 0.104825 1.28311 1.94
    endloop
  endfacet
  facet normal 0.591229 -0.806504 0
    outer loop
      vertex 0.104825 1.28311 1.94
      vertex 0.105121 1.28333 1.04
      vertex 0.105121 1.28333 1.94
    endloop
  endfacet
  facet normal 0.625932 -0.779878 0
    outer loop
      vertex 0.105121 1.28333 1.04
      vertex 0.105407 1.28356 1.04
      vertex 0.105121 1.28333 1.94
    endloop
  endfacet
  facet normal 0.625932 -0.779878 0
    outer loop
      vertex 0.105121 1.28333 1.94
      vertex 0.105407 1.28356 1.04
      vertex 0.105407 1.28356 1.94
    endloop
  endfacet
  facet normal 0.659369 -0.751819 0
    outer loop
      vertex 0.105407 1.28356 1.04
      vertex 0.105683 1.2838 1.04
      vertex 0.105407 1.28356 1.94
    endloop
  endfacet
  facet normal 0.659369 -0.751819 0
    outer loop
      vertex 0.105407 1.28356 1.94
      vertex 0.105683 1.2838 1.04
      vertex 0.105683 1.2838 1.94
    endloop
  endfacet
  facet normal 0.691541 -0.722338 0
    outer loop
      vertex 0.105683 1.2838 1.04
      vertex 0.105948 1.28405 1.04
      vertex 0.105683 1.2838 1.94
    endloop
  endfacet
  facet normal 0.691541 -0.722338 0
    outer loop
      vertex 0.105683 1.2838 1.94
      vertex 0.105948 1.28405 1.04
      vertex 0.105948 1.28405 1.94
    endloop
  endfacet
  facet normal 0 0 1
    outer loop
      vertex 0.885391 1.97539 1.94
      vertex 0.835391 2.02539 1.94
      vertex 0.105948 1.29595 1.94
    endloop
  endfacet
  facet normal 0 0 1
    outer loop
      vertex 0.1 1.28159 1.94
      vertex 0.105136 1.29666 1.94
      vertex 0.104847 1.29688 1.94
    endloop
  endfacet
  facet normal 0 0 1
    outer loop
      vertex 0.104847 1.29688 1.94
      vertex 0.104548 1.29708 1.94
      vertex 0.1 1.28159 1.94
    endloop
  endfacet
  facet normal 0 0 1
    outer loop
      vertex 0.104548 1.29708 1.94
      vertex 0.10424 1.29726 1.94
      vertex 0.1 1.28159 1.94
    endloop
  endfacet
  facet normal 0 0 1
    outer loop
      vertex 0.1 1.28159 1.94
      vertex 0.10424 1.29726 1.94
      vertex 0.103925 1.29744 1.94
    endloop
  endfacet
  facet normal 0 0 1
    outer loop
      vertex 0.100839 1.29837 1.94
      vertex 0.10048 1.2984 1.94
      vertex 0.1 1.28159 1.94
    endloop
  endfacet
  facet normal 0 0 1
    outer loop
      vertex 0.10048 1.2984 1.94
      vertex 0.10012 1.29841 1.94
      vertex 0.1 1.28159 1.94
    endloop
  endfacet
  facet normal 0 0 1
    outer loop
      vertex 0.1 1.28159 1.94
      vertex 0.10012 1.29841 1.94
      vertex 0.1 1.29841 1.94
    endloop
  endfacet
  facet normal 0 0 1
    outer loop
      vertex 0.103925 1.29744 1.94
      vertex 0.103603 1.2976 1.94
      vertex 0.1 1.28159 1.94
    endloop
  endfacet
  facet normal 0 0 1
    outer loop
      vertex 0.103603 1.2976 1.94
      vertex 0.103274 1.29775 1.94
      vertex 0.1 1.28159 1.94
    endloop
  endfacet
  facet normal 0 0 1
    outer loop
      vertex 0.1 1.28159 1.94
      vertex 0.103274 1.29775 1.94
      vertex 0.10294 1.29788 1.94
    endloop
  endfacet
  facet normal 0 0 1
    outer loop
      vertex 0.10294 1.29788 1.94
      vertex 0.102599 1.298 1.94
      vertex 0.1 1.28159 1.94
    endloop
  endfacet
  facet normal 0 0 1
    outer loop
      vertex 0.102599 1.298 1.94
      vertex 0.102254 1.2981 1.94
      vertex 0.1 1.28159 1.94
    endloop
  endfacet
  facet normal 0 0 1
    outer loop
      vertex 0.1 1.28159 1.94
      vertex 0.102254 1.2981 1.94
      vertex 0.101905 1.29819 1.94
    endloop
  endfacet
  facet normal 0 0 1
    outer loop
      vertex 0.101905 1.29819 1.94
      vertex 0.101553 1.29827 1.94
      vertex 0.1 1.28159 1.94
    endloop
  endfacet
  facet normal 0 0 1
    outer loop
      vertex 0.101553 1.29827 1.94
      vertex 0.101197 1.29833 1.94
      vertex 0.1 1.28159 1.94
    endloop
  endfacet
  facet normal 0 0 1
    outer loop
      vertex 0.1 1.28159 1.94
      vertex 0.101197 1.29833 1.94
      vertex 0.100839 1.29837 1.94
    endloop
  endfacet
  facet normal 0 0 1
    outer loop
      vertex 0.103884 1.28254 1.94
      vertex 0.104206 1.28272 1.94
      vertex 0.105688 1.2962 1.94
    endloop
  endfacet
  facet normal 0 0 1
    outer loop
      vertex 0.103884 1.28254 1.94
      vertex 0.105688 1.2962 1.94
      vertex 0.103555 1.28238 1.94
    endloop
  endfacet
  facet normal 0 0 1
    outer loop
      vertex 0.104206 1.28272 1.94
      vertex 0.10452 1.28291 1.94
      vertex 0.105688 1.2962 1.94
    endloop
  endfacet
  facet normal 0 0 1
    outer loop
      vertex 0.10452 1.28291 1.94
      vertex 0.104825 1.28311 1.94
      vertex 0.105688 1.2962 1.94
    endloop
  endfacet
  facet normal 0 0 1
    outer loop
      vertex 0.105688 1.2962 1.94
      vertex 0.104825 1.28311 1.94
      vertex 0.105121 1.28333 1.94
    endloop
  endfacet
  facet normal 0 0 1
    outer loop
      vertex 0.100367 1.2816 1.94
      vertex 0.105688 1.2962 1.94
      vertex 0.1 1.28159 1.94
    endloop
  endfacet
  facet normal 0 0 1
    outer loop
      vertex 0.105688 1.2962 1.94
      vertex 0.105417 1.29643 1.94
      vertex 0.1 1.28159 1.94
    endloop
  endfacet
  facet normal 0 0 1
    outer loop
      vertex 0.1 1.28159 1.94
      vertex 0.105417 1.29643 1.94
      vertex 0.105136 1.29666 1.94
    endloop
  endfacet
  facet normal 0 0 1
    outer loop
      vertex 0.100367 1.2816 1.94
      vertex 0.100733 1.28162 1.94
      vertex 0.105688 1.2962 1.94
    endloop
  endfacet
  facet normal 0 0 1
    outer loop
      vertex 0.100733 1.28162 1.94
      vertex 0.101098 1.28166 1.94
      vertex 0.105688 1.2962 1.94
    endloop
  endfacet
  facet normal 0 0 1
    outer loop
      vertex 0.105688 1.2962 1.94
      vertex 0.101098 1.28166 1.94
      vertex 0.101461 1.28172 1.94
    endloop
  endfacet
  facet normal 0 0 1
    outer loop
      vertex 0.101461 1.28172 1.94
      vertex 0.101821 1.28179 1.94
      vertex 0.105688 1.2962 1.94
    endloop
  endfacet
  facet normal 0 0 1
    outer loop
      vertex 0.101821 1.28179 1.94
      vertex 0.102177 1.28188 1.94
      vertex 0.105688 1.2962 1.94
    endloop
  endfacet
  facet normal 0 0 1
    outer loop
      vertex 0.105688 1.2962 1.94
      vertex 0.102177 1.28188 1.94
      vertex 0.102529 1.28198 1.94
    endloop
  endfacet
  facet normal 0 0 1
    outer loop
      vertex 0.15 1.24 1.94
      vertex 0.885391 1.97539 1.94
      vertex 0.105948 1.28405 1.94
    endloop
  endfacet
  facet normal 0 0 1
    outer loop
      vertex 0.885391 1.97539 1.94
      vertex 0.105948 1.29595 1.94
      vertex 0.105948 1.28405 1.94
    endloop
  endfacet
  facet normal 0 0 1
    outer loop
      vertex 0.105948 1.28405 1.94
      vertex 0.105948 1.29595 1.94
      vertex 0.105683 1.2838 1.94
    endloop
  endfacet
  facet normal 0 0 1
    outer loop
      vertex 0.105948 1.29595 1.94
      vertex 0.105688 1.2962 1.94
      vertex 0.105683 1.2838 1.94
    endloop
  endfacet
  facet normal 0 0 1
    outer loop
      vertex 0.105683 1.2838 1.94
      vertex 0.105688 1.2962 1.94
      vertex 0.105407 1.28356 1.94
    endloop
  endfacet
  facet normal 0 0 1
    outer loop
      vertex 0.105688 1.2962 1.94
      vertex 0.105121 1.28333 1.94
      vertex 0.105407 1.28356 1.94
    endloop
  endfacet
  facet normal 0 0 1
    outer loop
      vertex 0.102529 1.28198 1.94
      vertex 0.102877 1.2821 1.94
      vertex 0.105688 1.2962 1.94
    endloop
  endfacet
  facet normal 0 0 1
    outer loop
      vertex 0.102877 1.2821 1.94
      vertex 0.103219 1.28223 1.94
      vertex 0.105688 1.2962 1.94
    endloop
  endfacet
  facet normal 0 0 1
    outer loop
      vertex 0.105688 1.2962 1.94
      vertex 0.103219 1.28223 1.94
      vertex 0.103555 1.28238 1.94
    endloop
  endfacet
endsolid Mesh
