# Wavefront OBJ file written 2026-05-23T13:22:00
o interiorSurfaces_60deg_100pct_edgeMesh

# points : 214
# lines  : 251

# <points count="214">
v 1.00067 1.81 1.04
v 1.03602 1.74876 1.04
v 0.135355 1.22876 1.04
v 0.135355 1.22876 1.94
v 1.00067 1.81 1.94
v 4.92 -0.1 2.76
v 0 -0.1 2.76
v 4.92 -0.1 -0.1
v 0 -0.1 -0.1
v 4.92 4.965 2.76
v 4.92 4.965 -0.1
v 0 4.965 2.76
v -8.88178e-16 4.965 -0.1
v 4.16 2.92 1.76
v 0.68 0.7 1.61
v 1.03602 1.74876 1.94
v 4.16 3.62 1.76
v 4.82 4.865 0
v 0.1 4.865 2.44457e-16
v 0.68 0 0
v 2.03577 0 0
v 4.82 3.62 0
v 2.39077 0 0
v 4.195 0 0
v 4.195 2.92 0
v 0.1 0.7 -2.65608e-16
v 4.82 2.92 0.92
v 2.03577 0 2.66
v 0.1 1.32102e-16 2.66
v 0.1 4.865 2.66
v 4.82 4.865 2.66
v 2.39077 0 2.66
v 4.82 6.93889e-17 2.66
v 4.82 0 0.92
v 0.0915885 1.29 1.04
v 0.0915885 1.29 1.94
v 0.1 4.53572e-16 1.61
v 0.107285 1.29421 1.04
v 0.104206 1.28272 1.04
v 0.1 1.29841 1.04
v 0.1 1.28159 1.04
v 0.104206 1.28272 1.94
v 0.107285 1.29421 1.94
v 4.82 4.62433 0
v 2.03577 0.355 0
v 4.16 3.62 0
v 4.82 3.69933 0
v 4.16 2.92 0
v 0.68 0.7 0
v 4.92 3.69933 0
v 4.92 4.62433 0
v 2.39077 0.355 0
v 4.195 2.92 0.92
v 4.82 2.92 1.76
v 2.03577 0.355 2.66
v 2.39077 0.355 2.66
v 0.1 0.7 1.61
v 4.195 0 0.92
v 0.1 2.33 1.04
v 0 1.29 1.04
v 0 2.33 1.04
v 4.92 4.62433 0.676667
v 4.92 3.69933 0.676667
v 0 1.29 1.94
v 0.68 0 1.61
v 0.1 1.29841 1.94
v 4.82 3.69933 0.676667
v 4.82 4.62433 0.676667
v 0.1 2.33 1.94
v 0 2.33 1.94
v 4.82 3.62 1.76
v 0.1 1.28159 1.94
v 0.100144 1.29841 1.04
v 0.100505 1.2984 1.04
v 0.100865 1.29837 1.04
v 0.101223 1.29832 1.04
v 0.101579 1.29826 1.04
v 0.101932 1.29819 1.04
v 0.102967 1.29787 1.04
v 0.103302 1.29774 1.04
v 0.103631 1.29759 1.04
v 0.103953 1.29742 1.04
v 0.106459 1.29539 1.04
v 0.106684 1.29511 1.04
v 0.106897 1.29481 1.04
v 0.107097 1.29451 1.04
v 0.102529 1.28198 1.04
v 0.102177 1.28188 1.04
v 0.102281 1.2981 1.04
v 0.102627 1.29799 1.04
v 0.104268 1.29725 1.04
v 0.104575 1.29706 1.04
v 0.104874 1.29686 1.04
v 0.105163 1.29664 1.04
v 0.105444 1.29641 1.04
v 0.105714 1.29617 1.04
v 0.105973 1.29592 1.04
v 0.106222 1.29566 1.04
v 0.103884 1.28254 1.04
v 0.103555 1.28238 1.04
v 0.101821 1.28179 1.04
v 0.101461 1.28172 1.04
v 0.101098 1.28166 1.04
v 0.103219 1.28223 1.04
v 0.102877 1.2821 1.04
v 0.100733 1.28162 1.04
v 0.100367 1.2816 1.04
v 0.107097 1.29451 1.94
v 0.106897 1.29481 1.94
v 0.106684 1.29511 1.94
v 0.106459 1.29539 1.94
v 0.106222 1.29566 1.94
v 0.105973 1.29592 1.94
v 0.105714 1.29617 1.94
v 0.105444 1.29641 1.94
v 0.105163 1.29664 1.94
v 0.104874 1.29686 1.94
v 0.104575 1.29706 1.94
v 0.104268 1.29725 1.94
v 0.103953 1.29742 1.94
v 0.103631 1.29759 1.94
v 0.103302 1.29774 1.94
v 0.102967 1.29787 1.94
v 0.102627 1.29799 1.94
v 0.102281 1.2981 1.94
v 0.101932 1.29819 1.94
v 0.101579 1.29826 1.94
v 0.101223 1.29832 1.94
v 0.100865 1.29837 1.94
v 0.100505 1.2984 1.94
v 0.100144 1.29841 1.94
v 0.100367 1.2816 1.94
v 0.100733 1.28162 1.94
v 0.101098 1.28166 1.94
v 0.101461 1.28172 1.94
v 0.101821 1.28179 1.94
v 0.102177 1.28188 1.94
v 0.102529 1.28198 1.94
v 0.102877 1.2821 1.94
v 0.103219 1.28223 1.94
v 0.103555 1.28238 1.94
v 0.103884 1.28254 1.94
v 0.0997834 1.29841 1.04
v 0.0920794 1.29283 1.04
v 0.0922082 1.29317 1.04
v 0.0915962 1.29036 1.04
v 0.0916194 1.29072 1.04
v 0.0926796 1.29414 1.04
v 0.0928641 1.29445 1.04
v 0.0916581 1.29108 1.04
v 0.0917121 1.29144 1.04
v 0.0917814 1.29179 1.04
v 0.0918658 1.29214 1.04
v 0.0919652 1.29249 1.04
v 0.0945015 1.29637 1.04
v 0.0947797 1.2966 1.04
v 0.0950675 1.29681 1.04
v 0.0953644 1.29702 1.04
v 0.0956698 1.29721 1.04
v 0.0923513 1.2935 1.04
v 0.0925085 1.29383 1.04
v 0.0930617 1.29476 1.04
v 0.0932721 1.29505 1.04
v 0.0934949 1.29533 1.04
v 0.0937297 1.29561 1.04
v 0.0939761 1.29587 1.04
v 0.0942335 1.29612 1.04
v 0.0976491 1.29808 1.04
v 0.0979978 1.29817 1.04
v 0.0983501 1.29825 1.04
v 0.0987055 1.29831 1.04
v 0.0966316 1.29771 1.04
v 0.0969654 1.29785 1.04
v 0.0973047 1.29797 1.04
v 0.0990633 1.29836 1.04
v 0.0994228 1.29839 1.04
v 0.0959832 1.29739 1.04
v 0.096304 1.29756 1.04
v 0.0997834 1.29841 1.94
v 0.0994228 1.29839 1.94
v 0.0990633 1.29836 1.94
v 0.0987055 1.29831 1.94
v 0.0983501 1.29825 1.94
v 0.0979978 1.29817 1.94
v 0.0976491 1.29808 1.94
v 0.0973047 1.29797 1.94
v 0.0969654 1.29785 1.94
v 0.0966316 1.29771 1.94
v 0.096304 1.29756 1.94
v 0.0959832 1.29739 1.94
v 0.0956698 1.29721 1.94
v 0.0953644 1.29702 1.94
v 0.0950675 1.29681 1.94
v 0.0947797 1.2966 1.94
v 0.0945015 1.29637 1.94
v 0.0942335 1.29612 1.94
v 0.0939761 1.29587 1.94
v 0.0937297 1.29561 1.94
v 0.0934949 1.29533 1.94
v 0.0932721 1.29505 1.94
v 0.0930617 1.29476 1.94
v 0.0928641 1.29445 1.94
v 0.0926796 1.29414 1.94
v 0.0925085 1.29383 1.94
v 0.0923513 1.2935 1.94
v 0.0922082 1.29317 1.94
v 0.0920794 1.29283 1.94
v 0.0919652 1.29249 1.94
v 0.0918658 1.29214 1.94
v 0.0917814 1.29179 1.94
v 0.0917121 1.29144 1.94
v 0.0916581 1.29108 1.94
v 0.0916194 1.29072 1.94
v 0.0915962 1.29036 1.94
# </points>

# <edges count="251">
l 38 1
l 1 2
l 3 39
l 2 3
l 40 73
l 73 74
l 74 75
l 75 76
l 76 77
l 77 78
l 79 80
l 80 81
l 81 82
l 83 84
l 84 85
l 85 86
l 87 88
l 78 89
l 89 90
l 90 79
l 82 91
l 91 92
l 92 93
l 93 94
l 94 95
l 95 96
l 96 97
l 97 98
l 98 83
l 86 38
l 39 99
l 99 100
l 88 101
l 101 102
l 102 103
l 100 104
l 104 105
l 105 87
l 103 106
l 106 107
l 107 41
l 3 4
l 4 42
l 5 1
l 43 5
l 8 6
l 6 7
l 7 9
l 9 8
l 50 51
l 10 11
l 12 10
l 13 12
l 11 13
l 54 14
l 14 48
l 57 15
l 15 49
l 40 59
l 61 60
l 62 51
l 63 62
l 10 6
l 50 63
l 8 11
l 60 64
l 56 52
l 45 55
l 108 43
l 109 108
l 110 109
l 111 110
l 112 111
l 113 112
l 114 113
l 115 114
l 116 115
l 117 116
l 118 117
l 119 118
l 120 119
l 121 120
l 122 121
l 123 122
l 124 123
l 125 124
l 126 125
l 127 126
l 128 127
l 129 128
l 130 129
l 131 130
l 66 131
l 16 4
l 2 16
l 47 67
l 67 68
l 59 69
l 70 61
l 44 68
l 12 7
l 65 15
l 13 9
l 70 64
l 66 69
l 58 53
l 5 16
l 46 17
l 17 71
l 14 17
l 132 72
l 133 132
l 134 133
l 135 134
l 136 135
l 137 136
l 138 137
l 139 138
l 140 139
l 141 140
l 142 141
l 42 142
l 41 40
l 42 39
l 38 43
l 18 19
l 44 18
l 20 21
l 21 45
l 22 47
l 46 22
l 48 46
l 47 50
l 23 24
l 52 23
l 24 25
l 45 52
l 25 48
l 49 20
l 51 44
l 19 26
l 26 49
l 25 53
l 27 54
l 53 27
l 28 29
l 55 28
l 29 30
l 56 55
l 30 31
l 32 56
l 33 32
l 31 33
l 26 57
l 58 24
l 23 32
l 34 58
l 33 34
l 30 19
l 18 31
l 143 40
l 144 145
l 146 147
l 60 35
l 35 146
l 148 149
l 147 150
l 150 151
l 151 152
l 152 153
l 153 154
l 154 144
l 155 156
l 156 157
l 157 158
l 158 159
l 145 160
l 160 161
l 161 148
l 149 162
l 162 163
l 163 164
l 164 165
l 165 166
l 59 61
l 166 167
l 167 155
l 168 169
l 169 170
l 170 171
l 172 173
l 173 174
l 174 168
l 171 175
l 175 176
l 176 143
l 159 177
l 177 178
l 178 172
l 36 35
l 64 36
l 65 37
l 37 29
l 20 65
l 28 21
l 179 66
l 180 179
l 181 180
l 182 181
l 183 182
l 184 183
l 185 184
l 186 185
l 187 186
l 188 187
l 189 188
l 190 189
l 191 190
l 192 191
l 193 192
l 194 193
l 195 194
l 196 195
l 197 196
l 198 197
l 199 198
l 200 199
l 201 200
l 202 201
l 203 202
l 204 203
l 205 204
l 206 205
l 207 206
l 208 207
l 209 208
l 210 209
l 211 210
l 212 211
l 213 212
l 214 213
l 36 214
l 67 63
l 68 62
l 69 70
l 71 54
l 27 34
l 22 71
l 57 37
l 41 72
l 72 66
# </edges>
