# Wavefront OBJ file written 2026-05-23T13:19:51
o interiorSurfacesWindowOnly_edgeMesh

# points : 166
# lines  : 178

# <points count="166">
v 1.14 1.21929 1.94
v 1.14 1.21929 1.04
v 1.14 1.29 1.94
v 1.14 1.29 1.04
v 0.025 1.29 1.94
v 0.025 2.33 1.94
v 0.0915885 1.29 1.94
v 0.0915885 1.29 1.04
v 0.025 1.29 1.49
v 0.025 2.33 1.49
v 0 2.33 1.49
v 0 1.29 1.49
v 0 1.29 1.04
v 0 2.33 1.04
v 0.1 2.33 1.04
v 0.1 1.29841 1.04
v 0.1 2.33 1.94
v 0.1 1.29841 1.94
v 0.1 1.21929 1.04
v 0.1 1.21929 1.94
v 0.108412 1.29 1.94
v 0.108412 1.29 1.04
v 0.108404 1.29036 1.04
v 0.108404 1.29036 1.94
v 0.10838 1.29072 1.04
v 0.10838 1.29072 1.94
v 0.108342 1.29108 1.04
v 0.108342 1.29108 1.94
v 0.108287 1.29144 1.04
v 0.108287 1.29144 1.94
v 0.108218 1.2918 1.04
v 0.108218 1.2918 1.94
v 0.108133 1.29215 1.04
v 0.108133 1.29215 1.94
v 0.108033 1.2925 1.04
v 0.108033 1.2925 1.94
v 0.107918 1.29284 1.04
v 0.107918 1.29284 1.94
v 0.107788 1.29318 1.04
v 0.107788 1.29318 1.94
v 0.107645 1.29351 1.04
v 0.107645 1.29351 1.94
v 0.107487 1.29383 1.04
v 0.107487 1.29383 1.94
v 0.107315 1.29415 1.04
v 0.107315 1.29415 1.94
v 0.107129 1.29446 1.04
v 0.107129 1.29446 1.94
v 0.10693 1.29477 1.04
v 0.10693 1.29477 1.94
v 0.106719 1.29506 1.04
v 0.106719 1.29506 1.94
v 0.106495 1.29534 1.04
v 0.106495 1.29534 1.94
v 0.106259 1.29562 1.04
v 0.106259 1.29562 1.94
v 0.106012 1.29588 1.04
v 0.106012 1.29588 1.94
v 0.105753 1.29614 1.04
v 0.105753 1.29614 1.94
v 0.105483 1.29638 1.04
v 0.105483 1.29638 1.94
v 0.105204 1.29661 1.04
v 0.105204 1.29661 1.94
v 0.104915 1.29683 1.04
v 0.104915 1.29683 1.94
v 0.104617 1.29703 1.04
v 0.104617 1.29703 1.94
v 0.10431 1.29722 1.04
v 0.10431 1.29722 1.94
v 0.103995 1.2974 1.04
v 0.103995 1.2974 1.94
v 0.103673 1.29757 1.04
v 0.103673 1.29757 1.94
v 0.103344 1.29772 1.04
v 0.103344 1.29772 1.94
v 0.103009 1.29786 1.04
v 0.103009 1.29786 1.94
v 0.102668 1.29798 1.04
v 0.102668 1.29798 1.94
v 0.102322 1.29808 1.04
v 0.102322 1.29808 1.94
v 0.101972 1.29818 1.04
v 0.101972 1.29818 1.94
v 0.101619 1.29825 1.04
v 0.101619 1.29825 1.94
v 0.101262 1.29832 1.04
v 0.101262 1.29832 1.94
v 0.100903 1.29836 1.04
v 0.100903 1.29836 1.94
v 0.100543 1.29839 1.04
v 0.100543 1.29839 1.94
v 0.100181 1.29841 1.04
v 0.100181 1.29841 1.94
v 0.0917824 1.2918 1.04
v 0.0918673 1.29215 1.04
v 0.0919673 1.2925 1.04
v 0.0920821 1.29284 1.04
v 0.0915962 1.29036 1.04
v 0.0916196 1.29072 1.04
v 0.0916585 1.29108 1.04
v 0.0917128 1.29144 1.04
v 0.0922115 1.29318 1.04
v 0.0923554 1.29351 1.04
v 0.0925135 1.29383 1.04
v 0.0939885 1.29588 1.04
v 0.0942472 1.29614 1.04
v 0.0963271 1.29757 1.04
v 0.096656 1.29772 1.04
v 0.0969912 1.29786 1.04
v 0.0973319 1.29798 1.04
v 0.0926854 1.29415 1.04
v 0.0928709 1.29446 1.04
v 0.0930695 1.29477 1.04
v 0.093281 1.29506 1.04
v 0.093505 1.29534 1.04
v 0.0937409 1.29562 1.04
v 0.0945165 1.29638 1.04
v 0.094796 1.29661 1.04
v 0.0950852 1.29683 1.04
v 0.0953834 1.29703 1.04
v 0.0956902 1.29722 1.04
v 0.0960049 1.2974 1.04
v 0.0976776 1.29808 1.04
v 0.0980276 1.29818 1.04
v 0.0983812 1.29825 1.04
v 0.099819 1.29841 1.04
v 0.0994574 1.29839 1.04
v 0.0987378 1.29832 1.04
v 0.0990968 1.29836 1.04
v 0.0920821 1.29284 1.94
v 0.0919673 1.2925 1.94
v 0.0918673 1.29215 1.94
v 0.0917824 1.2918 1.94
v 0.0915962 1.29036 1.94
v 0.0916196 1.29072 1.94
v 0.0925135 1.29383 1.94
v 0.0923554 1.29351 1.94
v 0.0922115 1.29318 1.94
v 0.0917128 1.29144 1.94
v 0.0916585 1.29108 1.94
v 0.096656 1.29772 1.94
v 0.0963271 1.29757 1.94
v 0.0969912 1.29786 1.94
v 0.0980276 1.29818 1.94
v 0.0976776 1.29808 1.94
v 0.0973319 1.29798 1.94
v 0.0950852 1.29683 1.94
v 0.094796 1.29661 1.94
v 0.0945165 1.29638 1.94
v 0.0942472 1.29614 1.94
v 0.0939885 1.29588 1.94
v 0.0937409 1.29562 1.94
v 0.093505 1.29534 1.94
v 0.093281 1.29506 1.94
v 0.0930695 1.29477 1.94
v 0.0928709 1.29446 1.94
v 0.0926854 1.29415 1.94
v 0.0994574 1.29839 1.94
v 0.0990968 1.29836 1.94
v 0.0960049 1.2974 1.94
v 0.0956902 1.29722 1.94
v 0.0953834 1.29703 1.94
v 0.099819 1.29841 1.94
v 0.0987378 1.29832 1.94
v 0.0983812 1.29825 1.94
# </points>

# <edges count="178">
l 9 10
l 12 11
l 1 2
l 3 1
l 2 4
l 4 3
l 13 12
l 14 13
l 16 15
l 14 11
l 17 18
l 17 15
l 1 20
l 19 2
l 22 23
l 24 21
l 23 25
l 26 24
l 25 27
l 28 26
l 27 29
l 30 28
l 29 31
l 32 30
l 31 33
l 34 32
l 33 35
l 36 34
l 35 37
l 38 36
l 37 39
l 40 38
l 39 41
l 42 40
l 41 43
l 44 42
l 43 45
l 46 44
l 45 47
l 48 46
l 47 49
l 50 48
l 49 51
l 52 50
l 51 53
l 54 52
l 53 55
l 56 54
l 55 57
l 58 56
l 57 59
l 60 58
l 59 61
l 62 60
l 61 63
l 64 62
l 63 65
l 66 64
l 65 67
l 68 66
l 67 69
l 70 68
l 69 71
l 72 70
l 71 73
l 74 72
l 73 75
l 76 74
l 75 77
l 78 76
l 77 79
l 80 78
l 79 81
l 82 80
l 81 83
l 84 82
l 83 85
l 86 84
l 85 87
l 88 86
l 87 89
l 90 88
l 89 91
l 92 90
l 91 93
l 94 92
l 18 94
l 93 16
l 22 4
l 3 21
l 5 9
l 6 5
l 10 6
l 11 10
l 9 12
l 5 7
l 7 8
l 8 13
l 95 96
l 96 97
l 97 98
l 99 100
l 8 99
l 100 101
l 101 102
l 102 95
l 98 103
l 103 104
l 104 105
l 106 107
l 108 109
l 109 110
l 110 111
l 105 112
l 112 113
l 113 114
l 114 115
l 115 116
l 116 117
l 117 106
l 107 118
l 118 119
l 119 120
l 120 121
l 121 122
l 15 14
l 122 123
l 123 108
l 111 124
l 124 125
l 125 126
l 127 16
l 128 127
l 126 129
l 129 130
l 130 128
l 131 132
l 132 133
l 133 134
l 135 7
l 136 135
l 137 138
l 138 139
l 139 131
l 134 140
l 140 141
l 141 136
l 142 143
l 144 142
l 145 146
l 146 147
l 147 144
l 148 149
l 149 150
l 150 151
l 151 152
l 152 153
l 153 154
l 154 155
l 155 156
l 156 157
l 157 158
l 158 137
l 159 160
l 143 161
l 161 162
l 162 163
l 163 148
l 6 17
l 18 164
l 164 159
l 160 165
l 165 166
l 166 145
l 16 19
l 19 20
l 20 18
l 21 22
# </edges>
