# Wavefront OBJ file written 2026-05-23T13:19:51
o interiorSurfaces_90deg_50pct_edgeMesh

# points : 216
# lines  : 253

# <points count="216">
v 1.14 1.21929 1.94
v 1.14 1.21929 1.04
v 1.14 1.29 1.94
v 1.14 1.29 1.04
v 4.92 4.965 2.76
v 4.92 4.965 -0.1
v 0 4.965 2.76
v -8.88178e-16 4.965 -0.1
v 4.16 2.92 1.76
v 4.92 -0.1 2.76
v 4.92 -0.1 -0.1
v 0 -0.1 2.76
v 0 -0.1 -0.1
v 4.16 3.62 1.76
v 0.68 0.7 1.61
v 0.025 1.29 1.94
v 0.025 2.33 1.94
v 4.195 2.92 0
v 4.82 2.92 0.92
v 0.0915885 1.29 1.94
v 0.0915885 1.29 1.04
v 4.195 0 0
v 2.39077 0 0
v 2.39077 0 2.66
v 4.82 0 0.92
v 4.82 6.93889e-17 2.66
v 0.1 4.53572e-16 1.61
v 0.1 1.32102e-16 2.66
v 2.03577 0 2.66
v 0.68 0 0
v 2.03577 0 0
v 4.82 4.865 0
v 0.1 4.865 2.44457e-16
v 4.82 3.62 0
v 0.1 0.7 -2.65608e-16
v 0.1 4.865 2.66
v 4.82 4.865 2.66
v 0.025 1.29 1.49
v 0.025 2.33 1.49
v 0 2.33 1.49
v 0 1.29 1.49
v 4.16 2.92 0
v 4.195 2.92 0.92
v 4.82 2.92 1.76
v 4.92 4.62433 0
v 4.92 3.69933 0
v 4.92 4.62433 0.676667
v 4.92 3.69933 0.676667
v 0 1.29 1.04
v 4.195 0 0.92
v 0 2.33 1.04
v 0.1 2.33 1.04
v 0.1 1.29841 1.04
v 0.68 0 1.61
v 4.82 4.62433 0
v 2.03577 0.355 0
v 4.16 3.62 0
v 4.82 3.69933 0
v 0.68 0.7 0
v 2.39077 0.355 0
v 0.1 2.33 1.94
v 0.1 1.29841 1.94
v 4.82 3.62 1.76
v 2.03577 0.355 2.66
v 2.39077 0.355 2.66
v 0.1 0.7 1.61
v 4.82 4.62433 0.676667
v 4.82 3.69933 0.676667
v 0.1 1.21929 1.04
v 0.1 1.21929 1.94
v 0.108412 1.29 1.94
v 0.108412 1.29 1.04
v 0.108404 1.29036 1.04
v 0.108404 1.29036 1.94
v 0.10838 1.29072 1.04
v 0.10838 1.29072 1.94
v 0.108342 1.29108 1.04
v 0.108342 1.29108 1.94
v 0.108287 1.29144 1.04
v 0.108287 1.29144 1.94
v 0.108218 1.2918 1.04
v 0.108218 1.2918 1.94
v 0.108133 1.29215 1.04
v 0.108133 1.29215 1.94
v 0.108033 1.2925 1.04
v 0.108033 1.2925 1.94
v 0.107918 1.29284 1.04
v 0.107918 1.29284 1.94
v 0.107788 1.29318 1.04
v 0.107788 1.29318 1.94
v 0.107645 1.29351 1.04
v 0.107645 1.29351 1.94
v 0.107487 1.29383 1.04
v 0.107487 1.29383 1.94
v 0.107315 1.29415 1.04
v 0.107315 1.29415 1.94
v 0.107129 1.29446 1.04
v 0.107129 1.29446 1.94
v 0.10693 1.29477 1.04
v 0.10693 1.29477 1.94
v 0.106719 1.29506 1.04
v 0.106719 1.29506 1.94
v 0.106495 1.29534 1.04
v 0.106495 1.29534 1.94
v 0.106259 1.29562 1.04
v 0.106259 1.29562 1.94
v 0.106012 1.29588 1.04
v 0.106012 1.29588 1.94
v 0.105753 1.29614 1.04
v 0.105753 1.29614 1.94
v 0.105483 1.29638 1.04
v 0.105483 1.29638 1.94
v 0.105204 1.29661 1.04
v 0.105204 1.29661 1.94
v 0.104915 1.29683 1.04
v 0.104915 1.29683 1.94
v 0.104617 1.29703 1.04
v 0.104617 1.29703 1.94
v 0.10431 1.29722 1.04
v 0.10431 1.29722 1.94
v 0.103995 1.2974 1.04
v 0.103995 1.2974 1.94
v 0.103673 1.29757 1.04
v 0.103673 1.29757 1.94
v 0.103344 1.29772 1.04
v 0.103344 1.29772 1.94
v 0.103009 1.29786 1.04
v 0.103009 1.29786 1.94
v 0.102668 1.29798 1.04
v 0.102668 1.29798 1.94
v 0.102322 1.29808 1.04
v 0.102322 1.29808 1.94
v 0.101972 1.29818 1.04
v 0.101972 1.29818 1.94
v 0.101619 1.29825 1.04
v 0.101619 1.29825 1.94
v 0.101262 1.29832 1.04
v 0.101262 1.29832 1.94
v 0.100903 1.29836 1.04
v 0.100903 1.29836 1.94
v 0.100543 1.29839 1.04
v 0.100543 1.29839 1.94
v 0.100181 1.29841 1.04
v 0.100181 1.29841 1.94
v 0.0917824 1.2918 1.04
v 0.0918673 1.29215 1.04
v 0.0919673 1.2925 1.04
v 0.0920821 1.29284 1.04
v 0.0915962 1.29036 1.04
v 0.0916196 1.29072 1.04
v 0.0916585 1.29108 1.04
v 0.0917128 1.29144 1.04
v 0.0922115 1.29318 1.04
v 0.0923554 1.29351 1.04
v 0.0925135 1.29383 1.04
v 0.0939885 1.29588 1.04
v 0.0942472 1.29614 1.04
v 0.0963271 1.29757 1.04
v 0.096656 1.29772 1.04
v 0.0969912 1.29786 1.04
v 0.0973319 1.29798 1.04
v 0.0926854 1.29415 1.04
v 0.0928709 1.29446 1.04
v 0.0930695 1.29477 1.04
v 0.093281 1.29506 1.04
v 0.093505 1.29534 1.04
v 0.0937409 1.29562 1.04
v 0.0945165 1.29638 1.04
v 0.094796 1.29661 1.04
v 0.0950852 1.29683 1.04
v 0.0953834 1.29703 1.04
v 0.0956902 1.29722 1.04
v 0.0960049 1.2974 1.04
v 0.0976776 1.29808 1.04
v 0.0980276 1.29818 1.04
v 0.0983812 1.29825 1.04
v 0.099819 1.29841 1.04
v 0.0994574 1.29839 1.04
v 0.0987378 1.29832 1.04
v 0.0990968 1.29836 1.04
v 0.0920821 1.29284 1.94
v 0.0919673 1.2925 1.94
v 0.0918673 1.29215 1.94
v 0.0917824 1.2918 1.94
v 0.0915962 1.29036 1.94
v 0.0916196 1.29072 1.94
v 0.0925135 1.29383 1.94
v 0.0923554 1.29351 1.94
v 0.0922115 1.29318 1.94
v 0.0917128 1.29144 1.94
v 0.0916585 1.29108 1.94
v 0.096656 1.29772 1.94
v 0.0963271 1.29757 1.94
v 0.0969912 1.29786 1.94
v 0.0980276 1.29818 1.94
v 0.0976776 1.29808 1.94
v 0.0973319 1.29798 1.94
v 0.0950852 1.29683 1.94
v 0.094796 1.29661 1.94
v 0.0945165 1.29638 1.94
v 0.0942472 1.29614 1.94
v 0.0939885 1.29588 1.94
v 0.0937409 1.29562 1.94
v 0.093505 1.29534 1.94
v 0.093281 1.29506 1.94
v 0.0930695 1.29477 1.94
v 0.0928709 1.29446 1.94
v 0.0926854 1.29415 1.94
v 0.0994574 1.29839 1.94
v 0.0990968 1.29836 1.94
v 0.0960049 1.2974 1.94
v 0.0956902 1.29722 1.94
v 0.0953834 1.29703 1.94
v 0.099819 1.29841 1.94
v 0.0987378 1.29832 1.94
v 0.0983812 1.29825 1.94
# </points>

# <edges count="253">
l 38 39
l 41 40
l 1 2
l 3 1
l 2 4
l 4 3
l 5 6
l 7 5
l 8 7
l 6 8
l 44 9
l 9 42
l 45 46
l 47 45
l 48 47
l 5 10
l 46 48
l 10 11
l 11 6
l 49 41
l 51 49
l 53 52
l 10 12
l 12 13
l 13 11
l 51 40
l 8 13
l 12 7
l 61 62
l 57 14
l 14 63
l 66 15
l 15 59
l 68 67
l 55 67
l 68 58
l 60 65
l 15 54
l 56 64
l 61 52
l 50 43
l 1 70
l 69 2
l 72 73
l 74 71
l 73 75
l 76 74
l 75 77
l 78 76
l 77 79
l 80 78
l 79 81
l 82 80
l 81 83
l 84 82
l 83 85
l 86 84
l 85 87
l 88 86
l 87 89
l 90 88
l 89 91
l 92 90
l 91 93
l 94 92
l 93 95
l 96 94
l 95 97
l 98 96
l 97 99
l 100 98
l 99 101
l 102 100
l 101 103
l 104 102
l 103 105
l 106 104
l 105 107
l 108 106
l 107 109
l 110 108
l 109 111
l 112 110
l 111 113
l 114 112
l 113 115
l 116 114
l 115 117
l 118 116
l 117 119
l 120 118
l 119 121
l 122 120
l 121 123
l 124 122
l 123 125
l 126 124
l 125 127
l 128 126
l 127 129
l 130 128
l 129 131
l 132 130
l 131 133
l 134 132
l 133 135
l 136 134
l 135 137
l 138 136
l 137 139
l 140 138
l 139 141
l 142 140
l 141 143
l 144 142
l 62 144
l 143 53
l 72 4
l 9 14
l 3 71
l 16 38
l 17 16
l 39 17
l 40 39
l 38 41
l 42 18
l 18 43
l 19 44
l 43 19
l 16 20
l 20 21
l 21 49
l 22 23
l 50 22
l 23 24
l 25 50
l 24 26
l 26 25
l 145 146
l 146 147
l 147 148
l 149 150
l 21 149
l 150 151
l 151 152
l 152 145
l 148 153
l 153 154
l 154 155
l 156 157
l 158 159
l 159 160
l 160 161
l 155 162
l 162 163
l 163 164
l 164 165
l 165 166
l 166 167
l 167 156
l 157 168
l 168 169
l 169 170
l 170 171
l 171 172
l 52 51
l 172 173
l 173 158
l 161 174
l 174 175
l 175 176
l 177 53
l 178 177
l 176 179
l 179 180
l 180 178
l 54 27
l 27 28
l 28 29
l 30 54
l 31 30
l 29 31
l 32 33
l 55 32
l 31 56
l 57 34
l 34 58
l 42 57
l 58 46
l 60 23
l 22 18
l 56 60
l 59 30
l 45 55
l 33 35
l 35 59
l 36 33
l 37 36
l 32 37
l 181 182
l 182 183
l 183 184
l 185 20
l 186 185
l 187 188
l 188 189
l 189 181
l 184 190
l 190 191
l 191 186
l 192 193
l 194 192
l 195 196
l 196 197
l 197 194
l 198 199
l 199 200
l 200 201
l 201 202
l 202 203
l 203 204
l 204 205
l 205 206
l 206 207
l 207 208
l 208 187
l 209 210
l 193 211
l 211 212
l 212 213
l 213 198
l 17 61
l 62 214
l 214 209
l 210 215
l 215 216
l 216 195
l 63 34
l 64 29
l 28 36
l 65 64
l 24 65
l 37 26
l 35 66
l 67 47
l 48 68
l 63 44
l 19 25
l 66 27
l 53 69
l 69 70
l 70 62
l 71 72
# </edges>
