solid Mesh
  facet normal 1 0 0
    outer loop
      vertex 1.14 1.21929 1.94
      vertex 1.14 1.21929 1.04
      vertex 1.14 1.29 1.94
    endloop
  endfacet
  facet normal 1 0 0
    outer loop
      vertex 1.14 1.21929 1.04
      vertex 1.14 1.29 1.04
      vertex 1.14 1.29 1.94
    endloop
  endfacet
  facet normal 0 -1 0
    outer loop
      vertex 4.92 -0.1 2.76
      vertex 0 -0.1 2.76
      vertex 4.92 -0.1 -0.1
    endloop
  endfacet
  facet normal 0 -1 0
    outer loop
      vertex 0 -0.1 2.76
      vertex 0 -0.1 -0.1
      vertex 4.92 -0.1 -0.1
    endloop
  endfacet
  facet normal 5.17918e-17 0 1
    outer loop
      vertex 4.82 4.62433 0
      vertex 4.82 4.865 0
      vertex 0.1 4.865 2.44457e-16
    endloop
  endfacet
  facet normal 0 0 1
    outer loop
      vertex 0.68 0 0
      vertex 2.03577 0 0
      vertex 2.03577 0.355 0
    endloop
  endfacet
  facet normal 0 0 1
    outer loop
      vertex 4.16 3.62 0
      vertex 4.82 3.62 0
      vertex 4.82 3.69933 0
    endloop
  endfacet
  facet normal 0 0 1
    outer loop
      vertex 4.16 2.92 0
      vertex 4.16 3.62 0
      vertex 0.68 0.7 0
    endloop
  endfacet
  facet normal 0 0 1
    outer loop
      vertex 4.82 3.69933 0
      vertex 4.92 3.69933 0
      vertex 4.92 4.62433 0
    endloop
  endfacet
  facet normal 0 0 1
    outer loop
      vertex 2.39077 0 0
      vertex 4.195 0 0
      vertex 2.39077 0.355 0
    endloop
  endfacet
  facet normal 0 0 1
    outer loop
      vertex 4.195 0 0
      vertex 4.195 2.92 0
      vertex 2.39077 0.355 0
    endloop
  endfacet
  facet normal 0 0 1
    outer loop
      vertex 2.39077 0.355 0
      vertex 4.195 2.92 0
      vertex 2.03577 0.355 0
    endloop
  endfacet
  facet normal 0 0 1
    outer loop
      vertex 4.195 2.92 0
      vertex 4.16 2.92 0
      vertex 2.03577 0.355 0
    endloop
  endfacet
  facet normal 0 0 1
    outer loop
      vertex 2.03577 0.355 0
      vertex 4.16 2.92 0
      vertex 0.68 0 0
    endloop
  endfacet
  facet normal 0 0 1
    outer loop
      vertex 4.16 2.92 0
      vertex 0.68 0.7 0
      vertex 0.68 0 0
    endloop
  endfacet
  facet normal 0 0 1
    outer loop
      vertex 4.92 4.62433 0
      vertex 4.82 4.62433 0
      vertex 4.82 3.69933 0
    endloop
  endfacet
  facet normal 5.17918e-17 0 1
    outer loop
      vertex 4.82 4.62433 0
      vertex 0.1 4.865 2.44457e-16
      vertex 4.82 3.69933 0
    endloop
  endfacet
  facet normal 1.69557e-17 -1.41058e-16 1
    outer loop
      vertex 4.82 3.69933 0
      vertex 0.1 4.865 2.44457e-16
      vertex 4.16 3.62 0
    endloop
  endfacet
  facet normal 2.26573e-17 -1.22465e-16 1
    outer loop
      vertex 0.1 4.865 2.44457e-16
      vertex 0.1 0.7 -2.65608e-16
      vertex 4.16 3.62 0
    endloop
  endfacet
  facet normal -4.57945e-16 5.4577e-16 1
    outer loop
      vertex 4.16 3.62 0
      vertex 0.1 0.7 -2.65608e-16
      vertex 0.68 0.7 0
    endloop
  endfacet
  facet normal 0 1 0
    outer loop
      vertex 4.92 4.965 2.76
      vertex 4.92 4.965 -0.1
      vertex 0 4.965 2.76
    endloop
  endfacet
  facet normal 0 1 0
    outer loop
      vertex 4.92 4.965 -0.1
      vertex -8.88178e-16 4.965 -0.1
      vertex 0 4.965 2.76
    endloop
  endfacet
  facet normal 0 -1 0
    outer loop
      vertex 4.16 2.92 0
      vertex 4.195 2.92 0
      vertex 4.195 2.92 0.92
    endloop
  endfacet
  facet normal 0 -1 0
    outer loop
      vertex 4.82 2.92 0.92
      vertex 4.82 2.92 1.76
      vertex 4.195 2.92 0.92
    endloop
  endfacet
  facet normal 0 -1 0
    outer loop
      vertex 4.82 2.92 1.76
      vertex 4.16 2.92 1.76
      vertex 4.195 2.92 0.92
    endloop
  endfacet
  facet normal 0 -1 0
    outer loop
      vertex 4.195 2.92 0.92
      vertex 4.16 2.92 1.76
      vertex 4.16 2.92 0
    endloop
  endfacet
  facet normal 0 0 -1
    outer loop
      vertex 2.03577 0 2.66
      vertex 0.1 1.32102e-16 2.66
      vertex 2.03577 0.355 2.66
    endloop
  endfacet
  facet normal 0 0 -1
    outer loop
      vertex 0.1 1.32102e-16 2.66
      vertex 0.1 4.865 2.66
      vertex 2.03577 0.355 2.66
    endloop
  endfacet
  facet normal 0 0 -1
    outer loop
      vertex 2.03577 0.355 2.66
      vertex 0.1 4.865 2.66
      vertex 2.39077 0.355 2.66
    endloop
  endfacet
  facet normal 0 0 -1
    outer loop
      vertex 0.1 4.865 2.66
      vertex 4.82 4.865 2.66
      vertex 2.39077 0.355 2.66
    endloop
  endfacet
  facet normal 0 0 -1
    outer loop
      vertex 2.39077 0.355 2.66
      vertex 4.82 4.865 2.66
      vertex 2.39077 0 2.66
    endloop
  endfacet
  facet normal 0 0 -1
    outer loop
      vertex 4.82 4.865 2.66
      vertex 4.82 6.93889e-17 2.66
      vertex 2.39077 0 2.66
    endloop
  endfacet
  facet normal 0 1 0
    outer loop
      vertex 0.1 0.7 1.61
      vertex 0.68 0.7 1.61
      vertex 0.1 0.7 -2.65608e-16
    endloop
  endfacet
  facet normal 0 1 0
    outer loop
      vertex 0.68 0.7 1.61
      vertex 0.68 0.7 0
      vertex 0.1 0.7 -2.65608e-16
    endloop
  endfacet
  facet normal 0 1 0
    outer loop
      vertex 4.195 0 0
      vertex 2.39077 0 0
      vertex 4.195 0 0.92
    endloop
  endfacet
  facet normal 0 1 0
    outer loop
      vertex 2.39077 0 0
      vertex 2.39077 0 2.66
      vertex 4.195 0 0.92
    endloop
  endfacet
  facet normal 0 1 0
    outer loop
      vertex 4.195 0 0.92
      vertex 2.39077 0 2.66
      vertex 4.82 0 0.92
    endloop
  endfacet
  facet normal -2.85642e-17 1 -3.98787e-17
    outer loop
      vertex 2.39077 0 2.66
      vertex 4.82 6.93889e-17 2.66
      vertex 4.82 0 0.92
    endloop
  endfacet
  facet normal 0 -1 0
    outer loop
      vertex 0.1 4.865 2.44457e-16
      vertex 4.82 4.865 0
      vertex 0.1 4.865 2.66
    endloop
  endfacet
  facet normal 0 -1 0
    outer loop
      vertex 4.82 4.865 0
      vertex 4.82 4.865 2.66
      vertex 0.1 4.865 2.66
    endloop
  endfacet
  facet normal 0 0 1
    outer loop
      vertex 0.0917824 1.2918 1.04
      vertex 0.0918673 1.29215 1.04
      vertex 0 1.29 1.04
    endloop
  endfacet
  facet normal 0 0 1
    outer loop
      vertex 0.0918673 1.29215 1.04
      vertex 0.0919673 1.2925 1.04
      vertex 0 1.29 1.04
    endloop
  endfacet
  facet normal 0 0 1
    outer loop
      vertex 0 1.29 1.04
      vertex 0.0919673 1.2925 1.04
      vertex 0.0920821 1.29284 1.04
    endloop
  endfacet
  facet normal 0 0 1
    outer loop
      vertex 0.0916196 1.29072 1.04
      vertex 0 1.29 1.04
      vertex 0.0915962 1.29036 1.04
    endloop
  endfacet
  facet normal 0 0 1
    outer loop
      vertex 0 1.29 1.04
      vertex 0.0915885 1.29 1.04
      vertex 0.0915962 1.29036 1.04
    endloop
  endfacet
  facet normal 0 0 1
    outer loop
      vertex 0.0916196 1.29072 1.04
      vertex 0.0916585 1.29108 1.04
      vertex 0 1.29 1.04
    endloop
  endfacet
  facet normal 0 0 1
    outer loop
      vertex 0.0916585 1.29108 1.04
      vertex 0.0917128 1.29144 1.04
      vertex 0 1.29 1.04
    endloop
  endfacet
  facet normal 0 0 1
    outer loop
      vertex 0 1.29 1.04
      vertex 0.0917128 1.29144 1.04
      vertex 0.0917824 1.2918 1.04
    endloop
  endfacet
  facet normal 0 0 1
    outer loop
      vertex 0.0920821 1.29284 1.04
      vertex 0.0922115 1.29318 1.04
      vertex 0 1.29 1.04
    endloop
  endfacet
  facet normal 0 0 1
    outer loop
      vertex 0.0922115 1.29318 1.04
      vertex 0.0923554 1.29351 1.04
      vertex 0 1.29 1.04
    endloop
  endfacet
  facet normal 0 0 1
    outer loop
      vertex 0 1.29 1.04
      vertex 0.0923554 1.29351 1.04
      vertex 0.0925135 1.29383 1.04
    endloop
  endfacet
  facet normal 0 0 1
    outer loop
      vertex 0.0939885 1.29588 1.04
      vertex 0.0942472 1.29614 1.04
      vertex 0 2.33 1.04
    endloop
  endfacet
  facet normal 0 0 1
    outer loop
      vertex 0.0963271 1.29757 1.04
      vertex 0.096656 1.29772 1.04
      vertex 0.1 2.33 1.04
    endloop
  endfacet
  facet normal 0 0 1
    outer loop
      vertex 0.096656 1.29772 1.04
      vertex 0.0969912 1.29786 1.04
      vertex 0.1 2.33 1.04
    endloop
  endfacet
  facet normal 0 0 1
    outer loop
      vertex 0.1 2.33 1.04
      vertex 0.0969912 1.29786 1.04
      vertex 0.0973319 1.29798 1.04
    endloop
  endfacet
  facet normal 0 0 1
    outer loop
      vertex 0.0925135 1.29383 1.04
      vertex 0.0926854 1.29415 1.04
      vertex 0 1.29 1.04
    endloop
  endfacet
  facet normal 0 0 1
    outer loop
      vertex 0.0926854 1.29415 1.04
      vertex 0.0928709 1.29446 1.04
      vertex 0 1.29 1.04
    endloop
  endfacet
  facet normal 0 0 1
    outer loop
      vertex 0 1.29 1.04
      vertex 0.0928709 1.29446 1.04
      vertex 0.0930695 1.29477 1.04
    endloop
  endfacet
  facet normal 0 0 1
    outer loop
      vertex 0.0930695 1.29477 1.04
      vertex 0.093281 1.29506 1.04
      vertex 0 1.29 1.04
    endloop
  endfacet
  facet normal 0 0 1
    outer loop
      vertex 0.093281 1.29506 1.04
      vertex 0.093505 1.29534 1.04
      vertex 0 1.29 1.04
    endloop
  endfacet
  facet normal 0 0 1
    outer loop
      vertex 0 1.29 1.04
      vertex 0.093505 1.29534 1.04
      vertex 0 2.33 1.04
    endloop
  endfacet
  facet normal 0 0 1
    outer loop
      vertex 0.093505 1.29534 1.04
      vertex 0.0937409 1.29562 1.04
      vertex 0 2.33 1.04
    endloop
  endfacet
  facet normal 0 0 1
    outer loop
      vertex 0 2.33 1.04
      vertex 0.0937409 1.29562 1.04
      vertex 0.0939885 1.29588 1.04
    endloop
  endfacet
  facet normal 0 0 1
    outer loop
      vertex 0.0942472 1.29614 1.04
      vertex 0.0945165 1.29638 1.04
      vertex 0 2.33 1.04
    endloop
  endfacet
  facet normal 0 0 1
    outer loop
      vertex 0.0945165 1.29638 1.04
      vertex 0.094796 1.29661 1.04
      vertex 0 2.33 1.04
    endloop
  endfacet
  facet normal 0 0 1
    outer loop
      vertex 0 2.33 1.04
      vertex 0.094796 1.29661 1.04
      vertex 0.0950852 1.29683 1.04
    endloop
  endfacet
  facet normal 0 0 1
    outer loop
      vertex 0.0950852 1.29683 1.04
      vertex 0.0953834 1.29703 1.04
      vertex 0 2.33 1.04
    endloop
  endfacet
  facet normal 0 0 1
    outer loop
      vertex 0.0953834 1.29703 1.04
      vertex 0.0956902 1.29722 1.04
      vertex 0 2.33 1.04
    endloop
  endfacet
  facet normal 0 0 1
    outer loop
      vertex 0 2.33 1.04
      vertex 0.0956902 1.29722 1.04
      vertex 0.1 2.33 1.04
    endloop
  endfacet
  facet normal 0 0 1
    outer loop
      vertex 0.0956902 1.29722 1.04
      vertex 0.0960049 1.2974 1.04
      vertex 0.1 2.33 1.04
    endloop
  endfacet
  facet normal 0 0 1
    outer loop
      vertex 0.1 2.33 1.04
      vertex 0.0960049 1.2974 1.04
      vertex 0.0963271 1.29757 1.04
    endloop
  endfacet
  facet normal 0 0 1
    outer loop
      vertex 0.0973319 1.29798 1.04
      vertex 0.0976776 1.29808 1.04
      vertex 0.1 2.33 1.04
    endloop
  endfacet
  facet normal 0 0 1
    outer loop
      vertex 0.0976776 1.29808 1.04
      vertex 0.0980276 1.29818 1.04
      vertex 0.1 2.33 1.04
    endloop
  endfacet
  facet normal 0 0 1
    outer loop
      vertex 0.1 2.33 1.04
      vertex 0.0980276 1.29818 1.04
      vertex 0.0983812 1.29825 1.04
    endloop
  endfacet
  facet normal 0 0 1
    outer loop
      vertex 0.1 1.29841 1.04
      vertex 0.1 2.33 1.04
      vertex 0.099819 1.29841 1.04
    endloop
  endfacet
  facet normal 0 0 1
    outer loop
      vertex 0.1 2.33 1.04
      vertex 0.0994574 1.29839 1.04
      vertex 0.099819 1.29841 1.04
    endloop
  endfacet
  facet normal 0 0 1
    outer loop
      vertex 0.0983812 1.29825 1.04
      vertex 0.0987378 1.29832 1.04
      vertex 0.1 2.33 1.04
    endloop
  endfacet
  facet normal 0 0 1
    outer loop
      vertex 0.0987378 1.29832 1.04
      vertex 0.0990968 1.29836 1.04
      vertex 0.1 2.33 1.04
    endloop
  endfacet
  facet normal 0 0 1
    outer loop
      vertex 0.1 2.33 1.04
      vertex 0.0990968 1.29836 1.04
      vertex 0.0994574 1.29839 1.04
    endloop
  endfacet
  facet normal 1 0 0
    outer loop
      vertex 4.92 4.965 -0.1
      vertex 4.92 4.62433 0
      vertex 4.92 3.69933 0
    endloop
  endfacet
  facet normal 1 0 0
    outer loop
      vertex 4.92 4.62433 0
      vertex 4.92 4.965 -0.1
      vertex 4.92 4.62433 0.676667
    endloop
  endfacet
  facet normal 1 0 0
    outer loop
      vertex 4.92 4.965 -0.1
      vertex 4.92 4.965 2.76
      vertex 4.92 4.62433 0.676667
    endloop
  endfacet
  facet normal 1 0 0
    outer loop
      vertex 4.92 4.62433 0.676667
      vertex 4.92 4.965 2.76
      vertex 4.92 3.69933 0.676667
    endloop
  endfacet
  facet normal 1 0 0
    outer loop
      vertex 4.92 4.965 2.76
      vertex 4.92 -0.1 2.76
      vertex 4.92 3.69933 0.676667
    endloop
  endfacet
  facet normal 1 0 0
    outer loop
      vertex 4.92 3.69933 0.676667
      vertex 4.92 -0.1 2.76
      vertex 4.92 3.69933 0
    endloop
  endfacet
  facet normal 1 0 0
    outer loop
      vertex 4.92 -0.1 2.76
      vertex 4.92 -0.1 -0.1
      vertex 4.92 3.69933 0
    endloop
  endfacet
  facet normal 1 0 0
    outer loop
      vertex 4.92 3.69933 0
      vertex 4.92 -0.1 -0.1
      vertex 4.92 4.965 -0.1
    endloop
  endfacet
  facet normal 0 1 0
    outer loop
      vertex 0.0915885 1.29 1.04
      vertex 0 1.29 1.04
      vertex 0.0915885 1.29 1.94
    endloop
  endfacet
  facet normal 0 1 0
    outer loop
      vertex 0 1.29 1.04
      vertex 0 1.29 1.94
      vertex 0.0915885 1.29 1.94
    endloop
  endfacet
  facet normal 0 1 0
    outer loop
      vertex 2.39077 0.355 2.66
      vertex 2.39077 0.355 0
      vertex 2.03577 0.355 2.66
    endloop
  endfacet
  facet normal 0 1 0
    outer loop
      vertex 2.39077 0.355 0
      vertex 2.03577 0.355 0
      vertex 2.03577 0.355 2.66
    endloop
  endfacet
  facet normal 7.82021e-16 1 3.06162e-16
    outer loop
      vertex 0.1 4.53572e-16 1.61
      vertex 0.1 1.32102e-16 2.66
      vertex 0.68 0 1.61
    endloop
  endfacet
  facet normal 6.82429e-17 1 -8.81158e-17
    outer loop
      vertex 0.1 1.32102e-16 2.66
      vertex 2.03577 0 2.66
      vertex 0.68 0 1.61
    endloop
  endfacet
  facet normal 0 1 0
    outer loop
      vertex 0.68 0 1.61
      vertex 2.03577 0 2.66
      vertex 0.68 0 0
    endloop
  endfacet
  facet normal 0 1 0
    outer loop
      vertex 2.03577 0 2.66
      vertex 2.03577 0 0
      vertex 0.68 0 0
    endloop
  endfacet
  facet normal 0 0 -1
    outer loop
      vertex 4.92 4.62433 0.676667
      vertex 4.92 3.69933 0.676667
      vertex 4.82 4.62433 0.676667
    endloop
  endfacet
  facet normal 0 0 -1
    outer loop
      vertex 4.92 3.69933 0.676667
      vertex 4.82 3.69933 0.676667
      vertex 4.82 4.62433 0.676667
    endloop
  endfacet
  facet normal 0 -1 0
    outer loop
      vertex 0.1 2.33 1.04
      vertex 0.1 2.33 1.94
      vertex 0 2.33 1.04
    endloop
  endfacet
  facet normal 0 -1 0
    outer loop
      vertex 0.1 2.33 1.94
      vertex 0 2.33 1.94
      vertex 0 2.33 1.04
    endloop
  endfacet
  facet normal -1 0 0
    outer loop
      vertex 4.82 4.865 0
      vertex 4.82 4.62433 0
      vertex 4.82 4.62433 0.676667
    endloop
  endfacet
  facet normal -1 0 0
    outer loop
      vertex 4.82 4.865 2.66
      vertex 4.82 3.62 1.76
      vertex 4.82 2.92 1.76
    endloop
  endfacet
  facet normal -1 0 0
    outer loop
      vertex 4.82 2.92 0.92
      vertex 4.82 0 0.92
      vertex 4.82 2.92 1.76
    endloop
  endfacet
  facet normal -1 0 0
    outer loop
      vertex 4.82 0 0.92
      vertex 4.82 6.93889e-17 2.66
      vertex 4.82 2.92 1.76
    endloop
  endfacet
  facet normal -1 0 0
    outer loop
      vertex 4.82 2.92 1.76
      vertex 4.82 6.93889e-17 2.66
      vertex 4.82 4.865 2.66
    endloop
  endfacet
  facet normal -1 0 0
    outer loop
      vertex 4.82 3.69933 0
      vertex 4.82 3.62 0
      vertex 4.82 3.69933 0.676667
    endloop
  endfacet
  facet normal -1 0 0
    outer loop
      vertex 4.82 3.62 0
      vertex 4.82 3.62 1.76
      vertex 4.82 3.69933 0.676667
    endloop
  endfacet
  facet normal -1 0 0
    outer loop
      vertex 4.82 3.69933 0.676667
      vertex 4.82 3.62 1.76
      vertex 4.82 4.62433 0.676667
    endloop
  endfacet
  facet normal -1 0 0
    outer loop
      vertex 4.82 3.62 1.76
      vertex 4.82 4.865 2.66
      vertex 4.82 4.62433 0.676667
    endloop
  endfacet
  facet normal -1 0 0
    outer loop
      vertex 4.82 4.62433 0.676667
      vertex 4.82 4.865 2.66
      vertex 4.82 4.865 0
    endloop
  endfacet
  facet normal 0 0 1
    outer loop
      vertex 0 4.965 2.76
      vertex 0 -0.1 2.76
      vertex 4.92 4.965 2.76
    endloop
  endfacet
  facet normal 0 0 1
    outer loop
      vertex 0 -0.1 2.76
      vertex 4.92 -0.1 2.76
      vertex 4.92 4.965 2.76
    endloop
  endfacet
  facet normal 1 0 0
    outer loop
      vertex 2.39077 0 0
      vertex 2.39077 0.355 0
      vertex 2.39077 0 2.66
    endloop
  endfacet
  facet normal 1 0 0
    outer loop
      vertex 2.39077 0.355 0
      vertex 2.39077 0.355 2.66
      vertex 2.39077 0 2.66
    endloop
  endfacet
  facet normal 0 0 1
    outer loop
      vertex 0.1 4.53572e-16 1.61
      vertex 0.68 0 1.61
      vertex 0.1 0.7 1.61
    endloop
  endfacet
  facet normal 0 0 1
    outer loop
      vertex 0.68 0 1.61
      vertex 0.68 0.7 1.61
      vertex 0.1 0.7 1.61
    endloop
  endfacet
  facet normal -1 0 0
    outer loop
      vertex 2.03577 0.355 2.66
      vertex 2.03577 0.355 0
      vertex 2.03577 0 2.66
    endloop
  endfacet
  facet normal -1 0 0
    outer loop
      vertex 2.03577 0.355 0
      vertex 2.03577 0 0
      vertex 2.03577 0 2.66
    endloop
  endfacet
  facet normal -1 0 7.79104e-16
    outer loop
      vertex 0 2.33 1.04
      vertex -8.88178e-16 4.965 -0.1
      vertex 0 1.29 1.04
    endloop
  endfacet
  facet normal -1 -1.75356e-16 2.13811e-16
    outer loop
      vertex -8.88178e-16 4.965 -0.1
      vertex 0 -0.1 -0.1
      vertex 0 1.29 1.04
    endloop
  endfacet
  facet normal -1 0 0
    outer loop
      vertex 0 1.29 1.04
      vertex 0 -0.1 -0.1
      vertex 0 1.29 1.94
    endloop
  endfacet
  facet normal -1 0 0
    outer loop
      vertex 0 -0.1 -0.1
      vertex 0 -0.1 2.76
      vertex 0 1.29 1.94
    endloop
  endfacet
  facet normal -1 0 0
    outer loop
      vertex 0 1.29 1.94
      vertex 0 -0.1 2.76
      vertex 0 2.33 1.94
    endloop
  endfacet
  facet normal -1 0 0
    outer loop
      vertex 0 -0.1 2.76
      vertex 0 4.965 2.76
      vertex 0 2.33 1.94
    endloop
  endfacet
  facet normal -1 0 0
    outer loop
      vertex 0 2.33 1.94
      vertex 0 4.965 2.76
      vertex 0 2.33 1.04
    endloop
  endfacet
  facet normal -1 -2.02713e-16 3.10552e-16
    outer loop
      vertex 0 4.965 2.76
      vertex -8.88178e-16 4.965 -0.1
      vertex 0 2.33 1.04
    endloop
  endfacet
  facet normal 1 0 0
    outer loop
      vertex 0.68 0.7 1.61
      vertex 0.68 0 1.61
      vertex 0.68 0.7 0
    endloop
  endfacet
  facet normal 1 0 0
    outer loop
      vertex 0.68 0 1.61
      vertex 0.68 0 0
      vertex 0.68 0.7 0
    endloop
  endfacet
  facet normal 1 0 0
    outer loop
      vertex 0.1 2.33 1.94
      vertex 0.1 4.865 2.66
      vertex 0.1 1.32102e-16 2.66
    endloop
  endfacet
  facet normal 1 0 0
    outer loop
      vertex 0.1 1.32102e-16 2.66
      vertex 0.1 4.53572e-16 1.61
      vertex 0.1 0.7 1.61
    endloop
  endfacet
  facet normal 1 0 0
    outer loop
      vertex 0.1 4.865 2.66
      vertex 0.1 2.33 1.94
      vertex 0.1 4.865 2.44457e-16
    endloop
  endfacet
  facet normal 1 0 0
    outer loop
      vertex 0.1 2.33 1.94
      vertex 0.1 2.33 1.04
      vertex 0.1 4.865 2.44457e-16
    endloop
  endfacet
  facet normal 1 0 0
    outer loop
      vertex 0.1 4.865 2.44457e-16
      vertex 0.1 2.33 1.04
      vertex 0.1 0.7 -2.65608e-16
    endloop
  endfacet
  facet normal 1 0 0
    outer loop
      vertex 0.1 2.33 1.04
      vertex 0.1 1.29841 1.04
      vertex 0.1 0.7 -2.65608e-16
    endloop
  endfacet
  facet normal 1 0 0
    outer loop
      vertex 0.1 1.29841 1.04
      vertex 0.1 1.21929 1.04
      vertex 0.1 0.7 -2.65608e-16
    endloop
  endfacet
  facet normal 1 0 0
    outer loop
      vertex 0.1 0.7 -2.65608e-16
      vertex 0.1 1.21929 1.04
      vertex 0.1 0.7 1.61
    endloop
  endfacet
  facet normal 1 0 0
    outer loop
      vertex 0.1 1.21929 1.04
      vertex 0.1 1.21929 1.94
      vertex 0.1 0.7 1.61
    endloop
  endfacet
  facet normal 1 0 0
    outer loop
      vertex 0.1 0.7 1.61
      vertex 0.1 1.21929 1.94
      vertex 0.1 1.32102e-16 2.66
    endloop
  endfacet
  facet normal 1 0 0
    outer loop
      vertex 0.1 1.21929 1.94
      vertex 0.1 1.29841 1.94
      vertex 0.1 1.32102e-16 2.66
    endloop
  endfacet
  facet normal 1 0 0
    outer loop
      vertex 0.1 1.32102e-16 2.66
      vertex 0.1 1.29841 1.94
      vertex 0.1 2.33 1.94
    endloop
  endfacet
  facet normal -1 0 0
    outer loop
      vertex 4.195 0 0.92
      vertex 4.195 2.92 0.92
      vertex 4.195 0 0
    endloop
  endfacet
  facet normal -1 0 0
    outer loop
      vertex 4.195 2.92 0.92
      vertex 4.195 2.92 0
      vertex 4.195 0 0
    endloop
  endfacet
  facet normal 0 -1 0
    outer loop
      vertex 0.1 1.21929 1.94
      vertex 0.1 1.21929 1.04
      vertex 1.14 1.21929 1.94
    endloop
  endfacet
  facet normal 0 -1 0
    outer loop
      vertex 0.1 1.21929 1.04
      vertex 1.14 1.21929 1.04
      vertex 1.14 1.21929 1.94
    endloop
  endfacet
  facet normal 0 1 0
    outer loop
      vertex 4.92 3.69933 0.676667
      vertex 4.92 3.69933 0
      vertex 4.82 3.69933 0.676667
    endloop
  endfacet
  facet normal 0 1 0
    outer loop
      vertex 4.92 3.69933 0
      vertex 4.82 3.69933 0
      vertex 4.82 3.69933 0.676667
    endloop
  endfacet
  facet normal 0.999769 0.0215077 0
    outer loop
      vertex 0.108412 1.29 1.94
      vertex 0.108412 1.29 1.04
      vertex 0.108404 1.29036 1.04
    endloop
  endfacet
  facet normal 0.999769 0.0215077 0
    outer loop
      vertex 0.108412 1.29 1.94
      vertex 0.108404 1.29036 1.04
      vertex 0.108404 1.29036 1.94
    endloop
  endfacet
  facet normal 0.997917 0.0645106 0
    outer loop
      vertex 0.108404 1.29036 1.04
      vertex 0.10838 1.29072 1.04
      vertex 0.108404 1.29036 1.94
    endloop
  endfacet
  facet normal 0.997917 0.0645106 0
    outer loop
      vertex 0.108404 1.29036 1.94
      vertex 0.10838 1.29072 1.04
      vertex 0.10838 1.29072 1.94
    endloop
  endfacet
  facet normal 0.994218 0.107379 0
    outer loop
      vertex 0.10838 1.29072 1.04
      vertex 0.108342 1.29108 1.04
      vertex 0.10838 1.29072 1.94
    endloop
  endfacet
  facet normal 0.994218 0.107379 0
    outer loop
      vertex 0.10838 1.29072 1.94
      vertex 0.108342 1.29108 1.04
      vertex 0.108342 1.29108 1.94
    endloop
  endfacet
  facet normal 0.988678 0.150055 0
    outer loop
      vertex 0.108342 1.29108 1.04
      vertex 0.108287 1.29144 1.04
      vertex 0.108342 1.29108 1.94
    endloop
  endfacet
  facet normal 0.988678 0.150055 0
    outer loop
      vertex 0.108342 1.29108 1.94
      vertex 0.108287 1.29144 1.04
      vertex 0.108287 1.29144 1.94
    endloop
  endfacet
  facet normal 0.98131 0.192434 0
    outer loop
      vertex 0.108287 1.29144 1.04
      vertex 0.108218 1.2918 1.04
      vertex 0.108287 1.29144 1.94
    endloop
  endfacet
  facet normal 0.98131 0.192434 0
    outer loop
      vertex 0.108287 1.29144 1.94
      vertex 0.108218 1.2918 1.04
      vertex 0.108218 1.2918 1.94
    endloop
  endfacet
  facet normal 0.972106 0.234544 0
    outer loop
      vertex 0.108218 1.2918 1.04
      vertex 0.108133 1.29215 1.04
      vertex 0.108218 1.2918 1.94
    endloop
  endfacet
  facet normal 0.972106 0.234544 0
    outer loop
      vertex 0.108218 1.2918 1.94
      vertex 0.108133 1.29215 1.04
      vertex 0.108133 1.29215 1.94
    endloop
  endfacet
  facet normal 0.961148 0.276034 0
    outer loop
      vertex 0.108133 1.29215 1.04
      vertex 0.108033 1.2925 1.04
      vertex 0.108133 1.29215 1.94
    endloop
  endfacet
  facet normal 0.961148 0.276034 0
    outer loop
      vertex 0.108133 1.29215 1.94
      vertex 0.108033 1.2925 1.04
      vertex 0.108033 1.2925 1.94
    endloop
  endfacet
  facet normal 0.948341 0.317253 0
    outer loop
      vertex 0.108033 1.2925 1.04
      vertex 0.107918 1.29284 1.04
      vertex 0.108033 1.2925 1.94
    endloop
  endfacet
  facet normal 0.948341 0.317253 0
    outer loop
      vertex 0.108033 1.2925 1.94
      vertex 0.107918 1.29284 1.04
      vertex 0.107918 1.29284 1.94
    endloop
  endfacet
  facet normal 0.933857 0.357647 0
    outer loop
      vertex 0.107918 1.29284 1.04
      vertex 0.107788 1.29318 1.04
      vertex 0.107918 1.29284 1.94
    endloop
  endfacet
  facet normal 0.933857 0.357647 0
    outer loop
      vertex 0.107918 1.29284 1.94
      vertex 0.107788 1.29318 1.04
      vertex 0.107788 1.29318 1.94
    endloop
  endfacet
  facet normal 0.917573 0.397568 0
    outer loop
      vertex 0.107788 1.29318 1.04
      vertex 0.107645 1.29351 1.04
      vertex 0.107788 1.29318 1.94
    endloop
  endfacet
  facet normal 0.917573 0.397568 0
    outer loop
      vertex 0.107788 1.29318 1.94
      vertex 0.107645 1.29351 1.04
      vertex 0.107645 1.29351 1.94
    endloop
  endfacet
  facet normal 0.899658 0.436595 0
    outer loop
      vertex 0.107645 1.29351 1.04
      vertex 0.107487 1.29383 1.04
      vertex 0.107645 1.29351 1.94
    endloop
  endfacet
  facet normal 0.899658 0.436595 0
    outer loop
      vertex 0.107645 1.29351 1.94
      vertex 0.107487 1.29383 1.04
      vertex 0.107487 1.29383 1.94
    endloop
  endfacet
  facet normal 0.880009 0.474956 0
    outer loop
      vertex 0.107487 1.29383 1.04
      vertex 0.107315 1.29415 1.04
      vertex 0.107487 1.29383 1.94
    endloop
  endfacet
  facet normal 0.880009 0.474956 0
    outer loop
      vertex 0.107487 1.29383 1.94
      vertex 0.107315 1.29415 1.04
      vertex 0.107315 1.29415 1.94
    endloop
  endfacet
  facet normal 0.858709 0.512463 0
    outer loop
      vertex 0.107315 1.29415 1.04
      vertex 0.107129 1.29446 1.04
      vertex 0.107315 1.29415 1.94
    endloop
  endfacet
  facet normal 0.858709 0.512463 0
    outer loop
      vertex 0.107315 1.29415 1.94
      vertex 0.107129 1.29446 1.04
      vertex 0.107129 1.29446 1.94
    endloop
  endfacet
  facet normal 0.835906 0.548872 0
    outer loop
      vertex 0.107129 1.29446 1.04
      vertex 0.10693 1.29477 1.04
      vertex 0.107129 1.29446 1.94
    endloop
  endfacet
  facet normal 0.835906 0.548872 0
    outer loop
      vertex 0.107129 1.29446 1.94
      vertex 0.10693 1.29477 1.04
      vertex 0.10693 1.29477 1.94
    endloop
  endfacet
  facet normal 0.81164 0.584158 0
    outer loop
      vertex 0.10693 1.29477 1.04
      vertex 0.106719 1.29506 1.04
      vertex 0.10693 1.29477 1.94
    endloop
  endfacet
  facet normal 0.81164 0.584158 0
    outer loop
      vertex 0.10693 1.29477 1.94
      vertex 0.106719 1.29506 1.04
      vertex 0.106719 1.29506 1.94
    endloop
  endfacet
  facet normal 0.785576 0.618765 0
    outer loop
      vertex 0.106719 1.29506 1.04
      vertex 0.106495 1.29534 1.04
      vertex 0.106719 1.29506 1.94
    endloop
  endfacet
  facet normal 0.785576 0.618765 0
    outer loop
      vertex 0.106719 1.29506 1.94
      vertex 0.106495 1.29534 1.04
      vertex 0.106495 1.29534 1.94
    endloop
  endfacet
  facet normal 0.758371 0.651823 0
    outer loop
      vertex 0.106495 1.29534 1.04
      vertex 0.106259 1.29562 1.04
      vertex 0.106495 1.29534 1.94
    endloop
  endfacet
  facet normal 0.758371 0.651823 0
    outer loop
      vertex 0.106495 1.29534 1.94
      vertex 0.106259 1.29562 1.04
      vertex 0.106259 1.29562 1.94
    endloop
  endfacet
  facet normal 0.729527 0.683952 0
    outer loop
      vertex 0.106259 1.29562 1.04
      vertex 0.106012 1.29588 1.04
      vertex 0.106259 1.29562 1.94
    endloop
  endfacet
  facet normal 0.729527 0.683952 0
    outer loop
      vertex 0.106259 1.29562 1.94
      vertex 0.106012 1.29588 1.04
      vertex 0.106012 1.29588 1.94
    endloop
  endfacet
  facet normal 0.699481 0.714651 0
    outer loop
      vertex 0.106012 1.29588 1.04
      vertex 0.105753 1.29614 1.04
      vertex 0.106012 1.29588 1.94
    endloop
  endfacet
  facet normal 0.699481 0.714651 0
    outer loop
      vertex 0.106012 1.29588 1.94
      vertex 0.105753 1.29614 1.04
      vertex 0.105753 1.29614 1.94
    endloop
  endfacet
  facet normal 0.667975 0.744184 0
    outer loop
      vertex 0.105753 1.29614 1.04
      vertex 0.105483 1.29638 1.04
      vertex 0.105753 1.29614 1.94
    endloop
  endfacet
  facet normal 0.667975 0.744184 0
    outer loop
      vertex 0.105753 1.29614 1.94
      vertex 0.105483 1.29638 1.04
      vertex 0.105483 1.29638 1.94
    endloop
  endfacet
  facet normal 0.635547 0.772062 0
    outer loop
      vertex 0.105483 1.29638 1.04
      vertex 0.105204 1.29661 1.04
      vertex 0.105483 1.29638 1.94
    endloop
  endfacet
  facet normal 0.635547 0.772062 0
    outer loop
      vertex 0.105483 1.29638 1.94
      vertex 0.105204 1.29661 1.04
      vertex 0.105204 1.29661 1.94
    endloop
  endfacet
  facet normal 0.601458 0.798904 0
    outer loop
      vertex 0.105204 1.29661 1.04
      vertex 0.104915 1.29683 1.04
      vertex 0.105204 1.29661 1.94
    endloop
  endfacet
  facet normal 0.601458 0.798904 0
    outer loop
      vertex 0.105204 1.29661 1.94
      vertex 0.104915 1.29683 1.04
      vertex 0.104915 1.29683 1.94
    endloop
  endfacet
  facet normal 0.566763 0.823881 0
    outer loop
      vertex 0.104915 1.29683 1.04
      vertex 0.104617 1.29703 1.04
      vertex 0.104915 1.29683 1.94
    endloop
  endfacet
  facet normal 0.566763 0.823881 0
    outer loop
      vertex 0.104915 1.29683 1.94
      vertex 0.104617 1.29703 1.04
      vertex 0.104617 1.29703 1.94
    endloop
  endfacet
  facet normal 0.530842 0.847471 0
    outer loop
      vertex 0.104617 1.29703 1.04
      vertex 0.10431 1.29722 1.04
      vertex 0.104617 1.29703 1.94
    endloop
  endfacet
  facet normal 0.530842 0.847471 0
    outer loop
      vertex 0.104617 1.29703 1.94
      vertex 0.10431 1.29722 1.04
      vertex 0.10431 1.29722 1.94
    endloop
  endfacet
  facet normal 0.493699 0.869633 0
    outer loop
      vertex 0.10431 1.29722 1.04
      vertex 0.103995 1.2974 1.04
      vertex 0.10431 1.29722 1.94
    endloop
  endfacet
  facet normal 0.493699 0.869633 0
    outer loop
      vertex 0.10431 1.29722 1.94
      vertex 0.103995 1.2974 1.04
      vertex 0.103995 1.2974 1.94
    endloop
  endfacet
  facet normal 0.45583 0.890067 0
    outer loop
      vertex 0.103995 1.2974 1.04
      vertex 0.103673 1.29757 1.04
      vertex 0.103995 1.2974 1.94
    endloop
  endfacet
  facet normal 0.45583 0.890067 0
    outer loop
      vertex 0.103995 1.2974 1.94
      vertex 0.103673 1.29757 1.04
      vertex 0.103673 1.29757 1.94
    endloop
  endfacet
  facet normal 0.417253 0.90879 0
    outer loop
      vertex 0.103673 1.29757 1.04
      vertex 0.103344 1.29772 1.04
      vertex 0.103673 1.29757 1.94
    endloop
  endfacet
  facet normal 0.417253 0.90879 0
    outer loop
      vertex 0.103673 1.29757 1.94
      vertex 0.103344 1.29772 1.04
      vertex 0.103344 1.29772 1.94
    endloop
  endfacet
  facet normal 0.377741 0.925911 0
    outer loop
      vertex 0.103344 1.29772 1.04
      vertex 0.103009 1.29786 1.04
      vertex 0.103344 1.29772 1.94
    endloop
  endfacet
  facet normal 0.377741 0.925911 0
    outer loop
      vertex 0.103344 1.29772 1.94
      vertex 0.103009 1.29786 1.04
      vertex 0.103009 1.29786 1.94
    endloop
  endfacet
  facet normal 0.337568 0.941301 0
    outer loop
      vertex 0.103009 1.29786 1.04
      vertex 0.102668 1.29798 1.04
      vertex 0.103009 1.29786 1.94
    endloop
  endfacet
  facet normal 0.337568 0.941301 0
    outer loop
      vertex 0.103009 1.29786 1.94
      vertex 0.102668 1.29798 1.04
      vertex 0.102668 1.29798 1.94
    endloop
  endfacet
  facet normal 0.296729 0.954962 0
    outer loop
      vertex 0.102668 1.29798 1.04
      vertex 0.102322 1.29808 1.04
      vertex 0.102668 1.29798 1.94
    endloop
  endfacet
  facet normal 0.296729 0.954962 0
    outer loop
      vertex 0.102668 1.29798 1.94
      vertex 0.102322 1.29808 1.04
      vertex 0.102322 1.29808 1.94
    endloop
  endfacet
  facet normal 0.255248 0.966876 0
    outer loop
      vertex 0.102322 1.29808 1.04
      vertex 0.101972 1.29818 1.04
      vertex 0.102322 1.29808 1.94
    endloop
  endfacet
  facet normal 0.255248 0.966876 0
    outer loop
      vertex 0.102322 1.29808 1.94
      vertex 0.101972 1.29818 1.04
      vertex 0.101972 1.29818 1.94
    endloop
  endfacet
  facet normal 0.213416 0.976961 0
    outer loop
      vertex 0.101972 1.29818 1.04
      vertex 0.101619 1.29825 1.04
      vertex 0.101972 1.29818 1.94
    endloop
  endfacet
  facet normal 0.213416 0.976961 0
    outer loop
      vertex 0.101972 1.29818 1.94
      vertex 0.101619 1.29825 1.04
      vertex 0.101619 1.29825 1.94
    endloop
  endfacet
  facet normal 0.171574 0.985171 0
    outer loop
      vertex 0.101619 1.29825 1.04
      vertex 0.101262 1.29832 1.04
      vertex 0.101619 1.29825 1.94
    endloop
  endfacet
  facet normal 0.171574 0.985171 0
    outer loop
      vertex 0.101619 1.29825 1.94
      vertex 0.101262 1.29832 1.04
      vertex 0.101262 1.29832 1.94
    endloop
  endfacet
  facet normal 0.128447 0.991716 0
    outer loop
      vertex 0.101262 1.29832 1.04
      vertex 0.100903 1.29836 1.04
      vertex 0.101262 1.29832 1.94
    endloop
  endfacet
  facet normal 0.128447 0.991716 0
    outer loop
      vertex 0.101262 1.29832 1.94
      vertex 0.100903 1.29836 1.04
      vertex 0.100903 1.29836 1.94
    endloop
  endfacet
  facet normal 0.0862832 0.996271 0
    outer loop
      vertex 0.100903 1.29836 1.04
      vertex 0.100543 1.29839 1.04
      vertex 0.100903 1.29836 1.94
    endloop
  endfacet
  facet normal 0.0862832 0.996271 0
    outer loop
      vertex 0.100903 1.29836 1.94
      vertex 0.100543 1.29839 1.04
      vertex 0.100543 1.29839 1.94
    endloop
  endfacet
  facet normal 0.0428146 0.999083 0
    outer loop
      vertex 0.100543 1.29839 1.04
      vertex 0.100181 1.29841 1.04
      vertex 0.100543 1.29839 1.94
    endloop
  endfacet
  facet normal 0.0428146 0.999083 0
    outer loop
      vertex 0.100543 1.29839 1.94
      vertex 0.100181 1.29841 1.04
      vertex 0.100181 1.29841 1.94
    endloop
  endfacet
  facet normal 0.0105383 0.999944 0
    outer loop
      vertex 0.100181 1.29841 1.94
      vertex 0.100181 1.29841 1.04
      vertex 0.1 1.29841 1.94
    endloop
  endfacet
  facet normal 0.0105383 0.999944 0
    outer loop
      vertex 0.100181 1.29841 1.04
      vertex 0.1 1.29841 1.04
      vertex 0.1 1.29841 1.94
    endloop
  endfacet
  facet normal -0.0105383 0.999944 0
    outer loop
      vertex 0.1 1.29841 1.94
      vertex 0.1 1.29841 1.04
      vertex 0.099819 1.29841 1.94
    endloop
  endfacet
  facet normal -0.0105383 0.999944 0
    outer loop
      vertex 0.1 1.29841 1.04
      vertex 0.099819 1.29841 1.04
      vertex 0.099819 1.29841 1.94
    endloop
  endfacet
  facet normal -0.0428137 0.999083 0
    outer loop
      vertex 0.099819 1.29841 1.04
      vertex 0.0994574 1.29839 1.04
      vertex 0.099819 1.29841 1.94
    endloop
  endfacet
  facet normal -0.0428137 0.999083 0
    outer loop
      vertex 0.099819 1.29841 1.94
      vertex 0.0994574 1.29839 1.04
      vertex 0.0994574 1.29839 1.94
    endloop
  endfacet
  facet normal -0.086285 0.99627 0
    outer loop
      vertex 0.0994574 1.29839 1.04
      vertex 0.0990968 1.29836 1.04
      vertex 0.0994574 1.29839 1.94
    endloop
  endfacet
  facet normal -0.086285 0.99627 0
    outer loop
      vertex 0.0994574 1.29839 1.94
      vertex 0.0990968 1.29836 1.04
      vertex 0.0990968 1.29836 1.94
    endloop
  endfacet
  facet normal -0.128444 0.991717 0
    outer loop
      vertex 0.0990968 1.29836 1.04
      vertex 0.0987378 1.29832 1.04
      vertex 0.0990968 1.29836 1.94
    endloop
  endfacet
  facet normal -0.128444 0.991717 0
    outer loop
      vertex 0.0990968 1.29836 1.94
      vertex 0.0987378 1.29832 1.04
      vertex 0.0987378 1.29832 1.94
    endloop
  endfacet
  facet normal -0.171577 0.985171 0
    outer loop
      vertex 0.0987378 1.29832 1.04
      vertex 0.0983812 1.29825 1.04
      vertex 0.0987378 1.29832 1.94
    endloop
  endfacet
  facet normal -0.171577 0.985171 0
    outer loop
      vertex 0.0987378 1.29832 1.94
      vertex 0.0983812 1.29825 1.04
      vertex 0.0983812 1.29825 1.94
    endloop
  endfacet
  facet normal -0.213416 0.976961 0
    outer loop
      vertex 0.0983812 1.29825 1.04
      vertex 0.0980276 1.29818 1.04
      vertex 0.0983812 1.29825 1.94
    endloop
  endfacet
  facet normal -0.213416 0.976961 0
    outer loop
      vertex 0.0983812 1.29825 1.94
      vertex 0.0980276 1.29818 1.04
      vertex 0.0980276 1.29818 1.94
    endloop
  endfacet
  facet normal -0.255243 0.966877 0
    outer loop
      vertex 0.0980276 1.29818 1.04
      vertex 0.0976776 1.29808 1.04
      vertex 0.0980276 1.29818 1.94
    endloop
  endfacet
  facet normal -0.255243 0.966877 0
    outer loop
      vertex 0.0980276 1.29818 1.94
      vertex 0.0976776 1.29808 1.04
      vertex 0.0976776 1.29808 1.94
    endloop
  endfacet
  facet normal -0.296735 0.95496 0
    outer loop
      vertex 0.0976776 1.29808 1.04
      vertex 0.0973319 1.29798 1.04
      vertex 0.0976776 1.29808 1.94
    endloop
  endfacet
  facet normal -0.296735 0.95496 0
    outer loop
      vertex 0.0976776 1.29808 1.94
      vertex 0.0973319 1.29798 1.04
      vertex 0.0973319 1.29798 1.94
    endloop
  endfacet
  facet normal -0.337562 0.941303 0
    outer loop
      vertex 0.0973319 1.29798 1.04
      vertex 0.0969912 1.29786 1.04
      vertex 0.0973319 1.29798 1.94
    endloop
  endfacet
  facet normal -0.337562 0.941303 0
    outer loop
      vertex 0.0973319 1.29798 1.94
      vertex 0.0969912 1.29786 1.04
      vertex 0.0969912 1.29786 1.94
    endloop
  endfacet
  facet normal -0.377741 0.925911 0
    outer loop
      vertex 0.0969912 1.29786 1.04
      vertex 0.096656 1.29772 1.04
      vertex 0.0969912 1.29786 1.94
    endloop
  endfacet
  facet normal -0.377741 0.925911 0
    outer loop
      vertex 0.0969912 1.29786 1.94
      vertex 0.096656 1.29772 1.04
      vertex 0.096656 1.29772 1.94
    endloop
  endfacet
  facet normal -0.417261 0.908787 0
    outer loop
      vertex 0.096656 1.29772 1.04
      vertex 0.0963271 1.29757 1.04
      vertex 0.096656 1.29772 1.94
    endloop
  endfacet
  facet normal -0.417261 0.908787 0
    outer loop
      vertex 0.096656 1.29772 1.94
      vertex 0.0963271 1.29757 1.04
      vertex 0.0963271 1.29757 1.94
    endloop
  endfacet
  facet normal -0.455822 0.890071 0
    outer loop
      vertex 0.0963271 1.29757 1.04
      vertex 0.0960049 1.2974 1.04
      vertex 0.0963271 1.29757 1.94
    endloop
  endfacet
  facet normal -0.455822 0.890071 0
    outer loop
      vertex 0.0963271 1.29757 1.94
      vertex 0.0960049 1.2974 1.04
      vertex 0.0960049 1.2974 1.94
    endloop
  endfacet
  facet normal -0.493699 0.869633 0
    outer loop
      vertex 0.0960049 1.2974 1.04
      vertex 0.0956902 1.29722 1.04
      vertex 0.0960049 1.2974 1.94
    endloop
  endfacet
  facet normal -0.493699 0.869633 0
    outer loop
      vertex 0.0960049 1.2974 1.94
      vertex 0.0956902 1.29722 1.04
      vertex 0.0956902 1.29722 1.94
    endloop
  endfacet
  facet normal -0.530852 0.847465 0
    outer loop
      vertex 0.0956902 1.29722 1.04
      vertex 0.0953834 1.29703 1.04
      vertex 0.0956902 1.29722 1.94
    endloop
  endfacet
  facet normal -0.530852 0.847465 0
    outer loop
      vertex 0.0956902 1.29722 1.94
      vertex 0.0953834 1.29703 1.04
      vertex 0.0953834 1.29703 1.94
    endloop
  endfacet
  facet normal -0.566763 0.823881 0
    outer loop
      vertex 0.0953834 1.29703 1.04
      vertex 0.0950852 1.29683 1.04
      vertex 0.0953834 1.29703 1.94
    endloop
  endfacet
  facet normal -0.566763 0.823881 0
    outer loop
      vertex 0.0953834 1.29703 1.94
      vertex 0.0950852 1.29683 1.04
      vertex 0.0950852 1.29683 1.94
    endloop
  endfacet
  facet normal -0.601458 0.798904 0
    outer loop
      vertex 0.0950852 1.29683 1.04
      vertex 0.094796 1.29661 1.04
      vertex 0.0950852 1.29683 1.94
    endloop
  endfacet
  facet normal -0.601458 0.798904 0
    outer loop
      vertex 0.0950852 1.29683 1.94
      vertex 0.094796 1.29661 1.04
      vertex 0.094796 1.29661 1.94
    endloop
  endfacet
  facet normal -0.635547 0.772062 0
    outer loop
      vertex 0.094796 1.29661 1.04
      vertex 0.0945165 1.29638 1.04
      vertex 0.094796 1.29661 1.94
    endloop
  endfacet
  facet normal -0.635547 0.772062 0
    outer loop
      vertex 0.094796 1.29661 1.94
      vertex 0.0945165 1.29638 1.04
      vertex 0.0945165 1.29638 1.94
    endloop
  endfacet
  facet normal -0.667964 0.744193 0
    outer loop
      vertex 0.0945165 1.29638 1.04
      vertex 0.0942472 1.29614 1.04
      vertex 0.0945165 1.29638 1.94
    endloop
  endfacet
  facet normal -0.667964 0.744193 0
    outer loop
      vertex 0.0945165 1.29638 1.94
      vertex 0.0942472 1.29614 1.04
      vertex 0.0942472 1.29614 1.94
    endloop
  endfacet
  facet normal -0.699492 0.714641 0
    outer loop
      vertex 0.0942472 1.29614 1.04
      vertex 0.0939885 1.29588 1.04
      vertex 0.0942472 1.29614 1.94
    endloop
  endfacet
  facet normal -0.699492 0.714641 0
    outer loop
      vertex 0.0942472 1.29614 1.94
      vertex 0.0939885 1.29588 1.04
      vertex 0.0939885 1.29588 1.94
    endloop
  endfacet
  facet normal -0.729517 0.683963 0
    outer loop
      vertex 0.0939885 1.29588 1.04
      vertex 0.0937409 1.29562 1.04
      vertex 0.0939885 1.29588 1.94
    endloop
  endfacet
  facet normal -0.729517 0.683963 0
    outer loop
      vertex 0.0939885 1.29588 1.94
      vertex 0.0937409 1.29562 1.04
      vertex 0.0937409 1.29562 1.94
    endloop
  endfacet
  facet normal -0.758381 0.651811 0
    outer loop
      vertex 0.0937409 1.29562 1.04
      vertex 0.093505 1.29534 1.04
      vertex 0.0937409 1.29562 1.94
    endloop
  endfacet
  facet normal -0.758381 0.651811 0
    outer loop
      vertex 0.0937409 1.29562 1.94
      vertex 0.093505 1.29534 1.04
      vertex 0.093505 1.29534 1.94
    endloop
  endfacet
  facet normal -0.785576 0.618765 0
    outer loop
      vertex 0.093505 1.29534 1.04
      vertex 0.093281 1.29506 1.04
      vertex 0.093505 1.29534 1.94
    endloop
  endfacet
  facet normal -0.785576 0.618765 0
    outer loop
      vertex 0.093505 1.29534 1.94
      vertex 0.093281 1.29506 1.04
      vertex 0.093281 1.29506 1.94
    endloop
  endfacet
  facet normal -0.81163 0.584172 0
    outer loop
      vertex 0.093281 1.29506 1.04
      vertex 0.0930695 1.29477 1.04
      vertex 0.093281 1.29506 1.94
    endloop
  endfacet
  facet normal -0.81163 0.584172 0
    outer loop
      vertex 0.093281 1.29506 1.94
      vertex 0.0930695 1.29477 1.04
      vertex 0.0930695 1.29477 1.94
    endloop
  endfacet
  facet normal -0.835906 0.548872 0
    outer loop
      vertex 0.0930695 1.29477 1.04
      vertex 0.0928709 1.29446 1.04
      vertex 0.0930695 1.29477 1.94
    endloop
  endfacet
  facet normal -0.835906 0.548872 0
    outer loop
      vertex 0.0930695 1.29477 1.94
      vertex 0.0928709 1.29446 1.04
      vertex 0.0928709 1.29446 1.94
    endloop
  endfacet
  facet normal -0.858718 0.512448 0
    outer loop
      vertex 0.0928709 1.29446 1.04
      vertex 0.0926854 1.29415 1.04
      vertex 0.0928709 1.29446 1.94
    endloop
  endfacet
  facet normal -0.858718 0.512448 0
    outer loop
      vertex 0.0928709 1.29446 1.94
      vertex 0.0926854 1.29415 1.04
      vertex 0.0926854 1.29415 1.94
    endloop
  endfacet
  facet normal -0.880009 0.474956 0
    outer loop
      vertex 0.0926854 1.29415 1.04
      vertex 0.0925135 1.29383 1.04
      vertex 0.0926854 1.29415 1.94
    endloop
  endfacet
  facet normal -0.880009 0.474956 0
    outer loop
      vertex 0.0926854 1.29415 1.94
      vertex 0.0925135 1.29383 1.04
      vertex 0.0925135 1.29383 1.94
    endloop
  endfacet
  facet normal -0.89965 0.436612 0
    outer loop
      vertex 0.0925135 1.29383 1.04
      vertex 0.0923554 1.29351 1.04
      vertex 0.0925135 1.29383 1.94
    endloop
  endfacet
  facet normal -0.89965 0.436612 0
    outer loop
      vertex 0.0925135 1.29383 1.94
      vertex 0.0923554 1.29351 1.04
      vertex 0.0923554 1.29351 1.94
    endloop
  endfacet
  facet normal -0.91758 0.397551 0
    outer loop
      vertex 0.0923554 1.29351 1.04
      vertex 0.0922115 1.29318 1.04
      vertex 0.0923554 1.29351 1.94
    endloop
  endfacet
  facet normal -0.91758 0.397551 0
    outer loop
      vertex 0.0923554 1.29351 1.94
      vertex 0.0922115 1.29318 1.04
      vertex 0.0922115 1.29318 1.94
    endloop
  endfacet
  facet normal -0.933857 0.357647 0
    outer loop
      vertex 0.0922115 1.29318 1.04
      vertex 0.0920821 1.29284 1.04
      vertex 0.0922115 1.29318 1.94
    endloop
  endfacet
  facet normal -0.933857 0.357647 0
    outer loop
      vertex 0.0922115 1.29318 1.94
      vertex 0.0920821 1.29284 1.04
      vertex 0.0920821 1.29284 1.94
    endloop
  endfacet
  facet normal -0.948341 0.317253 0
    outer loop
      vertex 0.0920821 1.29284 1.04
      vertex 0.0919673 1.2925 1.04
      vertex 0.0920821 1.29284 1.94
    endloop
  endfacet
  facet normal -0.948341 0.317253 0
    outer loop
      vertex 0.0920821 1.29284 1.94
      vertex 0.0919673 1.2925 1.04
      vertex 0.0919673 1.2925 1.94
    endloop
  endfacet
  facet normal -0.961142 0.276053 0
    outer loop
      vertex 0.0919673 1.2925 1.04
      vertex 0.0918673 1.29215 1.04
      vertex 0.0919673 1.2925 1.94
    endloop
  endfacet
  facet normal -0.961142 0.276053 0
    outer loop
      vertex 0.0919673 1.2925 1.94
      vertex 0.0918673 1.29215 1.04
      vertex 0.0918673 1.29215 1.94
    endloop
  endfacet
  facet normal -0.972106 0.234544 0
    outer loop
      vertex 0.0918673 1.29215 1.04
      vertex 0.0917824 1.2918 1.04
      vertex 0.0918673 1.29215 1.94
    endloop
  endfacet
  facet normal -0.972106 0.234544 0
    outer loop
      vertex 0.0918673 1.29215 1.94
      vertex 0.0917824 1.2918 1.04
      vertex 0.0917824 1.2918 1.94
    endloop
  endfacet
  facet normal -0.98131 0.192434 0
    outer loop
      vertex 0.0917824 1.2918 1.04
      vertex 0.0917128 1.29144 1.04
      vertex 0.0917824 1.2918 1.94
    endloop
  endfacet
  facet normal -0.98131 0.192434 0
    outer loop
      vertex 0.0917824 1.2918 1.94
      vertex 0.0917128 1.29144 1.04
      vertex 0.0917128 1.29144 1.94
    endloop
  endfacet
  facet normal -0.988678 0.150055 0
    outer loop
      vertex 0.0917128 1.29144 1.04
      vertex 0.0916585 1.29108 1.04
      vertex 0.0917128 1.29144 1.94
    endloop
  endfacet
  facet normal -0.988678 0.150055 0
    outer loop
      vertex 0.0917128 1.29144 1.94
      vertex 0.0916585 1.29108 1.04
      vertex 0.0916585 1.29108 1.94
    endloop
  endfacet
  facet normal -0.994218 0.107379 0
    outer loop
      vertex 0.0916585 1.29108 1.04
      vertex 0.0916196 1.29072 1.04
      vertex 0.0916585 1.29108 1.94
    endloop
  endfacet
  facet normal -0.994218 0.107379 0
    outer loop
      vertex 0.0916585 1.29108 1.94
      vertex 0.0916196 1.29072 1.04
      vertex 0.0916196 1.29072 1.94
    endloop
  endfacet
  facet normal -0.997918 0.0644901 0
    outer loop
      vertex 0.0916196 1.29072 1.04
      vertex 0.0915962 1.29036 1.04
      vertex 0.0916196 1.29072 1.94
    endloop
  endfacet
  facet normal -0.997918 0.0644901 0
    outer loop
      vertex 0.0916196 1.29072 1.94
      vertex 0.0915962 1.29036 1.04
      vertex 0.0915962 1.29036 1.94
    endloop
  endfacet
  facet normal -0.999768 0.0215283 0
    outer loop
      vertex 0.0915962 1.29036 1.04
      vertex 0.0915885 1.29 1.04
      vertex 0.0915962 1.29036 1.94
    endloop
  endfacet
  facet normal -0.999768 0.0215283 0
    outer loop
      vertex 0.0915962 1.29036 1.94
      vertex 0.0915885 1.29 1.04
      vertex 0.0915885 1.29 1.94
    endloop
  endfacet
  facet normal 0 0 -1
    outer loop
      vertex 0.0920821 1.29284 1.94
      vertex 0.0919673 1.2925 1.94
      vertex 0 1.29 1.94
    endloop
  endfacet
  facet normal 0 0 -1
    outer loop
      vertex 0.0919673 1.2925 1.94
      vertex 0.0918673 1.29215 1.94
      vertex 0 1.29 1.94
    endloop
  endfacet
  facet normal 0 0 -1
    outer loop
      vertex 0 1.29 1.94
      vertex 0.0918673 1.29215 1.94
      vertex 0.0917824 1.2918 1.94
    endloop
  endfacet
  facet normal 0 0 -1
    outer loop
      vertex 0.0915885 1.29 1.94
      vertex 0 1.29 1.94
      vertex 0.0915962 1.29036 1.94
    endloop
  endfacet
  facet normal 0 0 -1
    outer loop
      vertex 0 1.29 1.94
      vertex 0.0916196 1.29072 1.94
      vertex 0.0915962 1.29036 1.94
    endloop
  endfacet
  facet normal 0 0 -1
    outer loop
      vertex 0.0939885 1.29588 1.94
      vertex 0.0937409 1.29562 1.94
      vertex 0 1.29 1.94
    endloop
  endfacet
  facet normal 0 0 -1
    outer loop
      vertex 0.0925135 1.29383 1.94
      vertex 0.0923554 1.29351 1.94
      vertex 0 1.29 1.94
    endloop
  endfacet
  facet normal 0 0 -1
    outer loop
      vertex 0.0923554 1.29351 1.94
      vertex 0.0922115 1.29318 1.94
      vertex 0 1.29 1.94
    endloop
  endfacet
  facet normal 0 0 -1
    outer loop
      vertex 0 1.29 1.94
      vertex 0.0922115 1.29318 1.94
      vertex 0.0920821 1.29284 1.94
    endloop
  endfacet
  facet normal 0 0 -1
    outer loop
      vertex 0.0917824 1.2918 1.94
      vertex 0.0917128 1.29144 1.94
      vertex 0 1.29 1.94
    endloop
  endfacet
  facet normal 0 0 -1
    outer loop
      vertex 0.0917128 1.29144 1.94
      vertex 0.0916585 1.29108 1.94
      vertex 0 1.29 1.94
    endloop
  endfacet
  facet normal 0 0 -1
    outer loop
      vertex 0 1.29 1.94
      vertex 0.0916585 1.29108 1.94
      vertex 0.0916196 1.29072 1.94
    endloop
  endfacet
  facet normal 0 0 -1
    outer loop
      vertex 0.0963271 1.29757 1.94
      vertex 0 2.33 1.94
      vertex 0.096656 1.29772 1.94
    endloop
  endfacet
  facet normal 0 0 -1
    outer loop
      vertex 0 2.33 1.94
      vertex 0.0969912 1.29786 1.94
      vertex 0.096656 1.29772 1.94
    endloop
  endfacet
  facet normal 0 0 -1
    outer loop
      vertex 0.0950852 1.29683 1.94
      vertex 0.094796 1.29661 1.94
      vertex 0 1.29 1.94
    endloop
  endfacet
  facet normal 0 0 -1
    outer loop
      vertex 0.0980276 1.29818 1.94
      vertex 0.0976776 1.29808 1.94
      vertex 0 2.33 1.94
    endloop
  endfacet
  facet normal 0 0 -1
    outer loop
      vertex 0.0976776 1.29808 1.94
      vertex 0.0973319 1.29798 1.94
      vertex 0 2.33 1.94
    endloop
  endfacet
  facet normal 0 0 -1
    outer loop
      vertex 0 2.33 1.94
      vertex 0.0973319 1.29798 1.94
      vertex 0.0969912 1.29786 1.94
    endloop
  endfacet
  facet normal 0 0 -1
    outer loop
      vertex 0.0937409 1.29562 1.94
      vertex 0.093505 1.29534 1.94
      vertex 0 1.29 1.94
    endloop
  endfacet
  facet normal 0 0 -1
    outer loop
      vertex 0.093505 1.29534 1.94
      vertex 0.093281 1.29506 1.94
      vertex 0 1.29 1.94
    endloop
  endfacet
  facet normal 0 0 -1
    outer loop
      vertex 0 1.29 1.94
      vertex 0.093281 1.29506 1.94
      vertex 0.0930695 1.29477 1.94
    endloop
  endfacet
  facet normal 0 0 -1
    outer loop
      vertex 0.0930695 1.29477 1.94
      vertex 0.0928709 1.29446 1.94
      vertex 0 1.29 1.94
    endloop
  endfacet
  facet normal 0 0 -1
    outer loop
      vertex 0.0928709 1.29446 1.94
      vertex 0.0926854 1.29415 1.94
      vertex 0 1.29 1.94
    endloop
  endfacet
  facet normal 0 0 -1
    outer loop
      vertex 0 1.29 1.94
      vertex 0.0926854 1.29415 1.94
      vertex 0.0925135 1.29383 1.94
    endloop
  endfacet
  facet normal 0 0 -1
    outer loop
      vertex 0 2.33 1.94
      vertex 0.0994574 1.29839 1.94
      vertex 0.0990968 1.29836 1.94
    endloop
  endfacet
  facet normal 0 0 -1
    outer loop
      vertex 0.0963271 1.29757 1.94
      vertex 0.0960049 1.2974 1.94
      vertex 0 2.33 1.94
    endloop
  endfacet
  facet normal 0 0 -1
    outer loop
      vertex 0.0960049 1.2974 1.94
      vertex 0.0956902 1.29722 1.94
      vertex 0 2.33 1.94
    endloop
  endfacet
  facet normal 0 0 -1
    outer loop
      vertex 0 2.33 1.94
      vertex 0.0956902 1.29722 1.94
      vertex 0 1.29 1.94
    endloop
  endfacet
  facet normal 0 0 -1
    outer loop
      vertex 0.0956902 1.29722 1.94
      vertex 0.0953834 1.29703 1.94
      vertex 0 1.29 1.94
    endloop
  endfacet
  facet normal 0 0 -1
    outer loop
      vertex 0 1.29 1.94
      vertex 0.0953834 1.29703 1.94
      vertex 0.0950852 1.29683 1.94
    endloop
  endfacet
  facet normal 0 0 -1
    outer loop
      vertex 0.094796 1.29661 1.94
      vertex 0.0945165 1.29638 1.94
      vertex 0 1.29 1.94
    endloop
  endfacet
  facet normal 0 0 -1
    outer loop
      vertex 0.0945165 1.29638 1.94
      vertex 0.0942472 1.29614 1.94
      vertex 0 1.29 1.94
    endloop
  endfacet
  facet normal 0 0 -1
    outer loop
      vertex 0 1.29 1.94
      vertex 0.0942472 1.29614 1.94
      vertex 0.0939885 1.29588 1.94
    endloop
  endfacet
  facet normal 0 0 -1
    outer loop
      vertex 0.1 2.33 1.94
      vertex 0.1 1.29841 1.94
      vertex 0 2.33 1.94
    endloop
  endfacet
  facet normal 0 0 -1
    outer loop
      vertex 0.1 1.29841 1.94
      vertex 0.099819 1.29841 1.94
      vertex 0 2.33 1.94
    endloop
  endfacet
  facet normal 0 0 -1
    outer loop
      vertex 0 2.33 1.94
      vertex 0.099819 1.29841 1.94
      vertex 0.0994574 1.29839 1.94
    endloop
  endfacet
  facet normal 0 0 -1
    outer loop
      vertex 0.0990968 1.29836 1.94
      vertex 0.0987378 1.29832 1.94
      vertex 0 2.33 1.94
    endloop
  endfacet
  facet normal 0 0 -1
    outer loop
      vertex 0.0987378 1.29832 1.94
      vertex 0.0983812 1.29825 1.94
      vertex 0 2.33 1.94
    endloop
  endfacet
  facet normal 0 0 -1
    outer loop
      vertex 0 2.33 1.94
      vertex 0.0983812 1.29825 1.94
      vertex 0.0980276 1.29818 1.94
    endloop
  endfacet
  facet normal 0 0 1
    outer loop
      vertex 4.195 0 0.92
      vertex 4.82 0 0.92
      vertex 4.195 2.92 0.92
    endloop
  endfacet
  facet normal 0 0 1
    outer loop
      vertex 4.82 0 0.92
      vertex 4.82 2.92 0.92
      vertex 4.195 2.92 0.92
    endloop
  endfacet
  facet normal 0 0 -1
    outer loop
      vertex 0.108412 1.29 1.04
      vertex 1.14 1.29 1.04
      vertex 1.14 1.21929 1.04
    endloop
  endfacet
  facet normal 0 0 -1
    outer loop
      vertex 0.1 1.29841 1.04
      vertex 0.100181 1.29841 1.04
      vertex 0.1 1.21929 1.04
    endloop
  endfacet
  facet normal 0 0 -1
    outer loop
      vertex 0.100181 1.29841 1.04
      vertex 0.100543 1.29839 1.04
      vertex 0.1 1.21929 1.04
    endloop
  endfacet
  facet normal 0 0 -1
    outer loop
      vertex 0.1 1.21929 1.04
      vertex 0.100543 1.29839 1.04
      vertex 0.100903 1.29836 1.04
    endloop
  endfacet
  facet normal 0 0 -1
    outer loop
      vertex 0.100903 1.29836 1.04
      vertex 0.101262 1.29832 1.04
      vertex 0.1 1.21929 1.04
    endloop
  endfacet
  facet normal 0 0 -1
    outer loop
      vertex 0.101262 1.29832 1.04
      vertex 0.101619 1.29825 1.04
      vertex 0.1 1.21929 1.04
    endloop
  endfacet
  facet normal 0 0 -1
    outer loop
      vertex 0.1 1.21929 1.04
      vertex 0.101619 1.29825 1.04
      vertex 0.101972 1.29818 1.04
    endloop
  endfacet
  facet normal 0 0 -1
    outer loop
      vertex 1.14 1.21929 1.04
      vertex 0.1 1.21929 1.04
      vertex 0.108412 1.29 1.04
    endloop
  endfacet
  facet normal 0 0 -1
    outer loop
      vertex 0.1 1.21929 1.04
      vertex 0.101972 1.29818 1.04
      vertex 0.108412 1.29 1.04
    endloop
  endfacet
  facet normal 0 0 -1
    outer loop
      vertex 0.108412 1.29 1.04
      vertex 0.101972 1.29818 1.04
      vertex 0.108404 1.29036 1.04
    endloop
  endfacet
  facet normal 0 0 -1
    outer loop
      vertex 0.101972 1.29818 1.04
      vertex 0.102322 1.29808 1.04
      vertex 0.108404 1.29036 1.04
    endloop
  endfacet
  facet normal 0 0 -1
    outer loop
      vertex 0.103344 1.29772 1.04
      vertex 0.103673 1.29757 1.04
      vertex 0.106719 1.29506 1.04
    endloop
  endfacet
  facet normal 0 0 -1
    outer loop
      vertex 0.107129 1.29446 1.04
      vertex 0.107315 1.29415 1.04
      vertex 0.103009 1.29786 1.04
    endloop
  endfacet
  facet normal 0 0 -1
    outer loop
      vertex 0.107315 1.29415 1.04
      vertex 0.107487 1.29383 1.04
      vertex 0.103009 1.29786 1.04
    endloop
  endfacet
  facet normal 0 0 -1
    outer loop
      vertex 0.107487 1.29383 1.04
      vertex 0.107645 1.29351 1.04
      vertex 0.103009 1.29786 1.04
    endloop
  endfacet
  facet normal 0 0 -1
    outer loop
      vertex 0.103009 1.29786 1.04
      vertex 0.107645 1.29351 1.04
      vertex 0.107788 1.29318 1.04
    endloop
  endfacet
  facet normal 0 0 -1
    outer loop
      vertex 0.104617 1.29703 1.04
      vertex 0.104915 1.29683 1.04
      vertex 0.106719 1.29506 1.04
    endloop
  endfacet
  facet normal 0 0 -1
    outer loop
      vertex 0.104915 1.29683 1.04
      vertex 0.105204 1.29661 1.04
      vertex 0.106719 1.29506 1.04
    endloop
  endfacet
  facet normal 0 0 -1
    outer loop
      vertex 0.106719 1.29506 1.04
      vertex 0.105204 1.29661 1.04
      vertex 0.106495 1.29534 1.04
    endloop
  endfacet
  facet normal 0 0 -1
    outer loop
      vertex 0.105753 1.29614 1.04
      vertex 0.106012 1.29588 1.04
      vertex 0.106259 1.29562 1.04
    endloop
  endfacet
  facet normal 0 0 -1
    outer loop
      vertex 0.103344 1.29772 1.04
      vertex 0.106719 1.29506 1.04
      vertex 0.103009 1.29786 1.04
    endloop
  endfacet
  facet normal 0 0 -1
    outer loop
      vertex 0.106719 1.29506 1.04
      vertex 0.10693 1.29477 1.04
      vertex 0.103009 1.29786 1.04
    endloop
  endfacet
  facet normal 0 0 -1
    outer loop
      vertex 0.103009 1.29786 1.04
      vertex 0.10693 1.29477 1.04
      vertex 0.107129 1.29446 1.04
    endloop
  endfacet
  facet normal 0 0 -1
    outer loop
      vertex 0.107788 1.29318 1.04
      vertex 0.107918 1.29284 1.04
      vertex 0.103009 1.29786 1.04
    endloop
  endfacet
  facet normal 0 0 -1
    outer loop
      vertex 0.107918 1.29284 1.04
      vertex 0.108033 1.2925 1.04
      vertex 0.103009 1.29786 1.04
    endloop
  endfacet
  facet normal 0 0 -1
    outer loop
      vertex 0.103009 1.29786 1.04
      vertex 0.108033 1.2925 1.04
      vertex 0.108133 1.29215 1.04
    endloop
  endfacet
  facet normal 0 0 -1
    outer loop
      vertex 0.108133 1.29215 1.04
      vertex 0.108218 1.2918 1.04
      vertex 0.103009 1.29786 1.04
    endloop
  endfacet
  facet normal 0 0 -1
    outer loop
      vertex 0.108218 1.2918 1.04
      vertex 0.108287 1.29144 1.04
      vertex 0.103009 1.29786 1.04
    endloop
  endfacet
  facet normal 0 0 -1
    outer loop
      vertex 0.103009 1.29786 1.04
      vertex 0.108287 1.29144 1.04
      vertex 0.108342 1.29108 1.04
    endloop
  endfacet
  facet normal 0 0 -1
    outer loop
      vertex 0.102322 1.29808 1.04
      vertex 0.102668 1.29798 1.04
      vertex 0.108404 1.29036 1.04
    endloop
  endfacet
  facet normal 0 0 -1
    outer loop
      vertex 0.102668 1.29798 1.04
      vertex 0.103009 1.29786 1.04
      vertex 0.108404 1.29036 1.04
    endloop
  endfacet
  facet normal 0 0 -1
    outer loop
      vertex 0.108404 1.29036 1.04
      vertex 0.103009 1.29786 1.04
      vertex 0.10838 1.29072 1.04
    endloop
  endfacet
  facet normal 0 0 -1
    outer loop
      vertex 0.103009 1.29786 1.04
      vertex 0.108342 1.29108 1.04
      vertex 0.10838 1.29072 1.04
    endloop
  endfacet
  facet normal 0 0 -1
    outer loop
      vertex 0.106495 1.29534 1.04
      vertex 0.105204 1.29661 1.04
      vertex 0.106259 1.29562 1.04
    endloop
  endfacet
  facet normal 0 0 -1
    outer loop
      vertex 0.105204 1.29661 1.04
      vertex 0.105483 1.29638 1.04
      vertex 0.106259 1.29562 1.04
    endloop
  endfacet
  facet normal 0 0 -1
    outer loop
      vertex 0.106259 1.29562 1.04
      vertex 0.105483 1.29638 1.04
      vertex 0.105753 1.29614 1.04
    endloop
  endfacet
  facet normal 0 0 -1
    outer loop
      vertex 0.103673 1.29757 1.04
      vertex 0.103995 1.2974 1.04
      vertex 0.106719 1.29506 1.04
    endloop
  endfacet
  facet normal 0 0 -1
    outer loop
      vertex 0.103995 1.2974 1.04
      vertex 0.10431 1.29722 1.04
      vertex 0.106719 1.29506 1.04
    endloop
  endfacet
  facet normal 0 0 -1
    outer loop
      vertex 0.106719 1.29506 1.04
      vertex 0.10431 1.29722 1.04
      vertex 0.104617 1.29703 1.04
    endloop
  endfacet
  facet normal 0 0 -1
    outer loop
      vertex 4.92 4.965 -0.1
      vertex 4.92 -0.1 -0.1
      vertex -8.88178e-16 4.965 -0.1
    endloop
  endfacet
  facet normal 0 0 -1
    outer loop
      vertex 4.92 -0.1 -0.1
      vertex 0 -0.1 -0.1
      vertex -8.88178e-16 4.965 -0.1
    endloop
  endfacet
  facet normal 0 1 0
    outer loop
      vertex 4.16 3.62 1.76
      vertex 4.82 3.62 1.76
      vertex 4.16 3.62 0
    endloop
  endfacet
  facet normal 0 1 0
    outer loop
      vertex 4.82 3.62 1.76
      vertex 4.82 3.62 0
      vertex 4.16 3.62 0
    endloop
  endfacet
  facet normal -1 0 0
    outer loop
      vertex 4.16 2.92 1.76
      vertex 4.16 3.62 1.76
      vertex 4.16 2.92 0
    endloop
  endfacet
  facet normal -1 0 0
    outer loop
      vertex 4.16 3.62 1.76
      vertex 4.16 3.62 0
      vertex 4.16 2.92 0
    endloop
  endfacet
  facet normal 0 0 1
    outer loop
      vertex 4.16 3.62 1.76
      vertex 4.16 2.92 1.76
      vertex 4.82 3.62 1.76
    endloop
  endfacet
  facet normal 0 0 1
    outer loop
      vertex 4.16 2.92 1.76
      vertex 4.82 2.92 1.76
      vertex 4.82 3.62 1.76
    endloop
  endfacet
  facet normal 0 -1 0
    outer loop
      vertex 4.82 4.62433 0
      vertex 4.92 4.62433 0
      vertex 4.82 4.62433 0.676667
    endloop
  endfacet
  facet normal 0 -1 0
    outer loop
      vertex 4.92 4.62433 0
      vertex 4.92 4.62433 0.676667
      vertex 4.82 4.62433 0.676667
    endloop
  endfacet
  facet normal 0 0 1
    outer loop
      vertex 0.100181 1.29841 1.94
      vertex 0.1 1.29841 1.94
      vertex 0.1 1.21929 1.94
    endloop
  endfacet
  facet normal 0 0 1
    outer loop
      vertex 0.106495 1.29534 1.94
      vertex 0.106259 1.29562 1.94
      vertex 0.100181 1.29841 1.94
    endloop
  endfacet
  facet normal 0 0 1
    outer loop
      vertex 0.108404 1.29036 1.94
      vertex 0.100181 1.29841 1.94
      vertex 0.108412 1.29 1.94
    endloop
  endfacet
  facet normal 0 0 1
    outer loop
      vertex 0.100181 1.29841 1.94
      vertex 0.1 1.21929 1.94
      vertex 0.108412 1.29 1.94
    endloop
  endfacet
  facet normal 0 0 1
    outer loop
      vertex 0.108412 1.29 1.94
      vertex 0.1 1.21929 1.94
      vertex 1.14 1.29 1.94
    endloop
  endfacet
  facet normal 0 0 1
    outer loop
      vertex 0.1 1.21929 1.94
      vertex 1.14 1.21929 1.94
      vertex 1.14 1.29 1.94
    endloop
  endfacet
  facet normal 0 0 1
    outer loop
      vertex 0.108404 1.29036 1.94
      vertex 0.10838 1.29072 1.94
      vertex 0.100181 1.29841 1.94
    endloop
  endfacet
  facet normal 0 0 1
    outer loop
      vertex 0.10838 1.29072 1.94
      vertex 0.108342 1.29108 1.94
      vertex 0.100181 1.29841 1.94
    endloop
  endfacet
  facet normal 0 0 1
    outer loop
      vertex 0.100181 1.29841 1.94
      vertex 0.108342 1.29108 1.94
      vertex 0.108287 1.29144 1.94
    endloop
  endfacet
  facet normal 0 0 1
    outer loop
      vertex 0.108287 1.29144 1.94
      vertex 0.108218 1.2918 1.94
      vertex 0.100181 1.29841 1.94
    endloop
  endfacet
  facet normal 0 0 1
    outer loop
      vertex 0.108218 1.2918 1.94
      vertex 0.108133 1.29215 1.94
      vertex 0.100181 1.29841 1.94
    endloop
  endfacet
  facet normal 0 0 1
    outer loop
      vertex 0.100181 1.29841 1.94
      vertex 0.108133 1.29215 1.94
      vertex 0.108033 1.2925 1.94
    endloop
  endfacet
  facet normal 0 0 1
    outer loop
      vertex 0.108033 1.2925 1.94
      vertex 0.107918 1.29284 1.94
      vertex 0.100181 1.29841 1.94
    endloop
  endfacet
  facet normal 0 0 1
    outer loop
      vertex 0.107918 1.29284 1.94
      vertex 0.107788 1.29318 1.94
      vertex 0.100181 1.29841 1.94
    endloop
  endfacet
  facet normal 0 0 1
    outer loop
      vertex 0.100181 1.29841 1.94
      vertex 0.107788 1.29318 1.94
      vertex 0.107645 1.29351 1.94
    endloop
  endfacet
  facet normal 0 0 1
    outer loop
      vertex 0.107645 1.29351 1.94
      vertex 0.107487 1.29383 1.94
      vertex 0.100181 1.29841 1.94
    endloop
  endfacet
  facet normal 0 0 1
    outer loop
      vertex 0.107487 1.29383 1.94
      vertex 0.107315 1.29415 1.94
      vertex 0.100181 1.29841 1.94
    endloop
  endfacet
  facet normal 0 0 1
    outer loop
      vertex 0.100181 1.29841 1.94
      vertex 0.107315 1.29415 1.94
      vertex 0.107129 1.29446 1.94
    endloop
  endfacet
  facet normal 0 0 1
    outer loop
      vertex 0.106259 1.29562 1.94
      vertex 0.106012 1.29588 1.94
      vertex 0.100181 1.29841 1.94
    endloop
  endfacet
  facet normal 0 0 1
    outer loop
      vertex 0.106012 1.29588 1.94
      vertex 0.105753 1.29614 1.94
      vertex 0.100181 1.29841 1.94
    endloop
  endfacet
  facet normal 0 0 1
    outer loop
      vertex 0.100181 1.29841 1.94
      vertex 0.105753 1.29614 1.94
      vertex 0.105483 1.29638 1.94
    endloop
  endfacet
  facet normal 0 0 1
    outer loop
      vertex 0.103995 1.2974 1.94
      vertex 0.100181 1.29841 1.94
      vertex 0.10431 1.29722 1.94
    endloop
  endfacet
  facet normal 0 0 1
    outer loop
      vertex 0.100181 1.29841 1.94
      vertex 0.104617 1.29703 1.94
      vertex 0.10431 1.29722 1.94
    endloop
  endfacet
  facet normal 0 0 1
    outer loop
      vertex 0.107129 1.29446 1.94
      vertex 0.10693 1.29477 1.94
      vertex 0.100181 1.29841 1.94
    endloop
  endfacet
  facet normal 0 0 1
    outer loop
      vertex 0.10693 1.29477 1.94
      vertex 0.106719 1.29506 1.94
      vertex 0.100181 1.29841 1.94
    endloop
  endfacet
  facet normal 0 0 1
    outer loop
      vertex 0.100181 1.29841 1.94
      vertex 0.106719 1.29506 1.94
      vertex 0.106495 1.29534 1.94
    endloop
  endfacet
  facet normal 0 0 1
    outer loop
      vertex 0.105483 1.29638 1.94
      vertex 0.105204 1.29661 1.94
      vertex 0.100181 1.29841 1.94
    endloop
  endfacet
  facet normal 0 0 1
    outer loop
      vertex 0.105204 1.29661 1.94
      vertex 0.104915 1.29683 1.94
      vertex 0.100181 1.29841 1.94
    endloop
  endfacet
  facet normal 0 0 1
    outer loop
      vertex 0.100181 1.29841 1.94
      vertex 0.104915 1.29683 1.94
      vertex 0.104617 1.29703 1.94
    endloop
  endfacet
  facet normal 0 0 1
    outer loop
      vertex 0.103009 1.29786 1.94
      vertex 0.102668 1.29798 1.94
      vertex 0.103344 1.29772 1.94
    endloop
  endfacet
  facet normal 0 0 1
    outer loop
      vertex 0.102668 1.29798 1.94
      vertex 0.102322 1.29808 1.94
      vertex 0.103344 1.29772 1.94
    endloop
  endfacet
  facet normal 0 0 1
    outer loop
      vertex 0.103344 1.29772 1.94
      vertex 0.102322 1.29808 1.94
      vertex 0.101972 1.29818 1.94
    endloop
  endfacet
  facet normal 0 0 1
    outer loop
      vertex 0.101972 1.29818 1.94
      vertex 0.101619 1.29825 1.94
      vertex 0.103344 1.29772 1.94
    endloop
  endfacet
  facet normal 0 0 1
    outer loop
      vertex 0.101619 1.29825 1.94
      vertex 0.101262 1.29832 1.94
      vertex 0.103344 1.29772 1.94
    endloop
  endfacet
  facet normal 0 0 1
    outer loop
      vertex 0.103344 1.29772 1.94
      vertex 0.101262 1.29832 1.94
      vertex 0.100903 1.29836 1.94
    endloop
  endfacet
  facet normal 0 0 1
    outer loop
      vertex 0.103995 1.2974 1.94
      vertex 0.103673 1.29757 1.94
      vertex 0.100181 1.29841 1.94
    endloop
  endfacet
  facet normal 0 0 1
    outer loop
      vertex 0.103673 1.29757 1.94
      vertex 0.103344 1.29772 1.94
      vertex 0.100181 1.29841 1.94
    endloop
  endfacet
  facet normal 0 0 1
    outer loop
      vertex 0.100181 1.29841 1.94
      vertex 0.103344 1.29772 1.94
      vertex 0.100543 1.29839 1.94
    endloop
  endfacet
  facet normal 0 0 1
    outer loop
      vertex 0.103344 1.29772 1.94
      vertex 0.100903 1.29836 1.94
      vertex 0.100543 1.29839 1.94
    endloop
  endfacet
  facet normal 0 1 0
    outer loop
      vertex 1.14 1.29 1.94
      vertex 1.14 1.29 1.04
      vertex 0.108412 1.29 1.94
    endloop
  endfacet
  facet normal 0 1 0
    outer loop
      vertex 1.14 1.29 1.04
      vertex 0.108412 1.29 1.04
      vertex 0.108412 1.29 1.94
    endloop
  endfacet
endsolid Mesh
