# Wavefront OBJ file written 2026-05-23T13:27:28
o interiorSurfacesWindowOnly_edgeMesh

# points : 168
# lines  : 182

# <points count="168">
v 0.62 2.19067 1.04
v 0.681237 2.15531 1.04
v 0.161237 1.25464 1.04
v 0.161237 1.25464 1.94
v 0.62 2.19067 1.94
v 0.681237 2.15531 1.94
v 0.025 1.29 1.94
v 0.025 2.33 1.94
v 0.0915885 1.29 1.94
v 0.0915885 1.29 1.04
v 0.025 1.29 1.715
v 0.025 2.33 1.715
v 0 2.33 1.715
v 0 1.29 1.715
v 0.104206 1.29728 1.04
v 0.1 1.28159 1.04
v 0.1 1.29841 1.04
v 0.107285 1.28579 1.04
v 0.107285 1.28579 1.94
v 0.104206 1.29728 1.94
v 0 1.29 1.04
v 0 2.33 1.04
v 0.1 2.33 1.04
v 0.1 2.33 1.94
v 0.1 1.29841 1.94
v 0.1 1.28159 1.94
v 0.10009 1.29841 1.04
v 0.100449 1.2984 1.04
v 0.100808 1.29837 1.04
v 0.101165 1.29833 1.04
v 0.10152 1.29827 1.04
v 0.101872 1.2982 1.04
v 0.10222 1.29811 1.04
v 0.102565 1.29801 1.04
v 0.102905 1.29789 1.04
v 0.10324 1.29776 1.04
v 0.104825 1.28311 1.04
v 0.10452 1.28291 1.04
v 0.103568 1.29762 1.04
v 0.103891 1.29746 1.04
v 0.100367 1.2816 1.04
v 0.100733 1.28162 1.04
v 0.102529 1.28198 1.04
v 0.102177 1.28188 1.04
v 0.101821 1.28179 1.04
v 0.106673 1.28488 1.04
v 0.106444 1.28459 1.04
v 0.10689 1.28518 1.04
v 0.104206 1.28272 1.04
v 0.103884 1.28254 1.04
v 0.103555 1.28238 1.04
v 0.101461 1.28172 1.04
v 0.101098 1.28166 1.04
v 0.107094 1.28548 1.04
v 0.106202 1.28432 1.04
v 0.105948 1.28405 1.04
v 0.105683 1.2838 1.04
v 0.103219 1.28223 1.04
v 0.102877 1.2821 1.04
v 0.105407 1.28356 1.04
v 0.105121 1.28333 1.04
v 0.103891 1.29746 1.94
v 0.103568 1.29762 1.94
v 0.10324 1.29776 1.94
v 0.102905 1.29789 1.94
v 0.102565 1.29801 1.94
v 0.10222 1.29811 1.94
v 0.101872 1.2982 1.94
v 0.10152 1.29827 1.94
v 0.101165 1.29833 1.94
v 0.100808 1.29837 1.94
v 0.100449 1.2984 1.94
v 0.10009 1.29841 1.94
v 0.100367 1.2816 1.94
v 0.100733 1.28162 1.94
v 0.101098 1.28166 1.94
v 0.101461 1.28172 1.94
v 0.101821 1.28179 1.94
v 0.102177 1.28188 1.94
v 0.102529 1.28198 1.94
v 0.102877 1.2821 1.94
v 0.103219 1.28223 1.94
v 0.103555 1.28238 1.94
v 0.103884 1.28254 1.94
v 0.104206 1.28272 1.94
v 0.10452 1.28291 1.94
v 0.104825 1.28311 1.94
v 0.105121 1.28333 1.94
v 0.105407 1.28356 1.94
v 0.105683 1.2838 1.94
v 0.105948 1.28405 1.94
v 0.106202 1.28432 1.94
v 0.106444 1.28459 1.94
v 0.106673 1.28488 1.94
v 0.10689 1.28518 1.94
v 0.107094 1.28548 1.94
v 0.0915961 1.29036 1.04
v 0.0928539 1.29444 1.04
v 0.0930501 1.29474 1.04
v 0.0923452 1.29349 1.04
v 0.0925012 1.29381 1.04
v 0.0926709 1.29413 1.04
v 0.0932589 1.29503 1.04
v 0.09348 1.29531 1.04
v 0.093713 1.29559 1.04
v 0.0916192 1.29072 1.04
v 0.0916575 1.29108 1.04
v 0.0917111 1.29143 1.04
v 0.0917798 1.29178 1.04
v 0.0918636 1.29213 1.04
v 0.0919622 1.29248 1.04
v 0.0920754 1.29282 1.04
v 0.0922032 1.29316 1.04
v 0.0939576 1.29585 1.04
v 0.0942131 1.2961 1.04
v 0.0944793 1.29635 1.04
v 0.0953361 1.297 1.04
v 0.0956395 1.29719 1.04
v 0.0959509 1.29737 1.04
v 0.0962696 1.29754 1.04
v 0.0965951 1.29769 1.04
v 0.0969269 1.29783 1.04
v 0.0990136 1.29835 1.04
v 0.0993714 1.29839 1.04
v 0.0997304 1.29841 1.04
v 0.0972643 1.29795 1.04
v 0.0976067 1.29806 1.04
v 0.0979534 1.29816 1.04
v 0.0947555 1.29658 1.04
v 0.0950413 1.29679 1.04
v 0.0983039 1.29824 1.04
v 0.0986575 1.2983 1.04
v 0.0915961 1.29036 1.94
v 0.0932589 1.29503 1.94
v 0.0930501 1.29474 1.94
v 0.0928539 1.29444 1.94
v 0.0942131 1.2961 1.94
v 0.0939576 1.29585 1.94
v 0.093713 1.29559 1.94
v 0.09348 1.29531 1.94
v 0.0926709 1.29413 1.94
v 0.0925012 1.29381 1.94
v 0.0923452 1.29349 1.94
v 0.0917111 1.29143 1.94
v 0.0916575 1.29108 1.94
v 0.0916192 1.29072 1.94
v 0.0965951 1.29769 1.94
v 0.0962696 1.29754 1.94
v 0.0959509 1.29737 1.94
v 0.0922032 1.29316 1.94
v 0.0920754 1.29282 1.94
v 0.0919622 1.29248 1.94
v 0.0918636 1.29213 1.94
v 0.0917798 1.29178 1.94
v 0.0990136 1.29835 1.94
v 0.0986575 1.2983 1.94
v 0.0993714 1.29839 1.94
v 0.0976067 1.29806 1.94
v 0.0972643 1.29795 1.94
v 0.0969269 1.29783 1.94
v 0.0956395 1.29719 1.94
v 0.0953361 1.297 1.94
v 0.0950413 1.29679 1.94
v 0.0997304 1.29841 1.94
v 0.0983039 1.29824 1.94
v 0.0979534 1.29816 1.94
v 0.0947555 1.29658 1.94
v 0.0944793 1.29635 1.94
# </points>

# <edges count="182">
l 11 12
l 14 13
l 15 1
l 1 2
l 17 27
l 27 28
l 28 29
l 29 30
l 30 31
l 31 32
l 32 33
l 33 34
l 34 35
l 35 36
l 37 38
l 36 39
l 39 40
l 41 16
l 42 41
l 43 44
l 44 45
l 46 47
l 48 46
l 38 49
l 49 50
l 50 51
l 45 52
l 52 53
l 53 42
l 2 3
l 3 18
l 40 15
l 18 54
l 54 48
l 47 55
l 55 56
l 56 57
l 51 58
l 58 59
l 59 43
l 57 60
l 60 61
l 61 37
l 3 4
l 4 19
l 5 1
l 20 5
l 21 14
l 22 21
l 17 23
l 22 13
l 24 25
l 62 20
l 63 62
l 64 63
l 65 64
l 66 65
l 67 66
l 68 67
l 69 68
l 70 69
l 71 70
l 72 71
l 73 72
l 25 73
l 6 4
l 2 6
l 24 23
l 5 6
l 74 26
l 75 74
l 76 75
l 77 76
l 78 77
l 79 78
l 80 79
l 81 80
l 82 81
l 83 82
l 84 83
l 85 84
l 86 85
l 87 86
l 88 87
l 89 88
l 90 89
l 91 90
l 92 91
l 93 92
l 94 93
l 95 94
l 96 95
l 19 96
l 7 11
l 8 7
l 12 8
l 13 12
l 11 14
l 16 17
l 19 18
l 15 20
l 7 9
l 9 10
l 10 21
l 10 97
l 98 99
l 100 101
l 101 102
l 102 98
l 99 103
l 103 104
l 104 105
l 23 22
l 97 106
l 106 107
l 107 108
l 108 109
l 109 110
l 110 111
l 111 112
l 112 113
l 113 100
l 105 114
l 114 115
l 115 116
l 117 118
l 118 119
l 119 120
l 120 121
l 121 122
l 123 124
l 124 125
l 125 17
l 122 126
l 126 127
l 127 128
l 116 129
l 129 130
l 130 117
l 128 131
l 131 132
l 132 123
l 133 9
l 134 135
l 135 136
l 137 138
l 138 139
l 139 140
l 140 134
l 136 141
l 141 142
l 142 143
l 144 145
l 145 146
l 146 133
l 147 148
l 148 149
l 143 150
l 150 151
l 151 152
l 152 153
l 153 154
l 154 144
l 155 156
l 157 155
l 158 159
l 159 160
l 160 147
l 149 161
l 161 162
l 162 163
l 8 24
l 25 164
l 164 157
l 156 165
l 165 166
l 166 158
l 163 167
l 167 168
l 168 137
l 16 26
l 26 25
# </edges>
